<?xml version="1.0" encoding="utf-8"?>
<!-- Generator: Adobe Illustrator 16.0.0, SVG Export Plug-In . SVG Version: 6.00 Build 0)  -->
<!DOCTYPE svg PUBLIC "-//W3C//DTD SVG 1.1//EN" "http://www.w3.org/Graphics/SVG/1.1/DTD/svg11.dtd">
<svg xmlns="http://www.w3.org/2000/svg" xmlns:xlink="http://www.w3.org/1999/xlink" version="1.1" id="Layer_1" x="0px" y="0px" width="1400px" height="980px" viewBox="0 0 1400 980" enable-background="new 0 0 1400 980" xml:space="preserve">
<g>
	<g>
		<rect x="-6804.6" y="-1485.2" fill="#FFFFFF" width="371.8" height="260.3"/>
	</g>
	<g>
		<rect x="-6693.9" y="-1419.2" fill="#E6E7E8" width="144.3" height="86.4"/>
		<path d="M-6549.5-1332.3h-144.3c-0.3,0-0.5-0.2-0.5-0.5v-86.4c0-0.3,0.2-0.5,0.5-0.5h144.3c0.3,0,0.5,0.2,0.5,0.5v86.4    C-6549-1332.6-6549.2-1332.3-6549.5-1332.3z M-6693.4-1333.3h143.3v-85.4h-143.3V-1333.3z"/>
	</g>
	<g>
		<rect x="-6689.3" y="-1414.6" fill="#DBF2FF" width="135.1" height="77.2"/>
		<path d="M-6554.1-1336.9h-135.1c-0.3,0-0.5-0.2-0.5-0.5v-77.2c0-0.3,0.2-0.5,0.5-0.5h135.1c0.3,0,0.5,0.2,0.5,0.5v77.2    C-6553.6-1337.2-6553.9-1336.9-6554.1-1336.9z M-6688.8-1337.9h134.1v-76.2h-134.1V-1337.9z"/>
	</g>
	<g>
		<path d="M-6549.5-1315.1h-144.3c-0.3,0-0.5-0.2-0.5-0.5v-17.3c0-0.3,0.2-0.5,0.5-0.5h144.3c0.3,0,0.5,0.2,0.5,0.5v17.3    C-6549-1315.3-6549.2-1315.1-6549.5-1315.1z M-6693.4-1316.1h143.3v-16.3h-143.3V-1316.1z"/>
	</g>
	<g>
		<rect x="-6681" y="-1408.1" fill="#FFD1C8" width="15.8" height="15.8"/>
		<path d="M-6665.2-1391.8h-15.8c-0.3,0-0.5-0.2-0.5-0.5v-15.8c0-0.3,0.2-0.5,0.5-0.5h15.8c0.3,0,0.5,0.2,0.5,0.5v15.8    C-6664.7-1392-6664.9-1391.8-6665.2-1391.8z M-6680.5-1392.8h14.8v-14.8h-14.8V-1392.8z"/>
	</g>
	<g>
		<rect x="-6625.7" y="-1408.1" fill="#FFEAB3" width="38" height="38"/>
		<path d="M-6587.7-1369.6h-38c-0.3,0-0.5-0.2-0.5-0.5v-38c0-0.3,0.2-0.5,0.5-0.5h38c0.3,0,0.5,0.2,0.5,0.5v38    C-6587.2-1369.8-6587.4-1369.6-6587.7-1369.6z M-6625.2-1370.6h37v-37h-37V-1370.6z"/>
	</g>
	<g>
		<rect x="-6599.7" y="-1382.1" fill="#FFD1C8" width="38" height="38"/>
		<path d="M-6561.7-1343.5h-38c-0.3,0-0.5-0.2-0.5-0.5v-38c0-0.3,0.2-0.5,0.5-0.5h38c0.3,0,0.5,0.2,0.5,0.5v38    C-6561.2-1343.8-6561.4-1343.5-6561.7-1343.5z M-6599.2-1344.5h37v-37h-37V-1344.5z"/>
	</g>
	<g>
		<rect x="-6681" y="-1385.9" fill="#E6E7E8" width="15.8" height="15.8"/>
		<path d="M-6665.2-1369.6h-15.8c-0.3,0-0.5-0.2-0.5-0.5v-15.8c0-0.3,0.2-0.5,0.5-0.5h15.8c0.3,0,0.5,0.2,0.5,0.5v15.8    C-6664.7-1369.8-6664.9-1369.6-6665.2-1369.6z M-6680.5-1370.6h14.8v-14.8h-14.8V-1370.6z"/>
	</g>
	<g>
		<rect x="-6681" y="-1363.7" fill="#FFEAB3" width="15.8" height="15.8"/>
		<path d="M-6665.2-1347.4h-15.8c-0.3,0-0.5-0.2-0.5-0.5v-15.8c0-0.3,0.2-0.5,0.5-0.5h15.8c0.3,0,0.5,0.2,0.5,0.5v15.8    C-6664.7-1347.6-6664.9-1347.4-6665.2-1347.4z M-6680.5-1348.4h14.8v-14.8h-14.8V-1348.4z"/>
	</g>
	<g>
		<g>
			<polygon fill="#FFFFFF" points="-6576.2,-1349.1 -6582.8,-1365.9 -6566.1,-1359.2 -6573.7,-1356.7    "/>
			<path d="M-6576.2-1348.6c-0.2,0-0.4-0.1-0.5-0.3l-6.6-16.7c-0.1-0.2,0-0.4,0.1-0.5c0.1-0.1,0.4-0.2,0.5-0.1l16.7,6.6     c0.2,0.1,0.3,0.3,0.3,0.5c0,0.2-0.1,0.4-0.3,0.5l-7.4,2.4l-2.4,7.4C-6575.8-1348.8-6576-1348.6-6576.2-1348.6     C-6576.2-1348.6-6576.2-1348.6-6576.2-1348.6z M-6581.9-1365l5.7,14.4l2.1-6.3c0-0.2,0.2-0.3,0.3-0.3l6.3-2.1L-6581.9-1365z"/>
		</g>
		<g>
			<path d="M-6564.5-1347c-0.1,0-0.3,0-0.4-0.1l-9.2-9.2c-0.2-0.2-0.2-0.5,0-0.7c0.2-0.2,0.5-0.2,0.7,0l9.2,9.2     c0.2,0.2,0.2,0.5,0,0.7C-6564.2-1347.1-6564.4-1347-6564.5-1347z"/>
		</g>
	</g>
	<g>
		<rect x="-6638.9" y="-1315.6" fill="#E6E7E8" width="34.3" height="15.5"/>
		<path d="M-6604.5-1299.6h-34.3c-0.3,0-0.5-0.2-0.5-0.5v-15.5c0-0.3,0.2-0.5,0.5-0.5h34.3c0.3,0,0.5,0.2,0.5,0.5v15.5    C-6604-1299.8-6604.2-1299.6-6604.5-1299.6z M-6638.4-1300.6h33.3v-14.5h-33.3V-1300.6z"/>
	</g>
	<g>
		<path d="M-6599.4-1299.6h-44.6c-0.3,0-0.5-0.2-0.5-0.5s0.2-0.5,0.5-0.5h44.6c0.3,0,0.5,0.2,0.5,0.5S-6599.1-1299.6-6599.4-1299.6z    "/>
	</g>
	<g>
		<g>
			<rect x="-6759.6" y="-1328" fill="#E6E7E8" width="51.2" height="12.5"/>
			<path d="M-6708.4-1315.1h-51.2c-0.3,0-0.5-0.2-0.5-0.5v-12.5c0-0.3,0.2-0.5,0.5-0.5h51.2c0.3,0,0.5,0.2,0.5,0.5v12.5     C-6707.9-1315.3-6708.1-1315.1-6708.4-1315.1z M-6759.1-1316.1h50.2v-11.5h-50.2V-1316.1z"/>
		</g>
		<g>
			<polygon fill="#D2FFCF" points="-6741.1,-1368.2 -6721,-1356.6 -6741.1,-1345    "/>
			<path d="M-6741.1-1344.5c-0.1,0-0.2,0-0.3-0.1c-0.2-0.1-0.3-0.3-0.3-0.4v-23.2c0-0.2,0.1-0.3,0.3-0.4c0.2-0.1,0.3-0.1,0.5,0     l20.1,11.6c0.2,0.1,0.3,0.3,0.3,0.4s-0.1,0.3-0.3,0.4l-20.1,11.6C-6740.9-1344.5-6741-1344.5-6741.1-1344.5z M-6740.6-1367.3     v21.5l18.6-10.7L-6740.6-1367.3z"/>
		</g>
		<g>
			<path d="M-6734-1338c-10.2,0-18.6-8.3-18.6-18.6s8.3-18.6,18.6-18.6s18.6,8.3,18.6,18.6S-6723.7-1338-6734-1338z M-6734-1374.1     c-9.7,0-17.6,7.9-17.6,17.6s7.9,17.6,17.6,17.6s17.6-7.9,17.6-17.6S-6724.3-1374.1-6734-1374.1z"/>
		</g>
		<g>
			<path d="M-6729.2-1321.3h-9.4c-0.3,0-0.5-0.2-0.5-0.5s0.2-0.5,0.5-0.5h9.4c0.3,0,0.5,0.2,0.5,0.5S-6729-1321.3-6729.2-1321.3z"/>
		</g>
		<g>
			<rect x="-6759.6" y="-1393.6" fill="#E6E7E8" width="51.2" height="8.5"/>
			<path d="M-6708.4-1384.6h-51.2c-0.3,0-0.5-0.2-0.5-0.5v-8.5c0-0.3,0.2-0.5,0.5-0.5h51.2c0.3,0,0.5,0.2,0.5,0.5v8.5     C-6707.9-1384.8-6708.1-1384.6-6708.4-1384.6z M-6759.1-1385.6h50.2v-7.5h-50.2V-1385.6z"/>
		</g>
		<g>
			<path d="M-6708.4-1327.5h-51.2c-0.3,0-0.5-0.2-0.5-0.5v-57.1c0-0.3,0.2-0.5,0.5-0.5h51.2c0.3,0,0.5,0.2,0.5,0.5v57.1     C-6707.9-1327.8-6708.1-1327.5-6708.4-1327.5z M-6759.1-1328.5h50.2v-56.1h-50.2V-1328.5z"/>
		</g>
		<g>
			<path d="M-6741.1-1386.4c-0.3,0-0.5-0.2-0.5-0.5v-5c0-0.3,0.2-0.5,0.5-0.5s0.5,0.2,0.5,0.5v5     C-6740.6-1386.6-6740.8-1386.4-6741.1-1386.4z"/>
		</g>
		<g>
			<path d="M-6734-1386.4c-0.3,0-0.5-0.2-0.5-0.5v-5c0-0.3,0.2-0.5,0.5-0.5s0.5,0.2,0.5,0.5v5     C-6733.5-1386.6-6733.7-1386.4-6734-1386.4z"/>
		</g>
		<g>
			<path d="M-6726.8-1386.4c-0.3,0-0.5-0.2-0.5-0.5v-5c0-0.3,0.2-0.5,0.5-0.5s0.5,0.2,0.5,0.5v5     C-6726.3-1386.6-6726.5-1386.4-6726.8-1386.4z"/>
		</g>
	</g>
	<g>
		<path d="M-6605.6-1362.6h-50.5c-0.3,0-0.5-0.2-0.5-0.5s0.2-0.5,0.5-0.5h50.5c0.3,0,0.5,0.2,0.5,0.5S-6605.3-1362.6-6605.6-1362.6z    "/>
	</g>
	<g>
		<path d="M-6605.6-1355h-50.5c-0.3,0-0.5-0.2-0.5-0.5s0.2-0.5,0.5-0.5h50.5c0.3,0,0.5,0.2,0.5,0.5S-6605.3-1355-6605.6-1355z"/>
	</g>
	<g>
		<path d="M-6629.2-1347.4h-26.8c-0.3,0-0.5-0.2-0.5-0.5s0.2-0.5,0.5-0.5h26.8c0.3,0,0.5,0.2,0.5,0.5S-6629-1347.4-6629.2-1347.4z"/>
	</g>
	<g>
		<path d="M-6637.9-1369.6h-18.2c-0.3,0-0.5-0.2-0.5-0.5s0.2-0.5,0.5-0.5h18.2c0.3,0,0.5,0.2,0.5,0.5S-6637.6-1369.6-6637.9-1369.6z    "/>
	</g>
	<g>
		<path d="M-6637.9-1377.5h-18.2c-0.3,0-0.5-0.2-0.5-0.5s0.2-0.5,0.5-0.5h18.2c0.3,0,0.5,0.2,0.5,0.5S-6637.6-1377.5-6637.9-1377.5z    "/>
	</g>
	<g>
		<path d="M-6637.9-1407.6h-18.2c-0.3,0-0.5-0.2-0.5-0.5s0.2-0.5,0.5-0.5h18.2c0.3,0,0.5,0.2,0.5,0.5S-6637.6-1407.6-6637.9-1407.6z    "/>
	</g>
	<g>
		<path d="M-6645.3-1399.7h-10.7c-0.3,0-0.5-0.2-0.5-0.5s0.2-0.5,0.5-0.5h10.7c0.3,0,0.5,0.2,0.5,0.5S-6645.1-1399.7-6645.3-1399.7z    "/>
	</g>
	<g>
		<path d="M-6636.8-1399.7h-4.1c-0.3,0-0.5-0.2-0.5-0.5s0.2-0.5,0.5-0.5h4.1c0.3,0,0.5,0.2,0.5,0.5S-6636.5-1399.7-6636.8-1399.7z"/>
	</g>
	<g>
		<path d="M-6625.7-1385.4h-30.3c-0.3,0-0.5-0.2-0.5-0.5s0.2-0.5,0.5-0.5h30.3c0.3,0,0.5,0.2,0.5,0.5S-6625.5-1385.4-6625.7-1385.4z    "/>
	</g>
	<g>
		<g>
			<g>
				<path d="M-6722.6-1271.6h-25.5c-6.9,0-12.5-5.6-12.5-12.5v-4c0-6.9,5.6-12.5,12.5-12.5h25.5c6.9,0,12.5,5.6,12.5,12.5v4      C-6710.1-1277.2-6715.8-1271.6-6722.6-1271.6z M-6748.1-1299.6c-6.3,0-11.5,5.2-11.5,11.5v4c0,6.3,5.2,11.5,11.5,11.5h25.5      c6.3,0,11.5-5.2,11.5-11.5v-4c0-6.3-5.2-11.5-11.5-11.5H-6748.1z"/>
			</g>
			<g>
				<path fill="#DBF2FF" d="M-6728.4-1283.8c-1.3,0-2.3-1-2.3-2.3l0,0c0-1.3,1-2.3,2.3-2.3h10.1c1.3,0,2.3,1,2.3,2.3l0,0      c0,1.3-1,2.3-2.3,2.3H-6728.4z"/>
				<path d="M-6718.4-1283.3h-10.1c-1.5,0-2.8-1.3-2.8-2.8c0-1.5,1.3-2.8,2.8-2.8h10.1c1.5,0,2.8,1.3,2.8,2.8      C-6715.6-1284.6-6716.8-1283.3-6718.4-1283.3z M-6728.4-1287.9c-1,0-1.8,0.8-1.8,1.8c0,1,0.8,1.8,1.8,1.8h10.1      c1,0,1.8-0.8,1.8-1.8c0-1-0.8-1.8-1.8-1.8H-6728.4z"/>
			</g>
			<g>
				<path d="M-6733.2-1285.6c-0.3,0-0.5-0.2-0.5-0.5c0-2.7,2-4.8,4.6-5.1v-8.9c0-0.3,0.2-0.5,0.5-0.5s0.5,0.2,0.5,0.5v9.4      c0,0.3-0.2,0.5-0.5,0.5c-2.3,0-4.1,1.9-4.1,4.1C-6732.7-1285.8-6733-1285.6-6733.2-1285.6z"/>
			</g>
			<g>
				<path d="M-6728.6-1271.6c-0.3,0-0.5-0.2-0.5-0.5v-4.7c0-0.3,0.2-0.5,0.5-0.5s0.5,0.2,0.5,0.5v4.7      C-6728.1-1271.8-6728.3-1271.6-6728.6-1271.6z"/>
			</g>
		</g>
		<g>
			<path d="M-6705.8-1285.6h-4.8c-0.3,0-0.5-0.2-0.5-0.5s0.2-0.5,0.5-0.5h4.8c0.3,0,0.5,0.2,0.5,0.5S-6705.5-1285.6-6705.8-1285.6z"/>
		</g>
		<g>
			<path d="M-6698.3-1285.6h-4.7c-0.3,0-0.5-0.2-0.5-0.5s0.2-0.5,0.5-0.5h4.7c0.3,0,0.5,0.2,0.5,0.5S-6698-1285.6-6698.3-1285.6z"/>
		</g>
	</g>
	<g>
		<g>
			<polygon fill="#FFEAB3" points="-6526,-1365 -6519.5,-1365 -6519.5,-1362.3 -6507.5,-1362.3 -6495.7,-1362.3 -6495.7,-1365      -6489.2,-1365 -6489.2,-1362.3 -6489.1,-1362.3 -6479,-1368.6 -6479,-1385.2 -6536,-1385.2 -6536,-1368.6 -6526,-1362.4    "/>
			<path d="M-6489.1-1361.8L-6489.1-1361.8c-0.4,0-0.6-0.2-0.6-0.5v-2.2h-5.5v2.2c0,0.3-0.2,0.5-0.5,0.5h-23.8     c-0.3,0-0.5-0.2-0.5-0.5v-2.2h-5.5v2.1c0,0.2-0.1,0.3-0.3,0.4c-0.2,0.1-0.4,0.1-0.5,0l-10-6.2c-0.1-0.1-0.2-0.3-0.2-0.4v-16.7     c0-0.3,0.2-0.5,0.5-0.5h57c0.3,0,0.5,0.2,0.5,0.5v16.7c0,0.2-0.1,0.3-0.2,0.4l-10.1,6.3     C-6488.9-1361.8-6489-1361.8-6489.1-1361.8z M-6519-1362.8h22.8v-2.2c0-0.3,0.2-0.5,0.5-0.5h6.5c0.3,0,0.5,0.2,0.5,0.5v1.8     l9.2-5.7v-15.9h-56v15.9l9,5.6v-1.7c0-0.3,0.2-0.5,0.5-0.5h6.5c0.3,0,0.5,0.2,0.5,0.5V-1362.8z"/>
		</g>
		<g>
			<polygon fill="#FFEAB3" points="-6489.1,-1362.3 -6489.2,-1362.3 -6489.2,-1357.2 -6495.7,-1357.2 -6495.7,-1362.3      -6507.5,-1362.3 -6519.5,-1362.3 -6519.5,-1357.2 -6526,-1357.2 -6526,-1362.4 -6536,-1368.6 -6536,-1344.7 -6479,-1344.7      -6479,-1368.6    "/>
			<path d="M-6479-1344.2h-57c-0.3,0-0.5-0.2-0.5-0.5v-23.8c0-0.2,0.1-0.3,0.3-0.4c0.2-0.1,0.4-0.1,0.5,0l10,6.2     c0.1,0.1,0.2,0.3,0.2,0.4v4.6h5.5v-4.6c0-0.3,0.2-0.5,0.5-0.5h23.8c0.3,0,0.5,0.2,0.5,0.5v4.6h5.5v-4.6c0-0.3,0.2-0.5,0.4-0.5     l10-6.2c0.2-0.1,0.3-0.1,0.5,0c0.2,0.1,0.3,0.3,0.3,0.4v23.8C-6478.5-1344.5-6478.7-1344.2-6479-1344.2z M-6535.5-1345.2h56     v-22.4l-9.2,5.7v4.7c0,0.3-0.2,0.5-0.5,0.5h-6.5c-0.3,0-0.5-0.2-0.5-0.5v-4.6h-22.8v4.6c0,0.3-0.2,0.5-0.5,0.5h-6.5     c-0.3,0-0.5-0.2-0.5-0.5v-4.9l-9-5.6V-1345.2z"/>
		</g>
		<g>
			<path d="M-6519.5-1356.7h-6.5c-0.3,0-0.5-0.2-0.5-0.5v-7.8c0-0.3,0.2-0.5,0.5-0.5h6.5c0.3,0,0.5,0.2,0.5,0.5v7.8     C-6519-1357-6519.2-1356.7-6519.5-1356.7z M-6525.5-1357.7h5.5v-6.8h-5.5V-1357.7z"/>
		</g>
		<g>
			<path d="M-6489.2-1356.7h-6.5c-0.3,0-0.5-0.2-0.5-0.5v-7.8c0-0.3,0.2-0.5,0.5-0.5h6.5c0.3,0,0.5,0.2,0.5,0.5v7.8     C-6488.7-1357-6488.9-1356.7-6489.2-1356.7z M-6495.2-1357.7h5.5v-6.8h-5.5V-1357.7z"/>
		</g>
		<g>
			<path d="M-6494.6-1384.7c-0.3,0-0.5-0.2-0.5-0.5v-4.8c0-2.7-2.2-4.9-4.9-4.9h-15.1c-2.7,0-4.9,2.2-4.9,4.9v4.8     c0,0.3-0.2,0.5-0.5,0.5s-0.5-0.2-0.5-0.5v-4.8c0-3.2,2.6-5.9,5.9-5.9h15.1c3.2,0,5.9,2.6,5.9,5.9v4.8     C-6494.1-1385-6494.3-1384.7-6494.6-1384.7z"/>
		</g>
	</g>
	<g>
		<rect x="-6535.4" y="-1328.8" fill="#DBF2FF" width="52.4" height="67.6"/>
		<path d="M-6483.1-1260.7h-52.4c-0.3,0-0.5-0.2-0.5-0.5v-67.6c0-0.3,0.2-0.5,0.5-0.5h52.4c0.3,0,0.5,0.2,0.5,0.5v67.6    C-6482.6-1260.9-6482.8-1260.7-6483.1-1260.7z M-6534.9-1261.7h51.4v-66.6h-51.4V-1261.7z"/>
	</g>
	<g>
		<rect x="-6528.3" y="-1321.8" fill="#FFD1C8" width="9.8" height="9.8"/>
		<path d="M-6518.4-1311.5h-9.8c-0.3,0-0.5-0.2-0.5-0.5v-9.8c0-0.3,0.2-0.5,0.5-0.5h9.8c0.3,0,0.5,0.2,0.5,0.5v9.8    C-6517.9-1311.7-6518.1-1311.5-6518.4-1311.5z M-6527.8-1312.5h8.8v-8.8h-8.8V-1312.5z"/>
	</g>
	<g>
		<rect x="-6528.3" y="-1304" fill="#FFD1C8" width="9.8" height="9.8"/>
		<path d="M-6518.4-1293.6h-9.8c-0.3,0-0.5-0.2-0.5-0.5v-9.8c0-0.3,0.2-0.5,0.5-0.5h9.8c0.3,0,0.5,0.2,0.5,0.5v9.8    C-6517.9-1293.8-6518.1-1293.6-6518.4-1293.6z M-6527.8-1294.6h8.8v-8.8h-8.8V-1294.6z"/>
	</g>
	<g>
		<path d="M-6518.4-1275.7h-9.8c-0.3,0-0.5-0.2-0.5-0.5v-9.8c0-0.3,0.2-0.5,0.5-0.5h9.8c0.3,0,0.5,0.2,0.5,0.5v9.8    C-6517.9-1276-6518.1-1275.7-6518.4-1275.7z M-6527.8-1276.7h8.8v-8.8h-8.8V-1276.7z"/>
	</g>
	<g>
		<path d="M-6490.6-1321.3h-22.7c-0.3,0-0.5-0.2-0.5-0.5s0.2-0.5,0.5-0.5h22.7c0.3,0,0.5,0.2,0.5,0.5S-6490.3-1321.3-6490.6-1321.3z    "/>
	</g>
	<g>
		<path d="M-6490.6-1297.4h-22.7c-0.3,0-0.5-0.2-0.5-0.5s0.2-0.5,0.5-0.5h22.7c0.3,0,0.5,0.2,0.5,0.5S-6490.3-1297.4-6490.6-1297.4z    "/>
	</g>
	<g>
		<path d="M-6499.1-1280.2h-14.2c-0.3,0-0.5-0.2-0.5-0.5s0.2-0.5,0.5-0.5h14.2c0.3,0,0.5,0.2,0.5,0.5S-6498.8-1280.2-6499.1-1280.2z    "/>
	</g>
	<g>
		<path d="M-6484.5-1284.9h-28.8c-0.3,0-0.5-0.2-0.5-0.5s0.2-0.5,0.5-0.5h28.8c0.3,0,0.5,0.2,0.5,0.5S-6484.2-1284.9-6484.5-1284.9z    "/>
	</g>
	<g>
		<path d="M-6499.1-1275.7h-14.2c-0.3,0-0.5-0.2-0.5-0.5s0.2-0.5,0.5-0.5h14.2c0.3,0,0.5,0.2,0.5,0.5S-6498.8-1275.7-6499.1-1275.7z    "/>
	</g>
	<g>
		<path d="M-6500.1-1311.5h-13.2c-0.3,0-0.5-0.2-0.5-0.5s0.2-0.5,0.5-0.5h13.2c0.3,0,0.5,0.2,0.5,0.5S-6499.8-1311.5-6500.1-1311.5z    "/>
	</g>
	<g>
		<path fill="#E6E7E8" d="M-6539.1-1304c-11.1,0-20.4,7.8-22.7,18.2h-37.6c-2.8,0-5.1,2.3-5.1,5.1c0,2.8,2.3,5.1,5.1,5.1h37.6    c2.3,10.4,11.6,18.2,22.7,18.2c12.9,0,23.3-10.4,23.3-23.3S-6526.3-1304-6539.1-1304z M-6539.1-1263.5c-9.5,0-17.2-7.7-17.2-17.2    c0-9.5,7.7-17.2,17.2-17.2c9.5,0,17.2,7.7,17.2,17.2C-6521.9-1271.2-6529.6-1263.5-6539.1-1263.5z"/>
		<path d="M-6539.1-1256.9c-10.9,0-20.6-7.6-23.1-18.2h-37.2c-3.1,0-5.6-2.5-5.6-5.6c0-3.1,2.5-5.6,5.6-5.6h37.2    c2.5-10.6,12.2-18.2,23.1-18.2c13.1,0,23.8,10.7,23.8,23.8C-6515.4-1267.6-6526-1256.9-6539.1-1256.9z M-6599.4-1285.3    c-2.5,0-4.6,2.1-4.6,4.6c0,2.5,2.1,4.6,4.6,4.6h37.6c0.2,0,0.4,0.2,0.5,0.4c2.3,10.3,11.6,17.8,22.2,17.8    c12.6,0,22.8-10.2,22.8-22.8c0-12.6-10.2-22.8-22.8-22.8c-10.6,0-19.9,7.5-22.2,17.8c-0.1,0.2-0.3,0.4-0.5,0.4H-6599.4z     M-6539.1-1263c-9.8,0-17.7-8-17.7-17.7c0-9.8,8-17.7,17.7-17.7l0,0c9.8,0,17.7,8,17.7,17.7S-6529.4-1263-6539.1-1263z     M-6539.1-1297.4c-9.2,0-16.7,7.5-16.7,16.7c0,9.2,7.5,16.7,16.7,16.7s16.7-7.5,16.7-16.7S-6529.9-1297.4-6539.1-1297.4    L-6539.1-1297.4z"/>
	</g>
	<g>
		<circle fill="#FFFFFF" cx="-6539.1" cy="-1280.7" r="17.2"/>
		<path d="M-6539.1-1263c-9.8,0-17.7-8-17.7-17.7c0-9.8,8-17.7,17.7-17.7c9.8,0,17.7,8,17.7,17.7S-6529.4-1263-6539.1-1263z     M-6539.1-1297.4c-9.2,0-16.7,7.5-16.7,16.7c0,9.2,7.5,16.7,16.7,16.7s16.7-7.5,16.7-16.7S-6529.9-1297.4-6539.1-1297.4z"/>
	</g>
	<g>
		<path d="M-6710.5-1452.9c1.7-2.3,4.2-3.4,7.4-3.4c3.2,0,5.7,1.1,7.4,3.4c1.5,2,2.3,4.7,2.3,8c0,3.3-0.8,6-2.3,8    c-1.7,2.2-4.2,3.3-7.4,3.3s-5.7-1.1-7.4-3.3c-1.5-2-2.3-4.7-2.3-8C-6712.7-1448.2-6712-1450.8-6710.5-1452.9z M-6709.7-1437.6    c1.5,2.1,3.7,3.2,6.6,3.2c2.9,0,5.1-1.1,6.6-3.2c1.3-1.8,2-4.3,2-7.3c0-3-0.7-5.4-2-7.3c-1.5-2.1-3.7-3.2-6.6-3.2    c-2.9,0-5.1,1.1-6.6,3.2c-1.3,1.9-2,4.3-2,7.3C-6711.7-1441.9-6711-1439.4-6709.7-1437.6z"/>
		<path d="M-6689.4-1455.8h12.7v1h-11.7v9h9.3v0.9h-9.3v10.9h-1V-1455.8z"/>
		<path d="M-6673.5-1455.8h12.7v1h-11.7v9h9.3v0.9h-9.3v10.9h-1V-1455.8z"/>
		<path d="M-6657.5-1455.8h1v21.8h-1V-1455.8z"/>
		<path d="M-6637.4-1435.5c-1.5,1.3-3.5,2-5.9,2c-3.1,0-5.5-1.1-7-3.4c-1.4-2-2-4.6-2-7.8s0.7-5.9,2.1-8c1.6-2.3,4-3.5,7.2-3.5    c2.2,0,4,0.6,5.5,1.8c1.1,0.8,1.8,1.9,2.3,3.1l-0.9,0.5c-1-3-3.3-4.5-7-4.5c-2.7,0-4.8,1.1-6.2,3.4c-1.2,1.9-1.8,4.3-1.8,7.2    c0,2.9,0.6,5.3,1.7,7.1c1.4,2.2,3.4,3.3,6.1,3.3c2.2,0,3.9-0.6,5.3-1.8c1.1-0.9,1.7-2.1,2.1-3.5l0.9,0.5    C-6635.5-1437.8-6636.3-1436.5-6637.4-1435.5z"/>
		<path d="M-6630.8-1455.8h13.3v1h-12.3v9h9.7v0.9h-9.7v9.9h12.6v1h-13.6V-1455.8z"/>
		<path d="M-6605.5-1455.8h1v21.8h-1V-1455.8z"/>
		<path d="M-6585.4-1435.5c-1.5,1.3-3.5,2-5.9,2c-3.1,0-5.5-1.1-7-3.4c-1.4-2-2-4.6-2-7.8s0.7-5.9,2.1-8c1.6-2.3,4-3.5,7.2-3.5    c2.2,0,4,0.6,5.5,1.8c1.1,0.8,1.8,1.9,2.3,3.1l-0.9,0.5c-1-3-3.3-4.5-7-4.5c-2.7,0-4.8,1.1-6.2,3.4c-1.2,1.9-1.8,4.3-1.8,7.2    c0,2.9,0.6,5.3,1.7,7.1c1.4,2.2,3.4,3.3,6.1,3.3c2.2,0,3.9-0.6,5.3-1.8c1.1-0.9,1.7-2.1,2.1-3.5l0.9,0.5    C-6583.6-1437.8-6584.3-1436.5-6585.4-1435.5z"/>
		<path d="M-6577.4-1452.9c1.7-2.3,4.2-3.4,7.4-3.4c3.2,0,5.7,1.1,7.4,3.4c1.5,2,2.3,4.7,2.3,8c0,3.3-0.8,6-2.3,8    c-1.7,2.2-4.2,3.3-7.4,3.3s-5.7-1.1-7.4-3.3c-1.5-2-2.3-4.7-2.3-8C-6579.7-1448.2-6578.9-1450.8-6577.4-1452.9z M-6576.7-1437.6    c1.5,2.1,3.7,3.2,6.6,3.2c2.9,0,5.1-1.1,6.6-3.2c1.3-1.8,2-4.3,2-7.3c0-3-0.7-5.4-2-7.3c-1.5-2.1-3.7-3.2-6.6-3.2    s-5.1,1.1-6.6,3.2c-1.3,1.9-2,4.3-2,7.3C-6578.6-1441.9-6578-1439.4-6576.7-1437.6z"/>
		<path d="M-6556.3-1455.8h1l13.7,20.1v-20.1h1v21.8h-1l-13.7-20v20h-1V-1455.8z"/>
		<path d="M-6535.8-1440.6c0.1,1.9,0.7,3.4,1.9,4.5c1.1,1.1,2.7,1.7,4.6,1.7c1.7,0,3.1-0.4,4.2-1.3c1.3-0.9,1.9-2.2,1.9-3.8    c0-1.7-0.7-2.9-2-3.8c-0.7-0.4-2.1-1-4.4-1.6c0,0-0.2-0.1-0.4-0.1c-2.5-0.7-4.1-1.4-4.8-2c-1-0.9-1.5-2.1-1.5-3.6    c0-1.9,0.6-3.3,1.9-4.3c1.2-0.9,2.7-1.4,4.6-1.4c2,0,3.7,0.6,4.9,1.7c1.3,1.1,2,2.7,2.1,4.7h-1c0-1.8-0.6-3.1-1.8-4.1    c-1.1-0.9-2.5-1.4-4.3-1.4c-1.6,0-2.9,0.4-3.9,1.2c-1.1,0.8-1.6,2.1-1.6,3.6c0,1.1,0.4,2.1,1.3,2.9c0.7,0.6,2.1,1.2,4.3,1.8    c0,0,0.1,0,0.2,0c0.1,0,0.2,0,0.3,0.1c2.3,0.6,3.9,1.2,4.8,1.8c1.5,1,2.3,2.4,2.3,4.2c0,2-0.7,3.6-2.2,4.7c-1.3,1-3,1.5-5.1,1.5    c-2.2,0-4-0.6-5.2-1.9c-1.3-1.2-2-3-2.2-5.2H-6535.8z"/>
	</g>
	<g>
		<path d="M-6491.6-1444.2h-18.7c-0.3,0-0.5-0.2-0.5-0.5s0.2-0.5,0.5-0.5h18.7c0.3,0,0.5,0.2,0.5,0.5S-6491.3-1444.2-6491.6-1444.2z    "/>
	</g>
	<g>
		<path d="M-6725.1-1444.2h-18.7c-0.3,0-0.5-0.2-0.5-0.5s0.2-0.5,0.5-0.5h18.7c0.3,0,0.5,0.2,0.5,0.5S-6724.8-1444.2-6725.1-1444.2z    "/>
	</g>
	<g>
		<path d="M-6705.8-1418.7h-28.6c-0.3,0-0.5-0.2-0.5-0.5s0.2-0.5,0.5-0.5h28.6c0.3,0,0.5,0.2,0.5,0.5S-6705.5-1418.7-6705.8-1418.7z    "/>
	</g>
	<g>
		<path d="M-6723.4-1409.5h-27.6c-0.3,0-0.5-0.2-0.5-0.5s0.2-0.5,0.5-0.5h27.6c0.3,0,0.5,0.2,0.5,0.5S-6723.1-1409.5-6723.4-1409.5z    "/>
	</g>
	<g>
		<path d="M-6735.4-1427.8h-11.4c-0.3,0-0.5-0.2-0.5-0.5s0.2-0.5,0.5-0.5h11.4c0.3,0,0.5,0.2,0.5,0.5S-6735.1-1427.8-6735.4-1427.8z    "/>
	</g>
	<g>
		<path d="M-6519.5-1421h-18c-0.3,0-0.5-0.2-0.5-0.5s0.2-0.5,0.5-0.5h18c0.3,0,0.5,0.2,0.5,0.5S-6519.2-1421-6519.5-1421z"/>
	</g>
	<g>
		<path d="M-6501.9-1428.8h-4.7c-0.3,0-0.5-0.2-0.5-0.5s0.2-0.5,0.5-0.5h4.7c0.3,0,0.5,0.2,0.5,0.5S-6501.7-1428.8-6501.9-1428.8z"/>
	</g>
	<g>
		<path d="M-6501.9-1406h-34c-0.3,0-0.5-0.2-0.5-0.5s0.2-0.5,0.5-0.5h34c0.3,0,0.5,0.2,0.5,0.5S-6501.7-1406-6501.9-1406z"/>
	</g>
	<g>
		<g>
			<path fill="#FFD1C8" d="M-6627.6-1305.3h-48.7c-2.2,0-4,1.8-4,4v33.6c0,2.2,1.8,4,4,4h32.6l12.1,12.1v-12.1h4c2.2,0,4-1.8,4-4     v-33.6C-6623.6-1303.5-6625.4-1305.3-6627.6-1305.3z"/>
			<path d="M-6631.5-1251.1c-0.1,0-0.3-0.1-0.4-0.1l-12-12h-32.4c-2.5,0-4.5-2-4.5-4.5v-33.6c0-2.5,2-4.5,4.5-4.5h48.7     c2.5,0,4.5,2,4.5,4.5v33.6c0,2.5-2,4.5-4.5,4.5h-3.5v11.6c0,0.2-0.1,0.4-0.3,0.5C-6631.4-1251.1-6631.5-1251.1-6631.5-1251.1z      M-6676.3-1304.8c-1.9,0-3.5,1.6-3.5,3.5v33.6c0,1.9,1.6,3.5,3.5,3.5h32.6c0.1,0,0.3,0.1,0.4,0.1l11.3,11.3v-10.9     c0-0.3,0.2-0.5,0.5-0.5h4c1.9,0,3.5-1.6,3.5-3.5v-33.6c0-1.9-1.6-3.5-3.5-3.5H-6676.3z"/>
		</g>
		<g>
			<line fill="#FFFFFF" x1="-6673.7" y1="-1295.1" x2="-6664.2" y2="-1295.1"/>
			<path d="M-6664.2-1294.6h-9.5c-0.3,0-0.5-0.2-0.5-0.5s0.2-0.5,0.5-0.5h9.5c0.3,0,0.5,0.2,0.5,0.5S-6663.9-1294.6-6664.2-1294.6z"/>
		</g>
		<g>
			<line fill="#FFFFFF" x1="-6654.8" y1="-1295.1" x2="-6630.1" y2="-1295.1"/>
			<path d="M-6630.1-1294.6h-24.7c-0.3,0-0.5-0.2-0.5-0.5s0.2-0.5,0.5-0.5h24.7c0.3,0,0.5,0.2,0.5,0.5S-6629.8-1294.6-6630.1-1294.6     z"/>
		</g>
		<g>
			<line fill="#FFFFFF" x1="-6673.7" y1="-1287.9" x2="-6659.8" y2="-1287.9"/>
			<path d="M-6659.8-1287.4h-14c-0.3,0-0.5-0.2-0.5-0.5s0.2-0.5,0.5-0.5h14c0.3,0,0.5,0.2,0.5,0.5S-6659.5-1287.4-6659.8-1287.4z"/>
		</g>
		<g>
			<line fill="#FFFFFF" x1="-6654.5" y1="-1287.9" x2="-6648.8" y2="-1287.9"/>
			<path d="M-6648.8-1287.4h-5.8c-0.3,0-0.5-0.2-0.5-0.5s0.2-0.5,0.5-0.5h5.8c0.3,0,0.5,0.2,0.5,0.5S-6648.5-1287.4-6648.8-1287.4z"/>
		</g>
		<g>
			<line fill="#FFFFFF" x1="-6643.4" y1="-1287.9" x2="-6630.1" y2="-1287.9"/>
			<path d="M-6630.1-1287.4h-13.3c-0.3,0-0.5-0.2-0.5-0.5s0.2-0.5,0.5-0.5h13.3c0.3,0,0.5,0.2,0.5,0.5S-6629.8-1287.4-6630.1-1287.4     z"/>
		</g>
		<g>
			<line fill="#FFFFFF" x1="-6651.9" y1="-1280.8" x2="-6630.1" y2="-1280.8"/>
			<path d="M-6630.1-1280.3h-21.8c-0.3,0-0.5-0.2-0.5-0.5s0.2-0.5,0.5-0.5h21.8c0.3,0,0.5,0.2,0.5,0.5S-6629.8-1280.3-6630.1-1280.3     z"/>
		</g>
		<g>
			<line fill="#FFFFFF" x1="-6673.7" y1="-1280.8" x2="-6668" y2="-1280.8"/>
			<path d="M-6668-1280.3h-5.8c-0.3,0-0.5-0.2-0.5-0.5s0.2-0.5,0.5-0.5h5.8c0.3,0,0.5,0.2,0.5,0.5S-6667.7-1280.3-6668-1280.3z"/>
		</g>
		<g>
			<line fill="#FFFFFF" x1="-6673.7" y1="-1273.7" x2="-6642.4" y2="-1273.7"/>
			<path d="M-6642.4-1273.2h-31.3c-0.3,0-0.5-0.2-0.5-0.5s0.2-0.5,0.5-0.5h31.3c0.3,0,0.5,0.2,0.5,0.5S-6642.2-1273.2-6642.4-1273.2     z"/>
		</g>
	</g>
	<g>
		<path d="M-6528.4-1278.5c-0.1,0-0.3,0-0.4-0.1l-8.9-8.9c-0.2-0.2-0.2-0.5,0-0.7s0.5-0.2,0.7,0l8.9,8.9c0.2,0.2,0.2,0.5,0,0.7    C-6528.1-1278.6-6528.3-1278.5-6528.4-1278.5z"/>
	</g>
	<g>
		<path d="M-6533.7-1270.7c-0.1,0-0.3,0-0.4-0.1l-15.8-15.8c-0.2-0.2-0.2-0.5,0-0.7c0.2-0.2,0.5-0.2,0.7,0l15.8,15.8    c0.2,0.2,0.2,0.5,0,0.7C-6533.4-1270.7-6533.5-1270.7-6533.7-1270.7z"/>
	</g>
</g>
<g>
	<g>
		<g>
			
		</g>
	</g>
	<g>
		<path fill="#58595B" d="M982.4,490c0,155.7-126.2,281.9-281.9,281.9c-155.7,0-281.9-126.2-281.9-281.9    c0-155.7,126.2-281.9,281.9-281.9C856.2,208.1,982.4,334.3,982.4,490z"/>
		<path d="M700.5,773.2c-156.1,0-283.2-127-283.2-283.2c0-156.1,127-283.2,283.2-283.2c156.1,0,283.2,127,283.2,283.2    C983.6,646.1,856.6,773.2,700.5,773.2z M700.5,209.3c-154.8,0-280.7,125.9-280.7,280.7c0,154.8,125.9,280.7,280.7,280.7    c154.8,0,280.7-125.9,280.7-280.7C981.2,335.2,855.3,209.3,700.5,209.3z"/>
	</g>
	<g>
		<rect x="894.7" y="396.2" fill="#4A4B4D" width="39.9" height="39.9"/>
	</g>
	<g>
		<rect x="894.7" y="475.2" fill="#4A4B4D" width="39.9" height="39.9"/>
	</g>
	<g>
		<rect x="607.4" y="681.4" fill="#4A4B4D" width="39.9" height="39.9"/>
	</g>
	<g>
		<rect x="470.7" y="460.8" fill="#4A4B4D" width="39.9" height="39.9"/>
	</g>
	<g>
		<polygon fill="#FFFFFF" points="547.1,397.5 547.1,373.9 490.6,373.9 490.6,673.6 511.2,673.6 511.2,397.5   "/>
		<path d="M511.2,674.9h-20.6c-0.7,0-1.2-0.6-1.2-1.2V373.9c0-0.7,0.6-1.2,1.2-1.2h56.5c0.7,0,1.2,0.6,1.2,1.2v23.7    c0,0.7-0.6,1.2-1.2,1.2h-34.7v274.9C512.4,674.3,511.8,674.9,511.2,674.9z M491.8,672.4h18.1V397.5c0-0.7,0.6-1.2,1.2-1.2h34.7    v-21.2h-54.1V672.4z"/>
	</g>
	<g>
		<polygon fill="#B8FFFC" points="853.8,397.5 853.8,611.8 547.1,611.8 547.1,397.5 511.2,397.5 511.2,673.6 890.4,673.6     890.4,397.5   "/>
		<path d="M890.4,674.9H511.2c-0.7,0-1.2-0.6-1.2-1.2V397.5c0-0.7,0.6-1.2,1.2-1.2h36c0.7,0,1.2,0.6,1.2,1.2v213.1h304.2V397.5    c0-0.7,0.6-1.2,1.2-1.2h36.6c0.7,0,1.2,0.6,1.2,1.2v276.1C891.7,674.3,891.1,674.9,890.4,674.9z M512.4,672.4h376.8V398.8h-34.2    v213.1c0,0.7-0.6,1.2-1.2,1.2H547.1c-0.7,0-1.2-0.6-1.2-1.2V398.8h-33.5V672.4z"/>
	</g>
	<g>
		<rect x="529.3" y="542.3" fill="#A5E6E3" width="138.9" height="101.7"/>
	</g>
	<g>
		<rect x="693.5" y="628.2" fill="#A5E6E3" width="176.9" height="15.8"/>
	</g>
	<g>
		<rect x="693.5" y="589.4" fill="#A5E6E3" width="176.9" height="15.8"/>
	</g>
	<g>
		<rect x="693.5" y="550.5" fill="#A5E6E3" width="176.9" height="15.8"/>
	</g>
	<g>
		<rect x="693.5" y="511.7" fill="#A5E6E3" width="176.9" height="15.8"/>
	</g>
	<g>
		<rect x="529.3" y="507.9" fill="#A5E6E3" width="176.9" height="15.8"/>
	</g>
	<g>
		<rect x="529.3" y="475.2" fill="#A5E6E3" width="176.9" height="15.8"/>
	</g>
	<g>
		<rect x="529.3" y="442.4" fill="#A5E6E3" width="176.9" height="15.8"/>
	</g>
	<g>
		<polygon fill="#FFFFFF" points="853.8,373.9 853.8,397.5 890.4,397.5 890.4,673.6 911,673.6 911,373.9   "/>
		<path d="M911,674.9h-20.6c-0.7,0-1.2-0.6-1.2-1.2V398.8h-35.4c-0.7,0-1.2-0.6-1.2-1.2v-23.7c0-0.7,0.6-1.2,1.2-1.2H911    c0.7,0,1.2,0.6,1.2,1.2v299.8C912.3,674.3,911.7,674.9,911,674.9z M891.7,672.4h18.1V375.1h-54.7v21.2h35.4c0.7,0,1.2,0.6,1.2,1.2    V672.4z"/>
	</g>
	<g>
		<polygon fill="#FFFFFF" points="547.1,350.2 547.1,373.9 547.1,397.5 547.1,611.8 853.8,611.8 853.8,397.5 853.8,373.9     853.8,350.2   "/>
		<path d="M853.8,613.1H547.1c-0.7,0-1.2-0.6-1.2-1.2V350.2c0-0.7,0.6-1.2,1.2-1.2h306.7c0.7,0,1.2,0.6,1.2,1.2v261.7    C855.1,612.5,854.5,613.1,853.8,613.1z M548.4,610.6h304.2V351.4H548.4V610.6z"/>
	</g>
	<g>
		<rect x="547.1" y="312.1" fill="#FFA88E" width="306.7" height="38.1"/>
		<path d="M853.8,351.4H547.1c-0.7,0-1.2-0.6-1.2-1.2v-38.1c0-0.7,0.6-1.2,1.2-1.2h306.7c0.7,0,1.2,0.6,1.2,1.2v38.1    C855.1,350.9,854.5,351.4,853.8,351.4z M548.4,349h304.2v-35.7H548.4V349z"/>
	</g>
	<g>
		<g>
			<polygon fill="#F1F2F2" points="822.8,381.1 578.2,381.1 578.2,580.3 784.8,580.3 822.8,542.3    "/>
			<path d="M784.8,581.5H578.2c-0.7,0-1.2-0.6-1.2-1.2V381.1c0-0.7,0.6-1.2,1.2-1.2h244.6c0.7,0,1.2,0.6,1.2,1.2v161.2     c0,0.3-0.1,0.6-0.4,0.9l-38,38C785.4,581.4,785.1,581.5,784.8,581.5z M579.4,579.1h204.9l37.2-37.2V382.3H579.4V579.1z"/>
		</g>
		<g>
			<polygon fill="#D1D3D4" points="784.8,580.3 822.8,542.3 784.8,542.3    "/>
			<path d="M784.8,581.5c-0.2,0-0.3,0-0.5-0.1c-0.5-0.2-0.8-0.6-0.8-1.1v-38c0-0.7,0.6-1.2,1.2-1.2h38c0.5,0,0.9,0.3,1.1,0.8     c0.2,0.5,0.1,1-0.3,1.3l-38,38C785.4,581.4,785.1,581.5,784.8,581.5z M786,543.6v33.8l33.8-33.8H786z"/>
		</g>
	</g>
	<g>
		<path d="M594,332.4h-11.3c-0.7,0-1.2-0.6-1.2-1.2c0-0.7,0.6-1.2,1.2-1.2H594c0.7,0,1.2,0.6,1.2,1.2    C595.2,331.8,594.7,332.4,594,332.4z"/>
	</g>
	<g>
		<path d="M616,332.4h-11.3c-0.7,0-1.2-0.6-1.2-1.2c0-0.7,0.6-1.2,1.2-1.2H616c0.7,0,1.2,0.6,1.2,1.2    C617.2,331.8,616.7,332.4,616,332.4z"/>
	</g>
	<g>
		<rect x="556" y="321.7" fill="#FFFFFF" width="18.9" height="18.9"/>
		<path d="M574.9,341.8H556c-0.7,0-1.2-0.6-1.2-1.2v-18.9c0-0.7,0.6-1.2,1.2-1.2h18.9c0.7,0,1.2,0.6,1.2,1.2v18.9    C576.1,341.3,575.6,341.8,574.9,341.8z M557.2,339.3h16.4v-16.4h-16.4V339.3z"/>
	</g>
	<g>
		<g>
			<path d="M842.1,342c-0.3,0-0.6-0.1-0.9-0.4l-19.3-19.3c-0.5-0.5-0.5-1.3,0-1.7c0.5-0.5,1.3-0.5,1.7,0l19.3,19.3     c0.5,0.5,0.5,1.3,0,1.7C842.7,341.9,842.4,342,842.1,342z"/>
		</g>
		<g>
			<path d="M822.8,342c-0.3,0-0.6-0.1-0.9-0.4c-0.5-0.5-0.5-1.3,0-1.7l19.3-19.3c0.5-0.5,1.3-0.5,1.7,0s0.5,1.3,0,1.7l-19.3,19.3     C823.4,341.9,823.1,342,822.8,342z"/>
		</g>
	</g>
	<g>
		<path fill="#BCBEC0" d="M446,701.4h508.9c9.3-5.2,15.6-15.1,15.6-26.5v-1.3H430.4v1.3C430.4,686.3,436.7,696.2,446,701.4z"/>
		<path d="M954.9,702.6H446c-0.2,0-0.4-0.1-0.6-0.2c-10-5.6-16.2-16.1-16.2-27.5v-1.3c0-0.7,0.6-1.2,1.2-1.2h540.1    c0.7,0,1.2,0.6,1.2,1.2v1.3c0,11.4-6.2,22-16.2,27.5C955.3,702.5,955.1,702.6,954.9,702.6z M446.4,700.1h508.2    c9.1-5.2,14.7-14.8,14.7-25.2v0H431.7v0C431.7,685.3,437.3,695,446.4,700.1z"/>
	</g>
	<g>
		<path d="M751.1,684.7H650.5c-0.7,0-1.2-0.6-1.2-1.2c0-0.7,0.6-1.2,1.2-1.2h100.6c0.7,0,1.2,0.6,1.2,1.2    C752.3,684.2,751.8,684.7,751.1,684.7z"/>
	</g>
	<g>
		<rect x="599.6" y="404.4" fill="#D1D3D4" width="58.4" height="58.4"/>
	</g>
	<g>
		<rect x="675.6" y="404.4" fill="#D1D3D4" width="128.2" height="11.7"/>
	</g>
	<g>
		<rect x="675.6" y="427.7" fill="#D1D3D4" width="128.2" height="11.7"/>
	</g>
	<g>
		<rect x="675.6" y="451.1" fill="#D1D3D4" width="128.2" height="11.7"/>
	</g>
	<g>
		<rect x="599.6" y="475.2" fill="#D1D3D4" width="128.2" height="11.7"/>
	</g>
	<g>
		<rect x="748.3" y="475.2" fill="#D1D3D4" width="55.4" height="11.7"/>
	</g>
	<g>
		<rect x="599.6" y="499.4" fill="#D1D3D4" width="55.4" height="11.7"/>
	</g>
	<g>
		<rect x="612.7" y="248.2" fill="#4A4B4D" width="39.9" height="39.9"/>
	</g>
	<g>
		<rect x="684.2" y="248.2" fill="#4A4B4D" width="39.9" height="39.9"/>
	</g>
	<g>
		<rect x="755.7" y="248.2" fill="#4A4B4D" width="39.9" height="39.9"/>
	</g>
	<g>
		<rect x="970.5" y="121" fill="#FFFFFF" width="337" height="221.9"/>
		<path d="M1307.5,344.1h-337c-0.7,0-1.2-0.6-1.2-1.2V121c0-0.7,0.6-1.2,1.2-1.2h337c0.7,0,1.2,0.6,1.2,1.2v221.9    C1308.8,343.6,1308.2,344.1,1307.5,344.1z M971.8,341.7h334.6V122.2H971.8V341.7z"/>
	</g>
	<g>
		<rect x="992.7" y="143.2" fill="#FFFFFF" width="292.6" height="177.6"/>
		<path d="M1285.3,322H992.7c-0.7,0-1.2-0.6-1.2-1.2V143.2c0-0.7,0.6-1.2,1.2-1.2h292.6c0.7,0,1.2,0.6,1.2,1.2v177.6    C1286.6,321.4,1286,322,1285.3,322z M993.9,319.5h290.2V144.4H993.9V319.5z"/>
	</g>
	<g>
		<g>
			<g>
				<rect x="1112.3" y="188.4" fill="#FFFFFF" width="156.6" height="15.7"/>
				<path d="M1268.9,205.3h-156.6c-0.7,0-1.2-0.6-1.2-1.2v-15.7c0-0.7,0.6-1.2,1.2-1.2h156.6c0.7,0,1.2,0.6,1.2,1.2v15.7      C1270.1,204.8,1269.6,205.3,1268.9,205.3z M1113.5,202.8h154.1v-13.2h-154.1V202.8z"/>
			</g>
			<g>
				<rect x="1112.3" y="204.1" fill="#FFFFFF" width="156.6" height="101.4"/>
				<path d="M1268.9,306.8h-156.6c-0.7,0-1.2-0.6-1.2-1.2V204.1c0-0.7,0.6-1.2,1.2-1.2h156.6c0.7,0,1.2,0.6,1.2,1.2v101.4      C1270.1,306.2,1269.6,306.8,1268.9,306.8z M1113.5,304.3h154.1v-99h-154.1V304.3z"/>
			</g>
		</g>
		<g>
			<circle fill="#FFFFFF" cx="1210.4" cy="254.8" r="36.1"/>
			<path d="M1210.4,292.1c-20.6,0-37.3-16.7-37.3-37.3s16.7-37.3,37.3-37.3c20.6,0,37.3,16.7,37.3,37.3S1230.9,292.1,1210.4,292.1z      M1210.4,219.9c-19.2,0-34.9,15.6-34.9,34.9s15.6,34.9,34.9,34.9c19.2,0,34.9-15.6,34.9-34.9S1229.6,219.9,1210.4,219.9z"/>
		</g>
		<g>
			<line fill="#FFFFFF" x1="1185.5" y1="244.9" x2="1235.2" y2="244.9"/>
			<path d="M1235.2,246.2h-49.7c-0.7,0-1.2-0.6-1.2-1.2s0.6-1.2,1.2-1.2h49.7c0.7,0,1.2,0.6,1.2,1.2S1235.9,246.2,1235.2,246.2z"/>
		</g>
		<g>
			<line fill="#FFFFFF" x1="1185.5" y1="264.7" x2="1235.2" y2="264.7"/>
			<path d="M1235.2,265.9h-49.7c-0.7,0-1.2-0.6-1.2-1.2c0-0.7,0.6-1.2,1.2-1.2h49.7c0.7,0,1.2,0.6,1.2,1.2     C1236.4,265.4,1235.9,265.9,1235.2,265.9z"/>
		</g>
		<g>
			<line fill="#FFFFFF" x1="1200.5" y1="279.6" x2="1200.5" y2="229.9"/>
			<path d="M1200.5,280.9c-0.7,0-1.2-0.6-1.2-1.2v-49.7c0-0.7,0.6-1.2,1.2-1.2s1.2,0.6,1.2,1.2v49.7     C1201.7,280.3,1201.2,280.9,1200.5,280.9z"/>
		</g>
		<g>
			<line fill="#FFFFFF" x1="1220.2" y1="279.6" x2="1220.2" y2="229.9"/>
			<path d="M1220.2,280.9c-0.7,0-1.2-0.6-1.2-1.2v-49.7c0-0.7,0.6-1.2,1.2-1.2s1.2,0.6,1.2,1.2v49.7     C1221.5,280.3,1220.9,280.9,1220.2,280.9z"/>
		</g>
	</g>
	<g>
		<polygon fill="#FFFFFF" points="1121.2,42.7 1011.1,42.7 1011.1,243.6 1155.4,243.6 1155.4,76.9   "/>
		<path d="M1155.4,244.9h-144.3c-0.7,0-1.2-0.6-1.2-1.2V42.7c0-0.7,0.6-1.2,1.2-1.2h110.1c0.3,0,0.6,0.1,0.9,0.4l34.2,34.2    c0.2,0.2,0.4,0.5,0.4,0.9v166.8C1156.6,244.3,1156,244.9,1155.4,244.9z M1012.3,242.4h141.8v-165l-33.5-33.5h-108.3V242.4z"/>
	</g>
	<g>
		<polygon fill="#FFFFFF" points="1122.1,76.9 1156.3,76.9 1122.1,42.7   "/>
		<path d="M1156.3,78.1h-34.2c-0.7,0-1.2-0.6-1.2-1.2V42.7c0-0.5,0.3-0.9,0.8-1.1c0.5-0.2,1-0.1,1.3,0.3l34.2,34.2    c0.4,0.4,0.5,0.9,0.3,1.3C1157.2,77.8,1156.8,78.1,1156.3,78.1z M1123.3,75.6h30l-30-30V75.6z"/>
	</g>
	<g>
		<path d="M1100.8,67.3h-66c-0.7,0-1.2-0.6-1.2-1.2c0-0.7,0.6-1.2,1.2-1.2h66c0.7,0,1.2,0.6,1.2,1.2    C1102,66.8,1101.5,67.3,1100.8,67.3z"/>
	</g>
	<g>
		<path d="M1131.6,91.4h-96.8c-0.7,0-1.2-0.6-1.2-1.2c0-0.7,0.6-1.2,1.2-1.2h96.8c0.7,0,1.2,0.6,1.2,1.2    C1132.9,90.8,1132.3,91.4,1131.6,91.4z"/>
	</g>
	<g>
		<path d="M1131.6,115.4h-96.8c-0.7,0-1.2-0.6-1.2-1.2s0.6-1.2,1.2-1.2h96.8c0.7,0,1.2,0.6,1.2,1.2S1132.3,115.4,1131.6,115.4z"/>
	</g>
	<g>
		<path d="M1131.6,139.4h-96.8c-0.7,0-1.2-0.6-1.2-1.2s0.6-1.2,1.2-1.2h96.8c0.7,0,1.2,0.6,1.2,1.2S1132.3,139.4,1131.6,139.4z"/>
	</g>
	<g>
		<path d="M1131.6,163.5h-96.8c-0.7,0-1.2-0.6-1.2-1.2s0.6-1.2,1.2-1.2h96.8c0.7,0,1.2,0.6,1.2,1.2S1132.3,163.5,1131.6,163.5z"/>
	</g>
	<g>
		<path d="M1131.6,187.5h-96.8c-0.7,0-1.2-0.6-1.2-1.2s0.6-1.2,1.2-1.2h96.8c0.7,0,1.2,0.6,1.2,1.2S1132.3,187.5,1131.6,187.5z"/>
	</g>
	<g>
		<path d="M1131.6,211.6h-96.8c-0.7,0-1.2-0.6-1.2-1.2s0.6-1.2,1.2-1.2h96.8c0.7,0,1.2,0.6,1.2,1.2S1132.3,211.6,1131.6,211.6z"/>
	</g>
	<g>
		<g>
			<polygon fill="#FFFFFF" points="280.4,424 152.3,424 152.3,657.8 320.2,657.8 320.2,463.8    "/>
			<path d="M320.2,659H152.3c-0.7,0-1.2-0.6-1.2-1.2V424c0-0.7,0.6-1.2,1.2-1.2h128.1c0.3,0,0.6,0.1,0.9,0.4l39.8,39.8     c0.2,0.2,0.4,0.5,0.4,0.9v194C321.4,658.5,320.8,659,320.2,659z M153.6,656.6h165.4V464.3l-39-39H153.6V656.6z"/>
		</g>
		<g>
			<polygon fill="#FFFFFF" points="281.5,463.8 321.2,463.8 281.5,424    "/>
			<path d="M321.2,465h-39.8c-0.7,0-1.2-0.6-1.2-1.2V424c0-0.5,0.3-0.9,0.8-1.1c0.5-0.2,1-0.1,1.3,0.3l39.8,39.8     c0.4,0.4,0.5,0.9,0.3,1.3C322.2,464.7,321.7,465,321.2,465z M282.7,462.6h35.6L282.7,427V462.6z"/>
		</g>
		<g>
			<path d="M256.7,452.5h-76.7c-0.7,0-1.2-0.6-1.2-1.2c0-0.7,0.6-1.2,1.2-1.2h76.7c0.7,0,1.2,0.6,1.2,1.2     C257.9,451.9,257.4,452.5,256.7,452.5z"/>
		</g>
		<g>
			<path d="M292.5,480.5H179.9c-0.7,0-1.2-0.6-1.2-1.2s0.6-1.2,1.2-1.2h112.6c0.7,0,1.2,0.6,1.2,1.2S293.2,480.5,292.5,480.5z"/>
		</g>
		<g>
			<path d="M292.5,508.4H179.9c-0.7,0-1.2-0.6-1.2-1.2s0.6-1.2,1.2-1.2h112.6c0.7,0,1.2,0.6,1.2,1.2S293.2,508.4,292.5,508.4z"/>
		</g>
		<g>
			<path d="M292.5,536.4H179.9c-0.7,0-1.2-0.6-1.2-1.2s0.6-1.2,1.2-1.2h112.6c0.7,0,1.2,0.6,1.2,1.2S293.2,536.4,292.5,536.4z"/>
		</g>
		<g>
			<path d="M292.5,564.4H179.9c-0.7,0-1.2-0.6-1.2-1.2c0-0.7,0.6-1.2,1.2-1.2h112.6c0.7,0,1.2,0.6,1.2,1.2     C293.8,563.8,293.2,564.4,292.5,564.4z"/>
		</g>
		<g>
			<path d="M292.5,592.3H179.9c-0.7,0-1.2-0.6-1.2-1.2s0.6-1.2,1.2-1.2h112.6c0.7,0,1.2,0.6,1.2,1.2S293.2,592.3,292.5,592.3z"/>
		</g>
		<g>
			<path d="M292.5,620.3H179.9c-0.7,0-1.2-0.6-1.2-1.2c0-0.7,0.6-1.2,1.2-1.2h112.6c0.7,0,1.2,0.6,1.2,1.2     C293.8,619.8,293.2,620.3,292.5,620.3z"/>
		</g>
	</g>
	<g>
		<rect x="1101.6" y="342.9" fill="#FFFFFF" width="75.2" height="29.2"/>
		<path d="M1176.8,373.3h-75.2c-0.7,0-1.2-0.6-1.2-1.2v-29.2c0-0.7,0.6-1.2,1.2-1.2h75.2c0.7,0,1.2,0.6,1.2,1.2v29.2    C1178,372.8,1177.5,373.3,1176.8,373.3z M1102.8,370.9h72.7v-26.7h-72.7V370.9z"/>
	</g>
	<g>
		<rect x="1075" y="372.1" fill="#FFFFFF" width="128" height="17.7"/>
		<path d="M1203,391h-128c-0.7,0-1.2-0.6-1.2-1.2v-17.7c0-0.7,0.6-1.2,1.2-1.2h128c0.7,0,1.2,0.6,1.2,1.2v17.7    C1204.3,390.5,1203.7,391,1203,391z M1076.2,388.5h125.6v-15.2h-125.6V388.5z"/>
	</g>
	<g>
		<g>
			<path d="M937.8,155.7h-43.1c-0.7,0-1.2-0.6-1.2-1.2s0.6-1.2,1.2-1.2h43.1c0.7,0,1.2,0.6,1.2,1.2S938.4,155.7,937.8,155.7z"/>
		</g>
		<g>
			<path d="M937.8,177.9h-43.1c-0.7,0-1.2-0.6-1.2-1.2s0.6-1.2,1.2-1.2h43.1c0.7,0,1.2,0.6,1.2,1.2S938.4,177.9,937.8,177.9z"/>
		</g>
		<g>
			<path d="M937.8,200.1h-43.1c-0.7,0-1.2-0.6-1.2-1.2s0.6-1.2,1.2-1.2h43.1c0.7,0,1.2,0.6,1.2,1.2S938.4,200.1,937.8,200.1z"/>
		</g>
		<g>
			<path d="M937.8,222.3h-43.1c-0.7,0-1.2-0.6-1.2-1.2s0.6-1.2,1.2-1.2h43.1c0.7,0,1.2,0.6,1.2,1.2S938.4,222.3,937.8,222.3z"/>
		</g>
		<g>
			<path d="M878,183c-0.7,0-1.2-0.6-1.2-1.2v-36.6c0-0.7,0.6-1.2,1.2-1.2s1.2,0.6,1.2,1.2v36.6C879.2,182.5,878.6,183,878,183z"/>
		</g>
		<g>
			<path d="M878,228.1c-0.7,0-1.2-0.6-1.2-1.2v-34.5c0-0.7,0.6-1.2,1.2-1.2s1.2,0.6,1.2,1.2v34.5C879.2,227.6,878.6,228.1,878,228.1     z"/>
		</g>
	</g>
	<g>
		<g>
			<path d="M515.3,177.7h-43.1c-0.7,0-1.2-0.6-1.2-1.2c0-0.7,0.6-1.2,1.2-1.2h43.1c0.7,0,1.2,0.6,1.2,1.2     C516.5,177.2,515.9,177.7,515.3,177.7z"/>
		</g>
		<g>
			<path d="M515.3,199.9h-43.1c-0.7,0-1.2-0.6-1.2-1.2s0.6-1.2,1.2-1.2h43.1c0.7,0,1.2,0.6,1.2,1.2S515.9,199.9,515.3,199.9z"/>
		</g>
		<g>
			<path d="M515.3,222.1h-43.1c-0.7,0-1.2-0.6-1.2-1.2s0.6-1.2,1.2-1.2h43.1c0.7,0,1.2,0.6,1.2,1.2S515.9,222.1,515.3,222.1z"/>
		</g>
		<g>
			<path d="M455.5,238.3c-0.7,0-1.2-0.6-1.2-1.2v-76.4c0-0.7,0.6-1.2,1.2-1.2c0.7,0,1.2,0.6,1.2,1.2V237     C456.7,237.7,456.1,238.3,455.5,238.3z"/>
		</g>
	</g>
	<g>
		<g>
			<path d="M426.4,159H94.5c-0.7,0-1.2-0.6-1.2-1.2v-38.3c0-0.7,0.6-1.2,1.2-1.2h331.9c0.7,0,1.2,0.6,1.2,1.2v38.3     C427.6,158.5,427,159,426.4,159z M95.7,156.6h329.4v-35.8H95.7V156.6z"/>
		</g>
		<g>
			<path d="M426.4,348.3H94.5c-0.7,0-1.2-0.6-1.2-1.2V157.8c0-0.7,0.6-1.2,1.2-1.2h331.9c0.7,0,1.2,0.6,1.2,1.2v189.3     C427.6,347.8,427,348.3,426.4,348.3z M95.7,345.8h329.4V159H95.7V345.8z"/>
		</g>
	</g>
	<g>
		<path d="M260.4,266.9c-25.1,0-45.5-20.4-45.5-45.5c0-25.1,20.4-45.5,45.5-45.5c25.1,0,45.5,20.4,45.5,45.5    C305.9,246.5,285.5,266.9,260.4,266.9z M260.4,178.4c-23.7,0-43,19.3-43,43s19.3,43,43,43c23.7,0,43-19.3,43-43    S284.1,178.4,260.4,178.4z"/>
	</g>
	<g>
		<path d="M243,250.6c-0.2,0-0.4-0.1-0.6-0.2c-0.4-0.2-0.6-0.6-0.6-1.1v-55.9c0-0.4,0.2-0.8,0.6-1.1c0.4-0.2,0.9-0.2,1.2,0l48.5,28    c0.4,0.2,0.6,0.6,0.6,1.1c0,0.4-0.2,0.8-0.6,1.1l-48.5,28C243.4,250.5,243.2,250.6,243,250.6z M244.2,195.5v51.7l44.8-25.8    L244.2,195.5z"/>
	</g>
	<g>
		<g>
			<path d="M336.7,322.3c-0.2,0-0.3,0-0.5-0.1c-17-7.1-28-23.6-28-42c0-25.1,20.4-45.5,45.5-45.5c25.1,0,45.5,20.4,45.5,45.5     c0,17.7-10.5,34-26.7,41.4c-0.4,0.2-0.9,0.1-1.3-0.2c-0.4-0.3-0.5-0.8-0.4-1.3l14.5-51.7l-21.7,3.6c-0.5,0.1-0.9-0.1-1.2-0.5     c-0.3-0.4-0.3-0.9-0.1-1.3c1.5-3.1,2.4-6.7,2.5-10.4c-0.2-7.6-6.3-13.6-14-13.6c-7.7,0-13.8,6-14,13.7c0.2,5.3,1.9,10.2,4.8,13.8     c0.3,0.3,0.4,0.8,0.2,1.2c-0.2,0.4-0.5,0.7-1,0.8l-18.8,3.1l15.7,41.5c0.2,0.2,0.2,0.5,0.2,0.7     C338,321.7,337.4,322.2,336.7,322.3C336.8,322.3,336.7,322.3,336.7,322.3z M353.7,237.2c-23.7,0-43,19.3-43,43     c0,16.4,9.3,31.2,23.8,38.5l-15.3-40.5c-0.1-0.3-0.1-0.7,0.1-1.1c0.2-0.3,0.5-0.5,0.9-0.6l18.3-3c-2.5-3.8-4-8.6-4.1-13.7     c0.2-9.1,7.5-16.1,16.5-16.1c9,0,16.2,7.1,16.5,16.1c-0.1,3.3-0.7,6.5-1.8,9.3l21.3-3.5c0.4-0.1,0.8,0.1,1.1,0.4     c0.3,0.3,0.4,0.8,0.3,1.2L374,318.1c13.9-7.4,22.8-22,22.8-37.9C396.7,256.5,377.4,237.2,353.7,237.2z"/>
		</g>
		<g>
			<path d="M353.7,325.7c-2.8,0-5.6-0.3-8.5-0.8c0,0,0,0,0,0c-3.1-0.6-6.1-1.5-8.9-2.7c-0.3-0.1-0.6-0.4-0.7-0.7l-16.4-43.2     c-0.1-0.3-0.1-0.7,0.1-1.1c0.2-0.3,0.5-0.5,0.9-0.6l20.3-3.3c0.4-0.1,0.9,0.1,1.2,0.4c2.6,3.1,5.8,4.8,9.2,4.8     c4.6,0,8.8-3.1,11.5-8.4c0.2-0.4,0.5-0.6,0.9-0.7l23.6-3.9c0.4-0.1,0.8,0.1,1.1,0.4c0.3,0.3,0.4,0.8,0.3,1.2l-15,53.6     c-0.1,0.3-0.3,0.6-0.7,0.8c-3.1,1.4-6.4,2.5-9.5,3.2c0,0,0,0,0,0C359.9,325.3,356.8,325.7,353.7,325.7z M346.5,322.6     c5.2,0.9,10.1,0.8,15-0.1l2.1-32.9c0-0.7,0.6-1.2,1.3-1.2c0.7,0,1.2,0.6,1.2,1.2c0,0,0,0.1,0,0.1l-2.1,32.2     c2.3-0.6,4.6-1.4,6.9-2.4l14.3-51.2l-21.1,3.5c-3.1,5.7-8.1,9.2-13.4,9.2c-3.9,0-7.7-1.8-10.7-5.2l-18.1,3l15.6,41.3     c2,0.8,4.1,1.5,6.3,2l-3.3-29.2c0,0,0-0.1,0-0.1c0-0.6,0.5-1.2,1.1-1.2c0.7-0.1,1.3,0.4,1.4,1.1L346.5,322.6z"/>
		</g>
		<g>
			<path d="M350.9,281c-4.1,0-8.1-2-11.1-5.8c-3.3-4-5.2-9.5-5.3-15.4c0.2-9.1,7.5-16.1,16.5-16.1c9,0,16.2,7.1,16.5,16.1     c-0.1,4.1-1.1,8.1-2.8,11.5C361.5,277.4,356.4,281,350.9,281z M350.9,246.2c-7.7,0-13.8,6-14,13.7c0.2,5.3,1.9,10.2,4.8,13.8     c2.6,3.1,5.8,4.9,9.2,4.9c4.6,0,8.8-3.1,11.5-8.4c1.5-3.1,2.4-6.7,2.5-10.4C364.7,252.2,358.5,246.2,350.9,246.2z"/>
		</g>
	</g>
	<g>
		<g>
			<path d="M1238.5,545c-0.2,0-0.3,0-0.5-0.1c-26-10.8-42.8-36-42.8-64.2c0-38.3,31.2-69.5,69.5-69.5c38.3,0,69.5,31.2,69.5,69.5     c0,27.1-16,51.9-40.7,63.2c-0.4,0.2-0.9,0.1-1.3-0.2c-0.4-0.3-0.5-0.8-0.4-1.3l22.6-80.8l-34.5,5.7c-0.5,0.1-0.9-0.1-1.2-0.5     c-0.3-0.4-0.3-0.9-0.1-1.3c2.4-4.8,3.8-10.5,4-16.3c-0.3-12.1-10.1-21.7-22.3-21.7c-12.2,0-22,9.5-22.3,21.7     c0.3,8.4,2.9,16.1,7.5,21.8c0.3,0.3,0.4,0.8,0.2,1.2c-0.2,0.4-0.5,0.7-1,0.8l-29.8,4.9l24.6,65c0.2,0.2,0.2,0.5,0.2,0.7     C1239.7,544.5,1239.2,545,1238.5,545C1238.5,545,1238.5,545,1238.5,545z M1264.6,413.7c-37,0-67,30.1-67,67     c0,26.2,15.1,49.7,38.7,60.7l-24.2-64c-0.1-0.3-0.1-0.7,0.1-1.1c0.2-0.3,0.5-0.5,0.9-0.6l29.3-4.8c-4.2-5.9-6.6-13.5-6.8-21.7     c0.3-13.6,11.2-24.2,24.7-24.2c13.5,0,24.4,10.6,24.7,24.1c-0.2,5.4-1.3,10.6-3.2,15.2l34.1-5.6c0.4-0.1,0.8,0.1,1.1,0.4     c0.3,0.3,0.4,0.8,0.3,1.2l-22.4,80.1c22.5-11.4,36.9-34.5,36.9-59.8C1331.7,443.8,1301.6,413.7,1264.6,413.7z"/>
		</g>
		<g>
			<path d="M1264.6,550.3c-4.2,0-8.6-0.4-13.1-1.3c0,0,0,0,0,0c-4.7-0.9-9.3-2.3-13.6-4c-0.3-0.1-0.6-0.4-0.7-0.7l-25.2-66.7     c-0.1-0.3-0.1-0.7,0.1-1.1c0.2-0.3,0.5-0.5,0.9-0.6l31.3-5.1c0.5-0.1,0.9,0.1,1.2,0.4c4.1,5,9.3,7.7,14.7,7.7     c7.3,0,14.1-5,18.3-13.3c0.2-0.4,0.5-0.6,0.9-0.7l36.4-6c0.4-0.1,0.8,0.1,1.1,0.4c0.3,0.3,0.4,0.8,0.3,1.2l-23.2,82.7     c-0.1,0.3-0.3,0.6-0.7,0.8c-4.8,2.2-9.7,3.8-14.6,4.8c0,0,0,0,0,0C1274.2,549.8,1269.4,550.3,1264.6,550.3z M1252.9,546.7     c8.4,1.5,16.5,1.4,24.5-0.2l3.3-51.3c0-0.7,0.7-1.2,1.3-1.2c0.7,0,1.2,0.6,1.2,1.2c0,0,0,0.1,0,0.1l-3.3,50.6c4-0.9,8-2.3,12-4.1     l22.5-80.3l-33.9,5.6c-4.6,8.8-12.2,14.1-20.2,14.1c-6,0-11.7-2.9-16.2-8.1l-29.2,4.8l24.5,64.8c3.5,1.4,7.2,2.5,11,3.4     l-5.2-45.9c0,0,0-0.1,0-0.1c0-0.6,0.5-1.2,1.1-1.2c0.7-0.1,1.3,0.4,1.4,1.1L1252.9,546.7z"/>
		</g>
		<g>
			<path d="M1260.2,481.3c-6.2,0-12.1-3.1-16.7-8.6c-5-6-7.8-14.3-8.1-23.3c0.3-13.6,11.2-24.2,24.7-24.2     c13.5,0,24.4,10.6,24.7,24.1c-0.2,6.3-1.6,12.3-4.2,17.4C1276.2,475.9,1268.5,481.3,1260.2,481.3z M1260.2,427.6     c-12.2,0-22,9.5-22.3,21.7c0.3,8.4,2.9,16.1,7.5,21.8c4.1,5,9.3,7.7,14.7,7.7c7.3,0,14.1-5,18.3-13.3c2.4-4.8,3.8-10.4,4-16.3     C1282.2,437.2,1272.4,427.6,1260.2,427.6z"/>
		</g>
	</g>
	<g>
		<g>
			<path d="M150.2,322.3c-0.2,0-0.3,0-0.5-0.1c-17-7.1-28-23.6-28-42c0-25.1,20.4-45.5,45.5-45.5c25.1,0,45.5,20.4,45.5,45.5     c0,17.7-10.5,34-26.7,41.4c-0.4,0.2-1,0.1-1.3-0.2c-0.4-0.3-0.5-0.8-0.4-1.3l14.5-51.7l-21.7,3.6c-0.5,0.1-0.9-0.1-1.2-0.5     c-0.3-0.4-0.3-0.9-0.1-1.3c1.5-3.1,2.4-6.7,2.5-10.4c-0.2-7.6-6.3-13.6-14-13.6c-7.7,0-13.8,6-14,13.7c0.2,5.3,1.9,10.2,4.8,13.8     c0.3,0.3,0.4,0.8,0.2,1.2c-0.2,0.4-0.5,0.7-1,0.8l-18.8,3.1l15.7,41.5c0.2,0.2,0.2,0.5,0.2,0.7     C151.4,321.7,150.9,322.3,150.2,322.3C150.2,322.3,150.2,322.3,150.2,322.3z M167.1,237.2c-23.7,0-43,19.3-43,43     c0,16.4,9.3,31.2,23.8,38.5l-15.3-40.4c-0.1-0.3-0.1-0.7,0.1-1.1c0.2-0.3,0.5-0.5,0.9-0.6l18.3-3c-2.5-3.8-4-8.6-4.1-13.7     c0.2-9.1,7.5-16.1,16.5-16.1c9,0,16.2,7.1,16.5,16.1c-0.1,3.3-0.7,6.5-1.8,9.3l21.3-3.5c0.4-0.1,0.8,0.1,1.1,0.4     c0.3,0.3,0.4,0.8,0.3,1.2l-14.3,50.9c13.9-7.4,22.8-22,22.8-37.9C210.1,256.5,190.8,237.2,167.1,237.2z"/>
		</g>
		<g>
			<path d="M167.1,325.7c-2.8,0-5.6-0.3-8.5-0.8c0,0,0,0,0,0c-3.1-0.6-6.1-1.5-8.9-2.7c-0.3-0.1-0.6-0.4-0.7-0.7l-16.4-43.2     c-0.1-0.3-0.1-0.7,0.1-1.1c0.2-0.3,0.5-0.5,0.9-0.6l20.3-3.3c0.4-0.1,0.9,0.1,1.2,0.4c2.6,3.1,5.8,4.8,9.2,4.8     c4.6,0,8.8-3.1,11.5-8.4c0.2-0.4,0.5-0.6,0.9-0.7l23.6-3.9c0.4-0.1,0.8,0.1,1.1,0.4c0.3,0.3,0.4,0.8,0.3,1.2l-15,53.6     c-0.1,0.3-0.3,0.6-0.7,0.8c-3.1,1.4-6.4,2.5-9.5,3.2c0,0,0,0,0,0C173.4,325.3,170.2,325.7,167.1,325.7z M159.9,322.6     c5.2,0.9,10.1,0.8,15-0.1l2.1-32.9c0-0.7,0.6-1.2,1.3-1.2c0.7,0,1.2,0.6,1.2,1.2c0,0,0,0.1,0,0.1l-2.1,32.2     c2.3-0.6,4.6-1.4,6.9-2.4l14.3-51.2l-21.1,3.5c-3.1,5.7-8.1,9.2-13.4,9.2c-3.9,0-7.7-1.8-10.7-5.2l-18.1,3l15.6,41.3     c2,0.8,4.1,1.5,6.3,2l-3.3-29.2c0,0,0-0.1,0-0.1c0-0.6,0.5-1.2,1.1-1.2c0.7-0.1,1.3,0.4,1.4,1.1L159.9,322.6z"/>
		</g>
		<g>
			<path d="M164.3,281c-4.1,0-8.1-2-11.1-5.8c-3.3-4-5.2-9.4-5.3-15.4c0.2-9.1,7.5-16.1,16.5-16.1c9,0,16.2,7.1,16.5,16.1     c-0.1,4.1-1.1,8.1-2.8,11.5C174.9,277.4,169.8,281,164.3,281z M164.3,246.2c-7.7,0-13.8,6-14,13.7c0.2,5.3,1.9,10.2,4.8,13.8     c2.6,3.1,5.8,4.9,9.2,4.9c4.6,0,8.8-3.1,11.5-8.4c1.5-3.1,2.4-6.7,2.5-10.4C178.1,252.2,171.9,246.2,164.3,246.2z"/>
		</g>
	</g>
	<g>
		<path d="M299.1,289.2h-77.4c-0.7,0-1.2-0.6-1.2-1.2s0.6-1.2,1.2-1.2h77.4c0.7,0,1.2,0.6,1.2,1.2S299.8,289.2,299.1,289.2z"/>
	</g>
	<g>
		<path d="M122.9,148.8h-17.8c-0.7,0-1.2-0.6-1.2-1.2v-17.8c0-0.7,0.6-1.2,1.2-1.2h17.8c0.7,0,1.2,0.6,1.2,1.2v17.8    C124.1,148.2,123.6,148.8,122.9,148.8z M106.4,146.3h15.3V131h-15.3V146.3z"/>
	</g>
	<g>
		<path d="M171.9,139.9h-40.2c-0.7,0-1.2-0.6-1.2-1.2c0-0.7,0.6-1.2,1.2-1.2h40.2c0.7,0,1.2,0.6,1.2,1.2    C173.2,139.3,172.6,139.9,171.9,139.9z"/>
	</g>
	<g>
		<path d="M187.9,139.9h-8.4c-0.7,0-1.2-0.6-1.2-1.2c0-0.7,0.6-1.2,1.2-1.2h8.4c0.7,0,1.2,0.6,1.2,1.2    C189.1,139.3,188.6,139.9,187.9,139.9z"/>
	</g>
	<g>
		<g>
			<path d="M414.8,148.3c-0.3,0-0.6-0.1-0.9-0.4l-16.9-16.9c-0.5-0.5-0.5-1.3,0-1.7c0.5-0.5,1.3-0.5,1.7,0l16.9,16.9     c0.5,0.5,0.5,1.3,0,1.7C415.4,148.2,415.1,148.3,414.8,148.3z"/>
		</g>
		<g>
			<path d="M398,148.3c-0.3,0-0.6-0.1-0.9-0.4c-0.5-0.5-0.5-1.3,0-1.7l16.9-16.9c0.5-0.5,1.3-0.5,1.7,0c0.5,0.5,0.5,1.3,0,1.7     L398.8,148C398.6,148.2,398.3,148.3,398,148.3z"/>
		</g>
	</g>
	<g>
		<path d="M975.8,912.7c-39.2,0-71-31.9-71-71c0-39.2,31.9-71,71-71c39.2,0,71,31.9,71,71C1046.8,880.9,1014.9,912.7,975.8,912.7z     M975.8,773.2c-37.8,0-68.6,30.8-68.6,68.6c0,37.8,30.8,68.6,68.6,68.6c37.8,0,68.6-30.8,68.6-68.6    C1044.3,803.9,1013.6,773.2,975.8,773.2z"/>
	</g>
	<g>
		<g>
			<path d="M1001.1,880.6c-6.7-0.4-11.1-2-13.4-4.6c-1-1.2-1.8-2.7-2.4-4.5c-3.1,1.1-6.5,1.7-10.3,1.7c-8.7,0-15.3-3-19.8-9     c-4.1-5.4-6.1-12.5-6.1-21.5c0-8.9,2-16,6.1-21.5c4.6-6.1,11.2-9.1,19.8-9.1c8.7,0,15.3,3,19.9,9c4.1,5.5,6.1,12.7,6.1,21.6     c0,9.5-2.3,17-6.9,22.4c-2,2.3-4.2,4.1-6.7,5.4c0.6,1.7,1.3,3,2.1,3.9c1.8,2.2,5.9,3.5,12,4L1001.1,880.6z M983.5,864.1     c-0.6-1.7-1.3-3.1-2.2-4.1c-1.9-2.3-5.9-3.6-12.1-4l0.2-2.6c2.3,0.2,4.8,0.6,7.4,1.4c3.5,1,5.9,2.6,7.2,4.6     c0.8,1.4,1.7,4.2,2.8,8.5c1.9-1.1,3.7-2.6,5.3-4.6c4.1-4.9,6.2-11.8,6.2-20.6c0-8.1-1.8-14.6-5.4-19.6c-4.1-5.7-10-8.6-17.8-8.6     c-7.8,0-13.7,2.9-17.8,8.6c-3.5,5-5.3,11.5-5.3,19.6c0,8.1,1.8,14.6,5.3,19.6c4,5.6,9.9,8.5,17.8,8.5c3.5,0,6.8-0.6,9.7-1.9     C984.1,866.5,983.7,864.9,983.5,864.1z"/>
		</g>
	</g>
	<g>
		<path d="M1248.9,773.2c-39.2,0-71-31.9-71-71c0-39.2,31.9-71,71-71c39.2,0,71,31.9,71,71C1319.9,741.3,1288,773.2,1248.9,773.2z     M1248.9,633.6c-37.8,0-68.6,30.8-68.6,68.6s30.8,68.6,68.6,68.6c37.8,0,68.6-30.8,68.6-68.6S1286.7,633.6,1248.9,633.6z"/>
	</g>
	<g>
		<g>
			<path d="M1246.3,664.2h3.6l25.7,67.8h-3.1l-8.8-23.1h-31.6l-8.9,23.1h-3.1L1246.3,664.2z M1262.6,706.1l-14.5-38.2l-14.8,38.2     H1262.6z"/>
		</g>
	</g>
	<g>
		<path d="M1098.9,747.5h-21.1c-0.3,0-0.5-0.1-0.7-0.2l-64.9-47.5c-0.3-0.2-0.5-0.6-0.5-1s0.2-0.8,0.5-1l64.9-47.5    c0.2-0.2,0.5-0.2,0.7-0.2h21.1c0.7,0,1.2,0.6,1.2,1.2v24.7h65.8c0.4,0,0.8,0.2,1,0.5c0.2,0.3,0.3,0.7,0.2,1.1    c-2.4,7.9-3.6,16.2-3.6,24.5c0,6,0.6,12,1.9,17.9c0.1,0.4,0,0.7-0.2,1s-0.6,0.5-1,0.5h-64.1v24.7    C1100.1,747,1099.6,747.5,1098.9,747.5z M1078.2,745h19.5v-24.7c0-0.7,0.6-1.2,1.2-1.2h63.9c-1.1-5.6-1.6-11.3-1.6-16.9    c0-8,1.1-15.9,3.2-23.6h-65.4c-0.7,0-1.2-0.6-1.2-1.2v-24.7h-19.5l-63.2,46.2L1078.2,745z"/>
	</g>
	<g>
		<path d="M1147,890.4h-21.1c-0.7,0-1.2-0.6-1.2-1.2v-24.7h-66c-0.4,0-0.7-0.2-1-0.5c-0.2-0.3-0.3-0.7-0.2-1.1    c1.8-6.9,2.7-14,2.7-21.2c0-7.2-0.9-14.3-2.7-21.2c-0.1-0.4,0-0.8,0.2-1.1c0.2-0.3,0.6-0.5,1-0.5h66v-24.7c0-0.7,0.6-1.2,1.2-1.2    h21.1c0.3,0,0.5,0.1,0.7,0.2l64.9,47.5c0.3,0.2,0.5,0.6,0.5,1s-0.2,0.8-0.5,1l-64.9,47.5C1147.5,890.3,1147.3,890.4,1147,890.4z     M1127.1,888h19.5l63.2-46.2l-63.2-46.2h-19.5v24.7c0,0.7-0.6,1.2-1.2,1.2h-65.7c1.6,6.6,2.4,13.4,2.4,20.3    c0,6.8-0.8,13.7-2.4,20.3h65.7c0.7,0,1.2,0.6,1.2,1.2V888z"/>
	</g>
	<g>
		<path d="M534.6,861.6h-15.8c-0.7,0-1.2-0.6-1.2-1.2v-18.2h-87.1c-0.7,0-1.2-0.6-1.2-1.2v-32.2c0-0.7,0.6-1.2,1.2-1.2h87.1v-18.2    c0-0.7,0.6-1.2,1.2-1.2h15.8c0.3,0,0.5,0.1,0.7,0.2l48.6,35.6c0.3,0.2,0.5,0.6,0.5,1s-0.2,0.8-0.5,1l-48.6,35.6    C535.2,861.5,534.9,861.6,534.6,861.6z M520,859.2h14.2l47-34.3l-47-34.3H520v18.2c0,0.7-0.6,1.2-1.2,1.2h-87.1v29.8h87.1    c0.7,0,1.2,0.6,1.2,1.2V859.2z"/>
	</g>
	<g>
		<g>
			<path fill="#FFFFFF" d="M1241.7,523.8l-56.2-7l-1.4-26.7c0-16.3-13.3-29.6-29.6-29.6h-96.6c-16.3,0-29.6,13.3-29.6,29.6v59.1     c0,16.3,13.2,29.6,29.6,29.6h96.6c14.5,0,26.6-10.4,29.1-24.2L1241.7,523.8z"/>
			<path d="M1154.5,580h-96.6c-17,0-30.8-13.8-30.8-30.8V490c0-17,13.8-30.8,30.8-30.8h96.6c17,0,30.8,13.8,30.8,30.8l1.3,25.6     l55.2,6.9c0.5,0.1,1,0.5,1.1,1c0.1,0.5-0.2,1.1-0.6,1.3l-57.6,30.5C1181.8,569.6,1169.2,580,1154.5,580z M1057.9,461.7     c-15.6,0-28.4,12.7-28.4,28.4v59.1c0,15.6,12.7,28.4,28.4,28.4h96.6c13.7,0,25.4-9.8,27.9-23.2c0.1-0.4,0.3-0.7,0.6-0.9     l54.6-28.9l-52.3-6.5c-0.6-0.1-1-0.6-1.1-1.2l-1.4-26.7c0-15.7-12.7-28.4-28.4-28.4H1057.9z"/>
		</g>
		<g>
			<rect x="1045.3" y="480.7" fill="#FFFFFF" width="81" height="15.8"/>
			<path d="M1126.3,497.8h-81c-0.7,0-1.2-0.6-1.2-1.2v-15.8c0-0.7,0.6-1.2,1.2-1.2h81c0.7,0,1.2,0.6,1.2,1.2v15.8     C1127.5,497.3,1127,497.8,1126.3,497.8z M1046.5,495.3h78.5V482h-78.5V495.3z"/>
		</g>
		<g>
			<rect x="1138.6" y="480.7" fill="#FFFFFF" width="29.2" height="15.8"/>
			<path d="M1167.8,497.8h-29.2c-0.7,0-1.2-0.6-1.2-1.2v-15.8c0-0.7,0.6-1.2,1.2-1.2h29.2c0.7,0,1.2,0.6,1.2,1.2v15.8     C1169,497.3,1168.5,497.8,1167.8,497.8z M1139.8,495.3h26.7V482h-26.7V495.3z"/>
		</g>
		<g>
			<rect x="1045.3" y="508.8" fill="#FFFFFF" width="29.2" height="15.8"/>
			<path d="M1074.5,525.9h-29.2c-0.7,0-1.2-0.6-1.2-1.2v-15.8c0-0.7,0.6-1.2,1.2-1.2h29.2c0.7,0,1.2,0.6,1.2,1.2v15.8     C1075.7,525.3,1075.2,525.9,1074.5,525.9z M1046.5,523.4h26.7v-13.4h-26.7V523.4z"/>
		</g>
		<g>
			<rect x="1085.8" y="508.8" fill="#FFFFFF" width="82" height="49.6"/>
			<path d="M1167.8,559.7h-82c-0.7,0-1.2-0.6-1.2-1.2v-49.6c0-0.7,0.6-1.2,1.2-1.2h82c0.7,0,1.2,0.6,1.2,1.2v49.6     C1169,559.1,1168.5,559.7,1167.8,559.7z M1087,557.2h79.5v-47.1H1087V557.2z"/>
		</g>
	</g>
	<g>
		<g>
			<path fill="#FFFFFF" d="M361,563.3c0,11.1-2.3,21.7-6.5,31.3c6.6,3.8,12.5,8.6,17.5,14.3c10.8-12.2,17.3-28.2,17.3-45.8H361     C361,563.2,361,563.3,361,563.3z"/>
			<path d="M372,610.1c-0.4,0-0.7-0.2-0.9-0.4c-4.9-5.6-10.7-10.3-17.2-14c-0.5-0.3-0.8-1-0.5-1.6c4.2-9.8,6.4-20.1,6.4-30.8     c0-0.7,0.5-1.4,1.2-1.4h28.3c0.7,0,1.2,0.6,1.2,1.2c0,17.2-6.3,33.7-17.6,46.6C372.7,610,372.4,610.1,372,610.1z M356.1,594.1     c5.9,3.5,11.3,7.8,15.9,12.9c10.1-12,15.8-27,16.1-42.7h-25.9C362.1,574.8,360,584.7,356.1,594.1z"/>
		</g>
		<g>
			<path fill="#FFFFFF" d="M354.4,531.7c4.2,9.6,6.6,20.3,6.6,31.4h28.3c0-17.6-6.5-33.6-17.3-45.8C367,523.1,361,527.9,354.4,531.7     z"/>
			<path d="M389.3,564.4H361c-0.7,0-1.2-0.6-1.2-1.2c0-10.7-2.2-21.1-6.5-30.9c-0.3-0.6,0-1.3,0.5-1.6c6.5-3.7,12.3-8.5,17.3-14.1     c0.5-0.5,1.4-0.5,1.8,0c11.4,12.9,17.6,29.4,17.6,46.6C390.6,563.8,390,564.4,389.3,564.4z M362.2,561.9h25.9     c-0.3-15.7-6-30.7-16.1-42.7c-4.7,5.1-10.1,9.5-16,13C359.9,541.7,362,551.6,362.2,561.9z"/>
		</g>
		<g>
			<path fill="#FFFFFF" d="M285.7,594.7c-4.2-9.6-6.5-20.2-6.5-31.3c0-0.1,0-0.1,0-0.2H251c0,17.6,6.6,33.6,17.3,45.8     C273.3,603.3,279.2,598.4,285.7,594.7z"/>
			<path d="M268.3,610.1c-0.4,0-0.7-0.2-0.9-0.4c-11.4-12.9-17.6-29.4-17.6-46.6c0-0.7,0.6-1.2,1.2-1.2h28.3c0.7,0,1.2,0.6,1.2,1.2     c0,10.9,2.1,21.3,6.4,31c0.2,0.6,0,1.2-0.5,1.6c-6.5,3.7-12.2,8.4-17.1,14C269,610,268.7,610.1,268.3,610.1z M252.2,564.4     c0.3,15.7,6,30.7,16.1,42.7c4.6-5,10-9.4,15.9-12.9c-4-9.5-6-19.5-6.1-29.8H252.2z"/>
		</g>
		<g>
			<path fill="#FFFFFF" d="M285.9,531.7c-6.6-3.8-12.6-8.6-17.6-14.3c-10.8,12.2-17.3,28.2-17.3,45.8h28.3     C279.3,551.9,281.7,541.3,285.9,531.7z"/>
			<path d="M279.3,564.4H251c-0.7,0-1.2-0.6-1.2-1.2c0-17.2,6.3-33.7,17.6-46.6c0.2-0.3,0.6-0.4,0.9-0.4l0,0c0.4,0,0.7,0.2,0.9,0.4     c5,5.6,10.8,10.3,17.3,14.1c0.5,0.3,0.8,1,0.5,1.6c-4.3,9.8-6.5,20.2-6.5,31C280.5,563.8,279.9,564.4,279.3,564.4z M252.2,561.9     H278c0.2-10.3,2.3-20.3,6.3-29.7c-5.9-3.5-11.3-7.9-16-13C258.2,531.2,252.5,546.2,252.2,561.9z"/>
		</g>
		<g>
			<path fill="#FFFFFF" d="M279.3,563.1c0,0.1,0,0.1,0,0.2c0,11.1,2.3,21.7,6.5,31.3c10.1-5.8,21.9-9.2,34.4-9.2v-22.3H279.3z"/>
			<path d="M285.7,595.9c-0.1,0-0.3,0-0.4-0.1c-0.3-0.1-0.6-0.4-0.7-0.7c-4.4-10.1-6.6-20.8-6.6-31.8c0-0.7,0.6-1.4,1.2-1.4h40.9     c0.7,0,1.2,0.6,1.2,1.2v22.3c0,0.7-0.6,1.2-1.2,1.2c-11.8,0-23.5,3.1-33.8,9C286.2,595.8,286,595.9,285.7,595.9z M280.5,564.4     c0.1,10,2.1,19.5,5.8,28.5c10-5.5,21.2-8.5,32.6-8.7v-19.9H280.5z"/>
		</g>
		<g>
			<path fill="#FFFFFF" d="M320.2,540.8c-12.5,0-24.2-3.3-34.3-9.1c-4.2,9.6-6.6,20.3-6.6,31.5h40.9V540.8z"/>
			<path d="M320.2,564.4h-40.9c-0.3,0-0.6-0.1-0.9-0.4c-0.2-0.2-0.4-0.5-0.4-0.9c0-11.1,2.3-21.8,6.7-31.9c0.1-0.3,0.4-0.6,0.7-0.7     c0.3-0.1,0.7-0.1,1,0.1c10.2,5.9,21.9,8.9,33.7,8.9c0.7,0,1.2,0.6,1.2,1.2v22.3C321.4,563.8,320.8,564.4,320.2,564.4z      M280.5,561.9h38.4V542c-11.3-0.2-22.5-3.2-32.5-8.6C282.7,542.5,280.7,552,280.5,561.9z"/>
		</g>
		<g>
			<path fill="#FFFFFF" d="M320.2,563.1H361c0-11.2-2.4-21.8-6.6-31.4c-10.1,5.8-21.8,9.1-34.2,9.1V563.1z"/>
			<path d="M361,564.4h-40.8c-0.7,0-1.2-0.6-1.2-1.2v-22.3c0-0.7,0.6-1.2,1.2-1.2c11.8,0,23.4-3.1,33.6-8.9c0.3-0.2,0.7-0.2,1-0.1     c0.3,0.1,0.6,0.4,0.7,0.7c4.4,10.1,6.7,20.8,6.7,31.9c0,0.3-0.1,0.6-0.4,0.9C361.6,564.2,361.3,564.4,361,564.4z M321.4,561.9     h38.4c-0.2-9.8-2.2-19.4-5.9-28.4c-9.9,5.4-21.1,8.4-32.4,8.6V561.9z"/>
		</g>
		<g>
			<path fill="#FFFFFF" d="M320.2,585.5c12.5,0,24.2,3.3,34.4,9.2c4.2-9.6,6.5-20.2,6.5-31.3c0-0.1,0-0.1,0-0.2h-40.8V585.5z"/>
			<path d="M354.5,595.9c-0.2,0-0.4-0.1-0.6-0.2c-10.2-5.9-21.9-9-33.8-9c-0.7,0-1.2-0.6-1.2-1.2v-22.3c0-0.7,0.6-1.2,1.2-1.2H361     c0.7,0,1.2,0.6,1.2,1.2c0,11.2-2.2,21.9-6.6,32c-0.1,0.3-0.4,0.6-0.7,0.7C354.8,595.8,354.7,595.9,354.5,595.9z M321.4,584.3     c11.4,0.2,22.6,3.2,32.5,8.6c3.7-9.1,5.7-18.7,5.8-28.5h-38.4V584.3z"/>
		</g>
		<g>
			<path fill="#FFFFFF" d="M320.4,494c-0.1,0.1-0.2,0.1-0.3,0.2v0c15.2,8.4,27.3,21.6,34.2,37.6c6.6-3.8,12.6-8.6,17.6-14.3     C359.4,503.1,341,494,320.4,494z"/>
			<path d="M354.4,532.9c-0.1,0-0.3,0-0.4-0.1c-0.3-0.1-0.6-0.4-0.7-0.7c-6.8-15.6-18.8-28.7-33.7-37c-0.4-0.2-0.6-0.6-0.6-1.1     c0-0.5,0.3-0.9,0.7-1.1c0.2-0.1,0.6-0.3,0.8-0.3h0c20.1,0.1,39.2,8.8,52.5,23.8c0.4,0.5,0.4,1.2,0,1.6     c-5.1,5.8-11.2,10.7-17.9,14.6C354.8,532.9,354.6,532.9,354.4,532.9z M324.6,495.3c13.2,8.3,23.9,20.4,30.4,34.6     c5.7-3.4,10.9-7.6,15.4-12.6C358.5,504.4,342.1,496.5,324.6,495.3z"/>
		</g>
		<g>
			<path fill="#FFFFFF" d="M285.9,531.7c7-16,19.1-29.2,34.3-37.5c-0.1-0.1-0.2-0.1-0.3-0.2c-20.5,0.1-38.9,9.1-51.5,23.4     C273.3,523.1,279.3,527.9,285.9,531.7z"/>
			<path d="M285.9,532.9c-0.2,0-0.4-0.1-0.6-0.2c-6.7-3.8-12.7-8.7-17.9-14.6c-0.4-0.5-0.4-1.2,0-1.6c13.3-15,32.4-23.7,52.4-23.8     c0.3-0.1,0.4,0,0.6,0.1l0.3,0.2c0.4,0.2,0.7,0.7,0.6,1.1s-0.2,0.9-0.6,1.1c-14.9,8.2-26.9,21.4-33.7,37c-0.1,0.3-0.4,0.6-0.7,0.7     C286.1,532.9,286,532.9,285.9,532.9z M270,517.4c4.5,4.9,9.6,9.1,15.3,12.6c6.5-14.2,17.1-26.3,30.3-34.6     C298.2,496.5,281.8,504.4,270,517.4z"/>
		</g>
		<g>
			<path fill="#FFFFFF" d="M285.9,531.7c10.1,5.8,21.8,9.1,34.3,9.1v-46.6c0,0,0,0,0,0C305,502.5,292.9,515.7,285.9,531.7z"/>
			<path d="M320.2,542c-12.2,0-24.3-3.2-34.9-9.3c-0.5-0.3-0.8-1-0.5-1.6c7-16.1,19.4-29.6,34.8-38.1c0.4-0.2,0.9-0.2,1.3,0.1     c0.2,0.1,0.2,0.2,0.3,0.3c0.2,0.2,0.2,0.5,0.2,0.7v46.6C321.4,541.5,320.8,542,320.2,542z M287.5,531.2     c9.6,5.3,20.5,8.2,31.5,8.4v-43.3C305.2,504.3,294.1,516.6,287.5,531.2z"/>
		</g>
		<g>
			<path fill="#FFFFFF" d="M354.4,531.7c-7-16-19.1-29.2-34.2-37.6v46.6C332.6,540.8,344.3,537.5,354.4,531.7z"/>
			<path d="M320.2,542c-0.7,0-1.2-0.6-1.2-1.2v-46.6c0-0.4,0.2-0.8,0.6-1.1c0.4-0.2,0.8-0.2,1.2,0c15.4,8.5,27.7,22,34.8,38.1     c0.3,0.6,0,1.3-0.5,1.6C344.4,538.8,332.4,542,320.2,542z M321.4,496.3v43.3c11-0.2,21.8-3.1,31.4-8.4     C346.2,516.7,335.1,504.4,321.4,496.3z"/>
		</g>
		<g>
			<path fill="#FFFFFF" d="M354.5,594.6c-6.9,16-19,29.2-34.1,37.7c20.5-0.1,38.9-9.1,51.6-23.4C367,603.2,361.1,598.4,354.5,594.6z     "/>
			<path d="M320.5,633.5c-0.6,0-1.1-0.4-1.2-0.9c-0.1-0.5,0.1-1.1,0.6-1.4c14.9-8.3,26.8-21.5,33.5-37.1c0.1-0.3,0.4-0.6,0.7-0.7     c0.3-0.1,0.7-0.1,1,0.1c6.7,3.8,12.7,8.7,17.8,14.5c0.4,0.5,0.4,1.2,0,1.6C359.6,624.8,340.5,633.5,320.5,633.5     C320.5,633.5,320.5,633.5,320.5,633.5z M355.1,596.4c-6.4,14.1-16.9,26.1-29.9,34.5c17.2-1.3,33.4-9.1,45.1-22     C365.9,604,360.8,599.8,355.1,596.4z"/>
		</g>
		<g>
			<path fill="#FFFFFF" d="M285.7,594.7c-6.6,3.8-12.5,8.6-17.4,14.2c12.6,14.3,31,23.3,51.5,23.4     C304.7,623.9,292.7,610.6,285.7,594.7z"/>
			<path d="M319.8,633.5C319.8,633.5,319.8,633.5,319.8,633.5c-20-0.1-39.1-8.8-52.4-23.8c-0.4-0.5-0.4-1.2,0-1.6     c5.1-5.8,11.1-10.6,17.8-14.5c0.3-0.2,0.7-0.2,1-0.1c0.3,0.1,0.6,0.4,0.7,0.7c6.7,15.6,18.7,28.8,33.5,37     c0.5,0.3,0.7,0.8,0.6,1.4C320.8,633.2,320.4,633.5,319.8,633.5z M270,608.9c11.7,12.8,27.9,20.7,45.1,22     c-13-8.3-23.5-20.4-29.8-34.4C279.5,599.8,274.4,604,270,608.9z"/>
		</g>
		<g>
			<path fill="#FFFFFF" d="M354.5,594.6c-10.1-5.8-21.9-9.2-34.4-9.2v46.8c0.1,0,0.2,0,0.3,0C335.6,623.9,347.6,610.6,354.5,594.6z"/>
			<path d="M320.5,633.5c-0.7,0-1.5-0.5-1.5-1.2v-46.8c0-0.7,0.6-1.2,1.2-1.2c12.3,0,24.4,3.2,35,9.3c0.5,0.3,0.8,1,0.5,1.6     c-7,16.1-19.3,29.7-34.6,38.3C320.9,633.5,320.7,633.5,320.5,633.5z M321.4,586.7v43.6c13.8-8.2,25-20.6,31.6-35.2     C343.3,589.8,332.4,586.9,321.4,586.7z"/>
		</g>
		<g>
			<path fill="#FFFFFF" d="M320.2,585.5c-12.5,0-24.3,3.4-34.4,9.2c6.9,16,19,29.2,34.1,37.6c0.1,0,0.2,0,0.4,0V585.5z"/>
			<path d="M320.2,633.5l-0.3,0c-0.2,0-0.5-0.1-0.6-0.2c-15.3-8.6-27.6-22.1-34.6-38.2c-0.2-0.6,0-1.2,0.5-1.6     c10.6-6.1,22.7-9.3,35-9.3c0.7,0,1.2,0.6,1.2,1.2v46.8C321.4,633,320.8,633.5,320.2,633.5z M287.3,595.2     c6.6,14.6,17.7,27,31.6,35.2v-43.7C307.9,586.9,297,589.8,287.3,595.2z"/>
		</g>
	</g>
	<g>
		<g>
			<path fill="#FFFFFF" d="M107.1,660.4c0.1,0.1,0.2,0.2,0.3,0.2c0.1,0,0.3-0.1,0.3-0.2l5.2-9.8l-11.6-0.8L107.1,660.4z"/>
			<path fill="#231F20" d="M107.5,661.8c-0.6,0-1.1-0.3-1.4-0.9l-5.7-10.6c-0.2-0.4-0.2-0.9,0.1-1.3c0.2-0.4,0.7-0.6,1.1-0.6     l11.6,0.8c0.4,0,0.8,0.3,1,0.6s0.2,0.8,0,1.2l-5.2,9.8C108.6,661.5,108.1,661.8,107.5,661.8L107.5,661.8z M103.6,651.2l3.9,7.3     l3.6-6.7L103.6,651.2z"/>
		</g>
		<g>
			<path fill="#FFFFFF" d="M119.6,438.3c0-7.2-5.4-13.1-12.1-13.1c-6.7,0-12.1,5.9-12.1,13.1v9.5h24.2V438.3z"/>
			<path fill="#231F20" d="M119.6,449H95.4c-0.7,0-1.2-0.6-1.2-1.2v-9.5c0-3.8,1.4-7.4,3.9-10.1c2.5-2.7,5.9-4.2,9.5-4.2     c7.4,0,13.3,6.4,13.3,14.3v9.5C120.8,448.5,120.2,449,119.6,449z M96.6,446.6h21.7v-8.3c0-6.5-4.9-11.9-10.9-11.9     c-2.9,0-5.6,1.2-7.7,3.4c-2.1,2.2-3.2,5.2-3.2,8.4V446.6z"/>
		</g>
		<g>
			<path fill="#FFFFFF" d="M95.4,638.4l0,0.1l6,11.2l11.6,0.8l6.4-12.1l0,0l0.1-0.1c0.1-0.1,0.1-0.2,0.1-0.2l0,0H95.4     C95.4,638.3,95.4,638.3,95.4,638.4z"/>
			<path fill="#231F20" d="M113,651.8C113,651.8,113,651.8,113,651.8l-11.7-0.8c-0.4,0-0.8-0.3-1-0.7l-6-11.2     c-0.2-0.4-0.2-0.7-0.2-0.9c0-0.7,0.6-1.2,1.2-1.2h24.2c0.4,0,0.8,0.2,1,0.5c0.2,0.3,0.3,0.7,0.2,1.1h0c0,0.1-0.1,0.3-0.1,0.4     l-6.5,12.2C113.9,651.6,113.5,651.8,113,651.8z M102.2,648.6l10.1,0.7l5.2-9.9H97.4L102.2,648.6z"/>
		</g>
		<g>
			<rect x="95.4" y="447.8" fill="#FFFFFF" width="24.2" height="8.7"/>
			<path fill="#231F20" d="M119.6,457.8H95.4c-0.7,0-1.2-0.6-1.2-1.2v-8.7c0-0.7,0.6-1.2,1.2-1.2h24.2c0.7,0,1.2,0.6,1.2,1.2v8.7     C120.8,457.2,120.2,457.8,119.6,457.8z M96.6,455.3h21.7V449H96.6V455.3z"/>
		</g>
		<g>
			<rect x="95.4" y="456.5" fill="#FFFFFF" width="12.1" height="181.7"/>
			<path fill="#231F20" d="M107.5,639.4H95.4c-0.7,0-1.2-0.6-1.2-1.2V456.5c0-0.7,0.6-1.2,1.2-1.2l12.1,0c0.3,0,0.6,0.1,0.9,0.4     c0.2,0.2,0.4,0.5,0.4,0.9v181.7C108.7,638.9,108.1,639.4,107.5,639.4z M96.6,637h9.6V457.8l-9.6,0V637z"/>
		</g>
		<g>
			<rect x="107.5" y="456.5" fill="#FFFFFF" width="12.1" height="181.7"/>
			<path fill="#231F20" d="M119.6,639.4h-12.1c-0.7,0-1.2-0.6-1.2-1.2V456.5c0-0.3,0.1-0.6,0.4-0.9c0.2-0.2,0.5-0.4,0.9-0.4l0,0     l12.1,0c0.7,0,1.2,0.6,1.2,1.2l0,181.7c0,0.3-0.1,0.6-0.4,0.9C120.2,639.3,119.9,639.4,119.6,639.4z M108.7,637h9.6l0-179.2     l-9.6,0V637z"/>
		</g>
	</g>
	<g>
		<g>
			<path d="M355.2,914.9c-17.6,0-34-4-46.4-11.3l-13.5-8c-12-7.1-28-11-45.1-11c-17.1,0-33.1,3.9-45.1,11c-0.4,0.2-0.9,0.2-1.2,0     c-0.4-0.2-0.6-0.6-0.6-1.1V734.3c0-0.4,0.2-0.8,0.6-1.1c12.4-7.3,28.8-11.3,46.4-11.3c17.6,0,34,4,46.4,11.3l13.5,8     c12,7.1,28,11,45.1,11c17.1,0,33.1-3.9,45.1-11l13.5-8c0.4-0.2,0.9-0.2,1.2,0c0.4,0.2,0.6,0.6,0.6,1.1v160.2     c0,0.4-0.2,0.8-0.6,1.1l-13.5,8C389.2,910.9,372.8,914.9,355.2,914.9z M250.2,882.2c17.6,0,34,4,46.4,11.3l13.5,8     c12,7.1,28,11,45.1,11c17.1,0,33.1-3.9,45.1-11l12.9-7.6V736.5l-11.6,6.9c-12.4,7.3-28.8,11.3-46.4,11.3c-17.6,0-34-4-46.4-11.3     l-13.5-8c-12-7.1-28-11-45.1-11c-16.8,0-32.6,3.8-44.5,10.6v157.4C217.8,885.8,233.5,882.2,250.2,882.2z"/>
		</g>
		<g>
			<polygon fill="#FFFFFF" points="346.8,786.2 342.1,779.4 335.2,783.9 333.2,775.9 325.1,777.7 325.3,776.1 314.1,816.3      328.1,811.9 337.8,823 347.7,787.5 347.2,785.7    "/>
			<path d="M337.8,824.2c-0.4,0-0.7-0.1-0.9-0.4l-9.2-10.5l-13.3,4.2c-0.4,0.1-0.9,0-1.2-0.3c-0.3-0.3-0.5-0.8-0.3-1.2l11.2-40.2     c0.2-0.6,0.8-1,1.4-0.9c0.6,0.1,1,0.6,1,1.2l6.4-1.4c0.6-0.1,1.3,0.3,1.5,0.9l1.6,6.3l5.5-3.5c0.6-0.4,1.3-0.2,1.7,0.3l3.9,5.7     c0.1,0,0.2,0,0.4,0c0.5,0.1,0.8,0.4,1,0.9l0.5,1.8c0.1,0.2,0.1,0.4,0,0.7l-9.9,35.4c-0.1,0.4-0.5,0.8-0.9,0.9     C338,824.2,337.9,824.2,337.8,824.2z M328.1,810.7c0.3,0,0.7,0.1,0.9,0.4l8.2,9.4l9.2-32.9l0-0.1c-0.3-0.1-0.5-0.3-0.6-0.5     l-4-5.8l-5.9,3.8c-0.3,0.2-0.7,0.3-1.1,0.1c-0.4-0.1-0.6-0.5-0.7-0.8l-1.7-6.8l-6.4,1.4l-10,35.7l11.9-3.8     C327.8,810.7,328,810.7,328.1,810.7z"/>
		</g>
		<g>
			<polygon fill="#FFFFFF" points="368.6,770.7 368.5,770.7 368.8,778.9 360.9,776.7 358.4,784.5 351.8,779.7 348.8,783.6      347.2,785.7 347.7,787.5 357.6,823 367.3,811.9 381.3,816.3    "/>
			<path d="M357.6,824.2c-0.1,0-0.2,0-0.3,0c-0.4-0.1-0.8-0.4-0.9-0.9L346,786c-0.1-0.4,0-0.8,0.2-1.1l4.6-6     c0.4-0.5,1.2-0.6,1.7-0.3l5.3,3.8l2-6.2c0.2-0.6,0.9-1,1.5-0.8l6.3,1.8l-0.3-6.5c0-0.7,0.5-1.2,1.1-1.3c0.6,0,1.2,0.3,1.4,0.9     l12.8,45.7c0.1,0.4,0,0.9-0.3,1.2c-0.3,0.3-0.8,0.4-1.2,0.3l-13.3-4.2l-9.2,10.5C358.3,824.1,357.9,824.2,357.6,824.2z      M348.5,786l9.6,34.5l8.2-9.4c0.3-0.4,0.8-0.5,1.3-0.4l11.9,3.8l-9.7-34.8c-0.1,0.1-0.1,0.1-0.2,0.2c-0.3,0.2-0.7,0.3-1.1,0.2     l-6.8-1.9l-2.1,6.7c-0.1,0.4-0.4,0.7-0.8,0.8c-0.4,0.1-0.8,0.1-1.1-0.2l-5.7-4.1L348.5,786z"/>
		</g>
		<g>
			<polygon fill="#FFFFFF" points="375.4,753 381.3,747.3 374,743.5 377.6,736.1 369.4,735 370.2,726.8 362.2,728.6 360.2,720.6      353.3,725.1 348.6,718.3 343.6,724.8 336.9,720 334.5,727.8 326.5,725.6 326.9,733.8 318.7,734.5 321.9,742 314.4,745.4      319.9,751.5 314.1,757.2 321.3,761 317.8,768.4 325.9,769.5 325.3,776.1 325.1,777.7 333.2,775.9 335.2,783.9 342.1,779.4      346.8,786.2 347.2,785.7 348.8,783.6 351.8,779.7 358.4,784.5 360.9,776.7 368.8,778.9 368.5,770.7 368.6,770.7 376.7,770.1      373.5,762.5 381,759.1    "/>
			<path d="M346.8,787.5C346.7,787.5,346.7,787.5,346.8,787.5c-0.4,0-0.8-0.2-1-0.5l-4-5.8l-5.9,3.8c-0.3,0.2-0.7,0.3-1.1,0.1     c-0.4-0.1-0.6-0.5-0.7-0.8l-1.7-6.8l-6.9,1.5c-0.4,0.1-0.8,0-1.1-0.3c-0.3-0.3-0.4-0.7-0.4-1l0.7-7l-7-0.9     c-0.4-0.1-0.7-0.3-0.9-0.6c-0.2-0.3-0.2-0.8,0-1.1l3-6.3l-6.2-3.2c-0.4-0.2-0.6-0.5-0.7-0.9c-0.1-0.4,0.1-0.8,0.4-1.1l5-4.9     l-4.8-5.2c-0.3-0.3-0.4-0.7-0.3-1.1c0.1-0.4,0.3-0.7,0.7-0.9l6.4-2.9l-2.7-6.5c-0.2-0.4-0.1-0.8,0.1-1.1c0.2-0.3,0.6-0.6,1-0.6     l7-0.5l-0.3-7c0-0.4,0.2-0.8,0.5-1c0.3-0.2,0.7-0.3,1.1-0.2l6.8,1.9l2.1-6.7c0.1-0.4,0.4-0.7,0.8-0.8c0.4-0.1,0.8-0.1,1.1,0.2     l5.7,4.1l4.3-5.6c0.2-0.3,0.6-0.5,1-0.5c0.4,0,0.8,0.2,1,0.5l4,5.8l5.9-3.8c0.3-0.2,0.8-0.3,1.1-0.1c0.4,0.1,0.6,0.5,0.7,0.8     l1.7,6.8l6.9-1.5c0.4-0.1,0.8,0,1.1,0.3c0.3,0.3,0.4,0.6,0.4,1l-0.7,7l7,0.9c0.4,0.1,0.7,0.3,0.9,0.6c0.2,0.3,0.2,0.8,0,1.1     l-3.1,6.3l6.2,3.2c0.4,0.2,0.6,0.5,0.7,0.9c0.1,0.4-0.1,0.8-0.4,1.1l-5,4.9l4.8,5.2c0.3,0.3,0.4,0.7,0.3,1.1s-0.3,0.7-0.7,0.9     l-6.4,2.9l2.7,6.5c0.2,0.4,0.1,0.8-0.1,1.1c-0.2,0.3-0.6,0.6-1,0.6l-7,0.5l0.3,7c0,0.4-0.2,0.8-0.5,1c-0.3,0.2-0.7,0.3-1.1,0.2     l-6.8-1.9l-2.1,6.7c-0.1,0.4-0.4,0.7-0.8,0.8c-0.4,0.1-0.8,0.1-1.1-0.2l-5.7-4.1l-4.3,5.6C347.5,787.3,347.1,787.5,346.8,787.5z      M342.1,778.2c0.4,0,0.8,0.2,1,0.5l3.7,5.4l4-5.2c0.4-0.5,1.2-0.6,1.7-0.3l5.3,3.8l2-6.2c0.2-0.6,0.9-1,1.5-0.8l6.3,1.8l-0.3-6.5     c0-0.7,0.5-1.2,1.1-1.3l6.5-0.5l-2.5-6c-0.3-0.6,0-1.3,0.6-1.6l5.9-2.7l-4.4-4.8c-0.5-0.5-0.4-1.3,0-1.7l4.7-4.6l-5.8-3     c-0.6-0.3-0.8-1-0.5-1.6l2.8-5.9l-6.5-0.8c-0.7-0.1-1.1-0.7-1.1-1.3l0.6-6.5l-6.4,1.4c-0.6,0.1-1.3-0.3-1.5-0.9l-1.6-6.3     l-5.5,3.5c-0.6,0.4-1.3,0.2-1.7-0.3l-3.7-5.4l-4,5.2c-0.4,0.5-1.2,0.6-1.7,0.3l-5.3-3.8l-2,6.2c-0.2,0.6-0.9,1-1.5,0.8l-6.3-1.8     l0.3,6.5c0,0.7-0.5,1.2-1.1,1.3l-6.5,0.5l2.5,6c0.3,0.6,0,1.3-0.6,1.6l-5.9,2.7l4.4,4.8c0.5,0.5,0.4,1.3,0,1.7l-4.7,4.6l5.8,3     c0.6,0.3,0.8,1,0.5,1.6l-2.8,5.9l6.5,0.8c0.7,0.1,1.1,0.7,1.1,1.3l-0.6,6.5l6.4-1.4c0.6-0.1,1.3,0.3,1.5,0.9l1.6,6.3l5.5-3.5     C341.7,778.3,341.9,778.2,342.1,778.2z"/>
		</g>
		<g>
			<path fill="#FFFFFF" d="M368.5,752.3c0,11.5-9.3,20.8-20.8,20.8c-11.5,0-20.8-9.3-20.8-20.8c0-11.5,9.3-20.8,20.8-20.8     C359.2,731.5,368.5,740.8,368.5,752.3z"/>
			<path d="M347.7,774.3c-12.1,0-22-9.9-22-22c0-12.1,9.9-22,22-22c12.1,0,22,9.9,22,22C369.7,764.4,359.8,774.3,347.7,774.3z      M347.7,732.7c-10.8,0-19.5,8.8-19.5,19.5c0,10.8,8.8,19.5,19.5,19.5c10.8,0,19.5-8.8,19.5-19.5     C367.2,741.5,358.5,732.7,347.7,732.7z"/>
		</g>
		<g>
			<circle fill="#FFFFFF" cx="250.5" cy="768.8" r="24.6"/>
			<path d="M250.5,794.6c-14.2,0-25.8-11.6-25.8-25.8c0-14.2,11.6-25.8,25.8-25.8s25.8,11.6,25.8,25.8     C276.3,783,264.7,794.6,250.5,794.6z M250.5,745.5c-12.9,0-23.3,10.5-23.3,23.3s10.5,23.3,23.3,23.3c12.9,0,23.3-10.5,23.3-23.3     S263.3,745.5,250.5,745.5z"/>
		</g>
		<g>
			<polyline fill="#FFFFFF" points="237.1,770.8 248.4,782 266.4,764    "/>
			<path d="M248.4,783.3c-0.3,0-0.6-0.1-0.9-0.4l-11.2-11.2c-0.5-0.5-0.5-1.3,0-1.7c0.5-0.5,1.3-0.5,1.7,0l10.4,10.4l17.1-17.1     c0.5-0.5,1.3-0.5,1.7,0c0.5,0.5,0.5,1.3,0,1.7l-18,18C249,783.1,248.7,783.3,248.4,783.3z"/>
		</g>
		<g>
			<path d="M289.8,860c-0.2,0-0.3,0-0.5-0.1c-19.6-8.4-51.4-8.4-71,0c-0.6,0.3-1.4,0-1.6-0.6c-0.3-0.6,0-1.4,0.6-1.6     c20.1-8.6,52.9-8.6,73,0c0.6,0.3,0.9,1,0.6,1.6C290.8,859.7,290.3,860,289.8,860z"/>
		</g>
		<g>
			<path d="M289.8,843c-0.2,0-0.3,0-0.5-0.1c-19.6-8.4-51.4-8.4-71,0c-0.6,0.3-1.4,0-1.6-0.6c-0.3-0.6,0-1.4,0.6-1.6     c20.1-8.6,52.9-8.6,73,0c0.6,0.3,0.9,1,0.6,1.6C290.8,842.7,290.3,843,289.8,843z"/>
		</g>
		<g>
			<path d="M289.8,826.1c-0.2,0-0.3,0-0.5-0.1c-19.6-8.4-51.4-8.4-71,0c-0.6,0.3-1.4,0-1.6-0.6c-0.3-0.6,0-1.4,0.6-1.6     c20.1-8.6,52.9-8.6,73,0c0.6,0.3,0.9,1,0.6,1.6C290.8,825.8,290.3,826.1,289.8,826.1z"/>
		</g>
		<g>
			<path d="M354.6,855.2c-13.7,0-27.4-2.2-37.8-6.7c-0.6-0.3-0.9-1-0.6-1.6c0.3-0.6,1-0.9,1.6-0.6c20.3,8.7,53.4,8.7,73.7,0     c0.6-0.3,1.4,0,1.6,0.6c0.3,0.6,0,1.4-0.6,1.6C382,853,368.3,855.2,354.6,855.2z"/>
		</g>
		<g>
			<path d="M354.6,869.5c-13.7,0-27.4-2.2-37.8-6.7c-0.6-0.3-0.9-1-0.6-1.6c0.3-0.6,1-0.9,1.6-0.6c20.3,8.7,53.4,8.7,73.7,0     c0.6-0.3,1.4,0,1.6,0.6c0.3,0.6,0,1.4-0.6,1.6C382,867.3,368.3,869.5,354.6,869.5z"/>
		</g>
		<g>
			<path d="M354.3,883.8c-13.7,0-27.4-2.2-37.8-6.7c-0.6-0.3-0.9-1-0.6-1.6c0.3-0.6,1-0.9,1.6-0.6c20.3,8.7,53.4,8.7,73.7,0     c0.6-0.3,1.4,0,1.6,0.6c0.3,0.6,0,1.4-0.6,1.6C381.7,881.5,368,883.8,354.3,883.8z"/>
		</g>
	</g>
	<g>
		<path d="M204.5,765.3H117c-0.7,0-1.2-0.6-1.2-1.2s0.6-1.2,1.2-1.2h87.4c0.7,0,1.2,0.6,1.2,1.2S205.1,765.3,204.5,765.3z"/>
	</g>
	<g>
		<path d="M204.5,815H117c-0.7,0-1.2-0.6-1.2-1.2s0.6-1.2,1.2-1.2h87.4c0.7,0,1.2,0.6,1.2,1.2S205.1,815,204.5,815z"/>
	</g>
	<g>
		<path d="M630.7,826.1h-27.2c-0.7,0-1.2-0.6-1.2-1.2s0.6-1.2,1.2-1.2h27.2c0.7,0,1.2,0.6,1.2,1.2S631.4,826.1,630.7,826.1z"/>
	</g>
	<g>
		<path d="M713.4,826.1h-58.8c-0.7,0-1.2-0.6-1.2-1.2s0.6-1.2,1.2-1.2h58.8c0.7,0,1.2,0.6,1.2,1.2S714,826.1,713.4,826.1z"/>
	</g>
	<g>
		<path d="M204.5,864.8H117c-0.7,0-1.2-0.6-1.2-1.2s0.6-1.2,1.2-1.2h87.4c0.7,0,1.2,0.6,1.2,1.2S205.1,864.8,204.5,864.8z"/>
	</g>
</g>
</svg>
