<?xml version="1.0" encoding="UTF-8"?>
<svg xmlns="http://www.w3.org/2000/svg" xmlns:xlink="http://www.w3.org/1999/xlink" width="2500" height="1600" viewBox="0 0 2500 1600">
<defs>
<clipPath id="clip-0">

</clipPath>
<clipPath id="clip-1">
<path clip-rule="nonzero" d="M 1571.921875 1484.328125 C 1571.921875 1488.78125 1356.089844 1492.378906 1089.859375 1492.378906 C 823.621094 1492.378906 607.796875 1488.78125 607.796875 1484.328125 C 607.796875 1479.890625 823.621094 1476.28125 1089.859375 1476.28125 C 1356.089844 1476.28125 1571.921875 1479.890625 1571.921875 1484.328125 Z M 1571.921875 1484.328125 "/>
</clipPath>
<clipPath id="clip-2">
<path clip-rule="nonzero" d="M 1571.921875 1484.328125 C 1571.921875 1488.78125 1356.089844 1492.378906 1089.859375 1492.378906 C 823.621094 1492.378906 607.796875 1488.78125 607.796875 1484.328125 C 607.796875 1479.890625 823.621094 1476.28125 1089.859375 1476.28125 C 1356.089844 1476.28125 1571.921875 1479.890625 1571.921875 1484.328125 "/>
</clipPath>
<linearGradient id="linear-pattern-0" gradientUnits="userSpaceOnUse" x1="0.205343" y1="0" x2="0.40697" y2="0" gradientTransform="matrix(-5.81551, 211.297, -211.297, -5.81551, 1091.64, 1419.64)">
<stop offset="0" stop-color="rgb(91.230774%, 86.708069%, 81.401062%)" stop-opacity="1"/>
<stop offset="0.0625" stop-color="rgb(91.116333%, 86.576843%, 81.251526%)" stop-opacity="1"/>
<stop offset="0.125" stop-color="rgb(90.888977%, 86.314392%, 80.957031%)" stop-opacity="1"/>
<stop offset="0.1875" stop-color="rgb(90.663147%, 86.056519%, 80.664062%)" stop-opacity="1"/>
<stop offset="0.25" stop-color="rgb(90.440369%, 85.800171%, 80.375671%)" stop-opacity="1"/>
<stop offset="0.3125" stop-color="rgb(90.220642%, 85.548401%, 80.090332%)" stop-opacity="1"/>
<stop offset="0.375" stop-color="rgb(90.003967%, 85.298157%, 79.80957%)" stop-opacity="1"/>
<stop offset="0.4375" stop-color="rgb(89.788818%, 85.05249%, 79.530334%)" stop-opacity="1"/>
<stop offset="0.5" stop-color="rgb(89.578247%, 84.80835%, 79.255676%)" stop-opacity="1"/>
<stop offset="0.5625" stop-color="rgb(89.369202%, 84.568787%, 78.985596%)" stop-opacity="1"/>
<stop offset="0.625" stop-color="rgb(89.161682%, 84.332275%, 78.718567%)" stop-opacity="1"/>
<stop offset="0.6875" stop-color="rgb(88.95874%, 84.098816%, 78.45459%)" stop-opacity="1"/>
<stop offset="0.75" stop-color="rgb(88.75885%, 83.868408%, 78.193665%)" stop-opacity="1"/>
<stop offset="0.8125" stop-color="rgb(88.560486%, 83.642578%, 77.938843%)" stop-opacity="1"/>
<stop offset="0.875" stop-color="rgb(88.366699%, 83.418274%, 77.687073%)" stop-opacity="1"/>
<stop offset="0.9375" stop-color="rgb(88.175964%, 83.198547%, 77.438354%)" stop-opacity="1"/>
<stop offset="1" stop-color="rgb(87.988281%, 82.983398%, 77.19574%)" stop-opacity="1"/>
</linearGradient>
<clipPath id="clip-3">
<path clip-rule="nonzero" d="M 1095 1291 L 1246 1291 L 1246 1430 L 1095 1430 Z M 1095 1291 "/>
</clipPath>
<clipPath id="clip-4">
<path clip-rule="nonzero" d="M 1516.828125 971.472656 C 1507.921875 942.429688 1543.238281 759.597656 1543.238281 759.597656 C 1426.71875 759.597656 1015.421875 751.921875 994.953125 759.597656 C 985.226562 763.242188 963.101562 918.835938 929.273438 1127.398438 L 927.828125 1127.199219 L 851.503906 1484.328125 L 1180.820312 1484.328125 C 1180.820312 1484.328125 1213.328125 1322.25 1217.648438 1315.179688 C 1221.980469 1308.121094 1310.839844 1326.488281 1414.03125 1326.488281 C 1487.53125 1326.488281 1499.03125 1204.75 1499.03125 1204.75 C 1501.609375 1184.679688 1503.359375 1169.878906 1503.359375 1169.878906 C 1504.441406 1154.660156 1512.871094 1136.859375 1512.871094 1136.859375 C 1512.71875 1132.199219 1520.648438 1133.359375 1531.980469 1134.53125 C 1545.390625 1135.910156 1563.558594 1137.289062 1578.738281 1129.011719 C 1606.738281 1113.730469 1525.738281 1000.519531 1516.828125 971.472656 "/>
</clipPath>
<clipPath id="clip-5">
<path clip-rule="nonzero" d="M 967 330 L 1154 330 L 1154 517 L 967 517 Z M 967 330 "/>
</clipPath>
<clipPath id="clip-6">
<path clip-rule="nonzero" d="M 1043.261719 461.371094 C 1022.570312 451.910156 1013.421875 427.390625 1022.871094 406.691406 C 1032.328125 385.988281 1056.851562 376.851562 1077.550781 386.300781 C 1098.25 395.75 1107.390625 420.28125 1097.941406 440.980469 C 1088.488281 461.671875 1063.960938 470.820312 1043.261719 461.371094 Z M 1134.621094 431.371094 C 1134.949219 428.140625 1135.070312 424.910156 1134.96875 421.710938 C 1138.269531 420.488281 1141.578125 419.28125 1144.910156 418.121094 C 1149.828125 416.421875 1155.210938 413.019531 1152.96875 407.011719 L 1141.820312 377.101562 C 1138.769531 368.941406 1127.710938 372.421875 1118.210938 376.691406 C 1116.179688 374.199219 1113.980469 371.828125 1111.628906 369.601562 C 1113.101562 366.410156 1114.589844 363.21875 1116.121094 360.050781 C 1118.390625 355.359375 1119.789062 349.148438 1113.960938 346.488281 L 1084.929688 333.230469 C 1077.011719 329.609375 1071.640625 339.878906 1067.949219 349.621094 C 1064.71875 349.300781 1061.488281 349.179688 1058.28125 349.269531 C 1057.058594 345.96875 1055.851562 342.660156 1054.699219 339.328125 C 1052.988281 334.410156 1049.589844 329.039062 1043.589844 331.269531 L 1013.679688 342.429688 C 1005.519531 345.46875 1008.988281 356.53125 1013.261719 366.03125 C 1010.769531 368.058594 1008.410156 370.261719 1006.179688 372.621094 C 1002.980469 371.140625 999.789062 369.660156 996.617188 368.121094 C 991.933594 365.851562 985.722656 364.449219 983.0625 370.28125 L 969.800781 399.308594 C 966.183594 407.230469 976.453125 412.601562 986.195312 416.300781 C 985.871094 419.53125 985.75 422.761719 985.847656 425.960938 C 982.542969 427.179688 979.234375 428.390625 975.90625 429.539062 C 970.988281 431.25 965.609375 434.648438 967.847656 440.648438 L 979 470.570312 C 982.042969 478.730469 993.101562 475.25 1002.609375 470.980469 C 1004.628906 473.46875 1006.828125 475.828125 1009.191406 478.070312 C 1007.710938 481.261719 1006.230469 484.449219 1004.691406 487.621094 C 1002.421875 492.308594 1001.019531 498.519531 1006.851562 501.179688 L 1035.890625 514.441406 C 1043.808594 518.058594 1049.171875 507.789062 1052.871094 498.050781 C 1056.101562 498.371094 1059.328125 498.488281 1062.539062 498.390625 C 1063.75 501.699219 1064.960938 505.011719 1066.121094 508.339844 C 1067.828125 513.261719 1071.230469 518.628906 1077.230469 516.390625 L 1107.140625 505.238281 C 1115.300781 502.199219 1111.828125 491.140625 1107.550781 481.640625 C 1110.039062 479.609375 1112.410156 477.410156 1114.640625 475.050781 C 1117.828125 476.53125 1121.03125 478.011719 1124.199219 479.550781 C 1128.878906 481.820312 1135.089844 483.21875 1137.75 477.390625 L 1151.011719 448.351562 C 1154.628906 440.429688 1144.359375 435.070312 1134.621094 431.371094 Z M 1134.621094 431.371094 "/>
</clipPath>
<clipPath id="clip-7">
<path clip-rule="nonzero" d="M 1043.261719 461.371094 C 1022.570312 451.910156 1013.421875 427.390625 1022.871094 406.691406 C 1032.328125 385.988281 1056.851562 376.851562 1077.550781 386.300781 C 1098.25 395.75 1107.390625 420.28125 1097.941406 440.980469 C 1088.488281 461.671875 1063.960938 470.820312 1043.261719 461.371094 Z M 1134.621094 431.371094 C 1134.949219 428.140625 1135.070312 424.910156 1134.96875 421.710938 C 1138.269531 420.488281 1141.578125 419.28125 1144.910156 418.121094 C 1149.828125 416.421875 1155.210938 413.019531 1152.96875 407.011719 L 1141.820312 377.101562 C 1138.769531 368.941406 1127.710938 372.421875 1118.210938 376.691406 C 1116.179688 374.199219 1113.980469 371.828125 1111.628906 369.601562 C 1113.101562 366.410156 1114.589844 363.21875 1116.121094 360.050781 C 1118.390625 355.359375 1119.789062 349.148438 1113.960938 346.488281 L 1084.929688 333.230469 C 1077.011719 329.609375 1071.640625 339.878906 1067.949219 349.621094 C 1064.71875 349.300781 1061.488281 349.179688 1058.28125 349.269531 C 1057.058594 345.96875 1055.851562 342.660156 1054.699219 339.328125 C 1052.988281 334.410156 1049.589844 329.039062 1043.589844 331.269531 L 1013.679688 342.429688 C 1005.519531 345.46875 1008.988281 356.53125 1013.261719 366.03125 C 1010.769531 368.058594 1008.410156 370.261719 1006.179688 372.621094 C 1002.980469 371.140625 999.789062 369.660156 996.617188 368.121094 C 991.933594 365.851562 985.722656 364.449219 983.0625 370.28125 L 969.800781 399.308594 C 966.183594 407.230469 976.453125 412.601562 986.195312 416.300781 C 985.871094 419.53125 985.75 422.761719 985.847656 425.960938 C 982.542969 427.179688 979.234375 428.390625 975.90625 429.539062 C 970.988281 431.25 965.609375 434.648438 967.847656 440.648438 L 979 470.570312 C 982.042969 478.730469 993.101562 475.25 1002.609375 470.980469 C 1004.628906 473.46875 1006.828125 475.828125 1009.191406 478.070312 C 1007.710938 481.261719 1006.230469 484.449219 1004.691406 487.621094 C 1002.421875 492.308594 1001.019531 498.519531 1006.851562 501.179688 L 1035.890625 514.441406 C 1043.808594 518.058594 1049.171875 507.789062 1052.871094 498.050781 C 1056.101562 498.371094 1059.328125 498.488281 1062.539062 498.390625 C 1063.75 501.699219 1064.960938 505.011719 1066.121094 508.339844 C 1067.828125 513.261719 1071.230469 518.628906 1077.230469 516.390625 L 1107.140625 505.238281 C 1115.300781 502.199219 1111.828125 491.140625 1107.550781 481.640625 C 1110.039062 479.609375 1112.410156 477.410156 1114.640625 475.050781 C 1117.828125 476.53125 1121.03125 478.011719 1124.199219 479.550781 C 1128.878906 481.820312 1135.089844 483.21875 1137.75 477.390625 L 1151.011719 448.351562 C 1154.628906 440.429688 1144.359375 435.070312 1134.621094 431.371094 "/>
</clipPath>
<linearGradient id="linear-pattern-1" gradientUnits="userSpaceOnUse" x1="0.0504608" y1="0" x2="0.746783" y2="0" gradientTransform="matrix(90.8917, 323.275, -323.275, 90.8917, 1024.18, 294.97)">
<stop offset="0" stop-color="rgb(94.239807%, 90.162659%, 85.301208%)" stop-opacity="1"/>
<stop offset="0.015625" stop-color="rgb(94.128418%, 90.034485%, 85.15625%)" stop-opacity="1"/>
<stop offset="0.03125" stop-color="rgb(93.907166%, 89.779663%, 84.869385%)" stop-opacity="1"/>
<stop offset="0.046875" stop-color="rgb(93.687439%, 89.526367%, 84.584045%)" stop-opacity="1"/>
<stop offset="0.0625" stop-color="rgb(93.467712%, 89.276123%, 84.300232%)" stop-opacity="1"/>
<stop offset="0.078125" stop-color="rgb(93.251038%, 89.027405%, 84.01947%)" stop-opacity="1"/>
<stop offset="0.09375" stop-color="rgb(93.035889%, 88.780212%, 83.740234%)" stop-opacity="1"/>
<stop offset="0.109375" stop-color="rgb(92.822266%, 88.536072%, 83.46405%)" stop-opacity="1"/>
<stop offset="0.125" stop-color="rgb(92.611694%, 88.291931%, 83.189392%)" stop-opacity="1"/>
<stop offset="0.140625" stop-color="rgb(92.401123%, 88.050842%, 82.917786%)" stop-opacity="1"/>
<stop offset="0.15625" stop-color="rgb(92.193604%, 87.812805%, 82.647705%)" stop-opacity="1"/>
<stop offset="0.171875" stop-color="rgb(91.986084%, 87.574768%, 82.37915%)" stop-opacity="1"/>
<stop offset="0.1875" stop-color="rgb(91.781616%, 87.339783%, 82.113647%)" stop-opacity="1"/>
<stop offset="0.203125" stop-color="rgb(91.578674%, 87.107849%, 81.851196%)" stop-opacity="1"/>
<stop offset="0.21875" stop-color="rgb(91.377258%, 86.875916%, 81.590271%)" stop-opacity="1"/>
<stop offset="0.234375" stop-color="rgb(91.178894%, 86.647034%, 81.332397%)" stop-opacity="1"/>
<stop offset="0.25" stop-color="rgb(90.98053%, 86.421204%, 81.07605%)" stop-opacity="1"/>
<stop offset="0.265625" stop-color="rgb(90.785217%, 86.196899%, 80.822754%)" stop-opacity="1"/>
<stop offset="0.28125" stop-color="rgb(90.592957%, 85.974121%, 80.57251%)" stop-opacity="1"/>
<stop offset="0.296875" stop-color="rgb(90.400696%, 85.754395%, 80.323792%)" stop-opacity="1"/>
<stop offset="0.3125" stop-color="rgb(90.211487%, 85.536194%, 80.078125%)" stop-opacity="1"/>
<stop offset="0.328125" stop-color="rgb(90.023804%, 85.321045%, 79.833984%)" stop-opacity="1"/>
<stop offset="0.34375" stop-color="rgb(89.837646%, 85.107422%, 79.592896%)" stop-opacity="1"/>
<stop offset="0.359375" stop-color="rgb(89.654541%, 84.896851%, 79.354858%)" stop-opacity="1"/>
<stop offset="0.375" stop-color="rgb(89.472961%, 84.689331%, 79.119873%)" stop-opacity="1"/>
<stop offset="0.390625" stop-color="rgb(89.292908%, 84.483337%, 78.887939%)" stop-opacity="1"/>
<stop offset="0.40625" stop-color="rgb(89.115906%, 84.27887%, 78.657532%)" stop-opacity="1"/>
<stop offset="0.421875" stop-color="rgb(88.94043%, 84.077454%, 78.431702%)" stop-opacity="1"/>
<stop offset="0.4375" stop-color="rgb(88.768005%, 83.879089%, 78.207397%)" stop-opacity="1"/>
<stop offset="0.453125" stop-color="rgb(88.597107%, 83.683777%, 77.986145%)" stop-opacity="1"/>
<stop offset="0.46875" stop-color="rgb(88.42926%, 83.48999%, 77.767944%)" stop-opacity="1"/>
<stop offset="0.484375" stop-color="rgb(88.262939%, 83.299255%, 77.552795%)" stop-opacity="1"/>
<stop offset="0.5" stop-color="rgb(88.098145%, 83.111572%, 77.339172%)" stop-opacity="1"/>
<stop offset="0.515625" stop-color="rgb(87.936401%, 82.925415%, 77.130127%)" stop-opacity="1"/>
<stop offset="0.53125" stop-color="rgb(87.77771%, 82.743835%, 76.924133%)" stop-opacity="1"/>
<stop offset="0.546875" stop-color="rgb(87.62207%, 82.563782%, 76.721191%)" stop-opacity="1"/>
<stop offset="0.5625" stop-color="rgb(87.467957%, 82.38678%, 76.522827%)" stop-opacity="1"/>
<stop offset="0.59375" stop-color="rgb(87.242126%, 82.128906%, 76.229858%)" stop-opacity="1"/>
<stop offset="0.625" stop-color="rgb(86.950684%, 81.793213%, 75.85144%)" stop-opacity="1"/>
<stop offset="0.65625" stop-color="rgb(86.671448%, 81.471252%, 75.488281%)" stop-opacity="1"/>
<stop offset="0.6875" stop-color="rgb(86.401367%, 81.163025%, 75.138855%)" stop-opacity="1"/>
<stop offset="0.71875" stop-color="rgb(86.14502%, 80.86853%, 74.807739%)" stop-opacity="1"/>
<stop offset="0.75" stop-color="rgb(85.902405%, 80.589294%, 74.493408%)" stop-opacity="1"/>
<stop offset="0.78125" stop-color="rgb(85.673523%, 80.326843%, 74.197388%)" stop-opacity="1"/>
<stop offset="0.8125" stop-color="rgb(85.461426%, 80.082703%, 73.921204%)" stop-opacity="1"/>
<stop offset="0.84375" stop-color="rgb(85.266113%, 79.858398%, 73.666382%)" stop-opacity="1"/>
<stop offset="0.875" stop-color="rgb(85.089111%, 79.655457%, 73.4375%)" stop-opacity="1"/>
<stop offset="1" stop-color="rgb(84.855652%, 79.386902%, 73.135376%)" stop-opacity="1"/>
</linearGradient>
<clipPath id="clip-8">
<path clip-rule="nonzero" d="M 1040 405 L 1081 405 L 1081 445 L 1040 445 Z M 1040 405 "/>
</clipPath>
<clipPath id="clip-9">
<path clip-rule="nonzero" d="M 1068.988281 407.078125 C 1059.050781 402.550781 1047.320312 406.921875 1042.78125 416.859375 C 1038.238281 426.789062 1042.621094 438.53125 1052.550781 443.058594 C 1062.488281 447.601562 1074.21875 443.230469 1078.761719 433.289062 C 1083.300781 423.359375 1078.921875 411.621094 1068.988281 407.078125 Z M 1068.988281 407.078125 "/>
</clipPath>
<clipPath id="clip-10">
<path clip-rule="nonzero" d="M 1068.988281 407.078125 C 1059.050781 402.550781 1047.320312 406.921875 1042.78125 416.859375 C 1038.238281 426.789062 1042.621094 438.53125 1052.550781 443.058594 C 1062.488281 447.601562 1074.21875 443.230469 1078.761719 433.289062 C 1083.300781 423.359375 1078.921875 411.621094 1068.988281 407.078125 "/>
</clipPath>
<linearGradient id="linear-pattern-2" gradientUnits="userSpaceOnUse" x1="0.319727" y1="0" x2="0.485191" y2="0" gradientTransform="matrix(90.8917, 323.275, -323.275, 90.8917, 1024.19, 294.97)">
<stop offset="0" stop-color="rgb(89.248657%, 84.431458%, 78.829956%)" stop-opacity="1"/>
<stop offset="0.0625" stop-color="rgb(89.164734%, 84.335327%, 78.721619%)" stop-opacity="1"/>
<stop offset="0.125" stop-color="rgb(88.996887%, 84.143066%, 78.504944%)" stop-opacity="1"/>
<stop offset="0.1875" stop-color="rgb(88.832092%, 83.953857%, 78.289795%)" stop-opacity="1"/>
<stop offset="0.25" stop-color="rgb(88.668823%, 83.766174%, 78.079224%)" stop-opacity="1"/>
<stop offset="0.3125" stop-color="rgb(88.50708%, 83.581543%, 77.870178%)" stop-opacity="1"/>
<stop offset="0.375" stop-color="rgb(88.348389%, 83.398438%, 77.664185%)" stop-opacity="1"/>
<stop offset="0.4375" stop-color="rgb(88.192749%, 83.218384%, 77.461243%)" stop-opacity="1"/>
<stop offset="0.5" stop-color="rgb(88.037109%, 83.041382%, 77.259827%)" stop-opacity="1"/>
<stop offset="0.625" stop-color="rgb(87.809753%, 82.780457%, 76.965332%)" stop-opacity="1"/>
<stop offset="0.75" stop-color="rgb(87.513733%, 82.440186%, 76.582336%)" stop-opacity="1"/>
<stop offset="0.875" stop-color="rgb(87.226868%, 82.110596%, 76.210022%)" stop-opacity="1"/>
<stop offset="1" stop-color="rgb(86.950684%, 81.791687%, 75.849915%)" stop-opacity="1"/>
</linearGradient>
<clipPath id="clip-11">
<path clip-rule="nonzero" d="M 1152 229 L 1407 229 L 1407 484 L 1152 484 Z M 1152 229 "/>
</clipPath>
<clipPath id="clip-12">
<path clip-rule="nonzero" d="M 1256.371094 407.578125 C 1228.171875 394.699219 1215.699219 361.269531 1228.589844 333.058594 C 1241.46875 304.851562 1274.898438 292.378906 1303.109375 305.269531 C 1331.308594 318.148438 1343.78125 351.578125 1330.898438 379.789062 C 1318.011719 408 1284.578125 420.460938 1256.371094 407.578125 Z M 1380.890625 366.699219 C 1381.328125 362.300781 1381.488281 357.898438 1381.359375 353.519531 C 1385.871094 351.871094 1390.371094 350.21875 1394.910156 348.640625 C 1401.609375 346.308594 1408.949219 341.679688 1405.890625 333.5 L 1390.691406 292.730469 C 1386.550781 281.609375 1371.46875 286.339844 1358.519531 292.171875 C 1355.761719 288.769531 1352.761719 285.550781 1349.550781 282.511719 C 1351.558594 278.160156 1353.578125 273.808594 1355.671875 269.480469 C 1358.769531 263.101562 1360.679688 254.640625 1352.730469 251.011719 L 1313.160156 232.929688 C 1302.359375 228 1295.050781 242 1290.011719 255.28125 C 1285.609375 254.828125 1281.210938 254.671875 1276.839844 254.800781 C 1275.179688 250.300781 1273.53125 245.789062 1271.960938 241.261719 C 1269.628906 234.550781 1265 227.21875 1256.820312 230.269531 L 1216.050781 245.46875 C 1204.929688 249.621094 1209.660156 264.691406 1215.480469 277.640625 C 1212.089844 280.410156 1208.871094 283.398438 1205.828125 286.621094 C 1201.46875 284.601562 1197.121094 282.578125 1192.800781 280.488281 C 1186.410156 277.398438 1177.949219 275.488281 1174.320312 283.429688 L 1156.25 323.011719 C 1151.320312 333.800781 1165.320312 341.109375 1178.589844 346.148438 C 1178.148438 350.550781 1177.988281 354.949219 1178.121094 359.328125 C 1173.609375 360.980469 1169.109375 362.628906 1164.570312 364.210938 C 1157.871094 366.539062 1150.539062 371.171875 1153.589844 379.351562 L 1168.789062 420.121094 C 1172.941406 431.238281 1188.011719 426.511719 1200.960938 420.679688 C 1203.71875 424.070312 1206.71875 427.300781 1209.929688 430.339844 C 1207.921875 434.691406 1205.898438 439.050781 1203.800781 443.359375 C 1200.710938 449.75 1198.808594 458.210938 1206.75 461.839844 L 1246.320312 479.910156 C 1257.121094 484.851562 1264.429688 470.851562 1269.46875 457.570312 C 1273.871094 458.011719 1278.269531 458.179688 1282.640625 458.050781 C 1284.300781 462.550781 1285.949219 467.058594 1287.519531 471.589844 C 1289.851562 478.300781 1294.488281 485.628906 1302.660156 482.578125 L 1343.429688 467.378906 C 1354.550781 463.230469 1349.820312 448.160156 1343.988281 435.210938 C 1347.390625 432.441406 1350.609375 429.449219 1353.648438 426.230469 C 1358.011719 428.25 1362.359375 430.269531 1366.679688 432.359375 C 1373.070312 435.449219 1381.53125 437.359375 1385.148438 429.421875 L 1403.230469 389.839844 C 1408.160156 379.050781 1394.160156 371.738281 1380.890625 366.699219 Z M 1380.890625 366.699219 "/>
</clipPath>
<clipPath id="clip-13">
<path clip-rule="nonzero" d="M 1256.371094 407.578125 C 1228.171875 394.699219 1215.699219 361.269531 1228.589844 333.058594 C 1241.46875 304.851562 1274.898438 292.378906 1303.109375 305.269531 C 1331.308594 318.148438 1343.78125 351.578125 1330.898438 379.789062 C 1318.011719 408 1284.578125 420.460938 1256.371094 407.578125 Z M 1380.890625 366.699219 C 1381.328125 362.300781 1381.488281 357.898438 1381.359375 353.519531 C 1385.871094 351.871094 1390.371094 350.21875 1394.910156 348.640625 C 1401.609375 346.308594 1408.949219 341.679688 1405.890625 333.5 L 1390.691406 292.730469 C 1386.550781 281.609375 1371.46875 286.339844 1358.519531 292.171875 C 1355.761719 288.769531 1352.761719 285.550781 1349.550781 282.511719 C 1351.558594 278.160156 1353.578125 273.808594 1355.671875 269.480469 C 1358.769531 263.101562 1360.679688 254.640625 1352.730469 251.011719 L 1313.160156 232.929688 C 1302.359375 228 1295.050781 242 1290.011719 255.28125 C 1285.609375 254.828125 1281.210938 254.671875 1276.839844 254.800781 C 1275.179688 250.300781 1273.53125 245.789062 1271.960938 241.261719 C 1269.628906 234.550781 1265 227.21875 1256.820312 230.269531 L 1216.050781 245.46875 C 1204.929688 249.621094 1209.660156 264.691406 1215.480469 277.640625 C 1212.089844 280.410156 1208.871094 283.398438 1205.828125 286.621094 C 1201.46875 284.601562 1197.121094 282.578125 1192.800781 280.488281 C 1186.410156 277.398438 1177.949219 275.488281 1174.320312 283.429688 L 1156.25 323.011719 C 1151.320312 333.800781 1165.320312 341.109375 1178.589844 346.148438 C 1178.148438 350.550781 1177.988281 354.949219 1178.121094 359.328125 C 1173.609375 360.980469 1169.109375 362.628906 1164.570312 364.210938 C 1157.871094 366.539062 1150.539062 371.171875 1153.589844 379.351562 L 1168.789062 420.121094 C 1172.941406 431.238281 1188.011719 426.511719 1200.960938 420.679688 C 1203.71875 424.070312 1206.71875 427.300781 1209.929688 430.339844 C 1207.921875 434.691406 1205.898438 439.050781 1203.800781 443.359375 C 1200.710938 449.75 1198.808594 458.210938 1206.75 461.839844 L 1246.320312 479.910156 C 1257.121094 484.851562 1264.429688 470.851562 1269.46875 457.570312 C 1273.871094 458.011719 1278.269531 458.179688 1282.640625 458.050781 C 1284.300781 462.550781 1285.949219 467.058594 1287.519531 471.589844 C 1289.851562 478.300781 1294.488281 485.628906 1302.660156 482.578125 L 1343.429688 467.378906 C 1354.550781 463.230469 1349.820312 448.160156 1343.988281 435.210938 C 1347.390625 432.441406 1350.609375 429.449219 1353.648438 426.230469 C 1358.011719 428.25 1362.359375 430.269531 1366.679688 432.359375 C 1373.070312 435.449219 1381.53125 437.359375 1385.148438 429.421875 L 1403.230469 389.839844 C 1408.160156 379.050781 1394.160156 371.738281 1380.890625 366.699219 "/>
</clipPath>
<linearGradient id="linear-pattern-3" gradientUnits="userSpaceOnUse" x1="-0.0437211" y1="0" x2="0.799878" y2="0" gradientTransform="matrix(-191.554, 366.329, -366.329, -191.554, 1352.16, 217.92)">
<stop offset="0" stop-color="rgb(95.292664%, 91.371155%, 86.665344%)" stop-opacity="1"/>
<stop offset="0.0625" stop-color="rgb(95.198059%, 91.261292%, 86.541748%)" stop-opacity="1"/>
<stop offset="0.078125" stop-color="rgb(94.9646%, 90.994263%, 86.239624%)" stop-opacity="1"/>
<stop offset="0.09375" stop-color="rgb(94.688416%, 90.67688%, 85.882568%)" stop-opacity="1"/>
<stop offset="0.109375" stop-color="rgb(94.415283%, 90.364075%, 85.527039%)" stop-opacity="1"/>
<stop offset="0.125" stop-color="rgb(94.143677%, 90.052795%, 85.176086%)" stop-opacity="1"/>
<stop offset="0.140625" stop-color="rgb(93.875122%, 89.744568%, 84.828186%)" stop-opacity="1"/>
<stop offset="0.15625" stop-color="rgb(93.609619%, 89.437866%, 84.483337%)" stop-opacity="1"/>
<stop offset="0.171875" stop-color="rgb(93.345642%, 89.135742%, 84.141541%)" stop-opacity="1"/>
<stop offset="0.1875" stop-color="rgb(93.084717%, 88.83667%, 83.802795%)" stop-opacity="1"/>
<stop offset="0.203125" stop-color="rgb(92.825317%, 88.539124%, 83.467102%)" stop-opacity="1"/>
<stop offset="0.21875" stop-color="rgb(92.56897%, 88.244629%, 83.13446%)" stop-opacity="1"/>
<stop offset="0.234375" stop-color="rgb(92.315674%, 87.953186%, 82.806396%)" stop-opacity="1"/>
<stop offset="0.25" stop-color="rgb(92.06543%, 87.664795%, 82.481384%)" stop-opacity="1"/>
<stop offset="0.265625" stop-color="rgb(91.816711%, 87.379456%, 82.157898%)" stop-opacity="1"/>
<stop offset="0.28125" stop-color="rgb(91.569519%, 87.097168%, 81.838989%)" stop-opacity="1"/>
<stop offset="0.296875" stop-color="rgb(91.326904%, 86.817932%, 81.524658%)" stop-opacity="1"/>
<stop offset="0.3125" stop-color="rgb(91.085815%, 86.541748%, 81.211853%)" stop-opacity="1"/>
<stop offset="0.328125" stop-color="rgb(90.847778%, 86.268616%, 80.903625%)" stop-opacity="1"/>
<stop offset="0.34375" stop-color="rgb(90.612793%, 85.998535%, 80.599976%)" stop-opacity="1"/>
<stop offset="0.359375" stop-color="rgb(90.380859%, 85.731506%, 80.299377%)" stop-opacity="1"/>
<stop offset="0.375" stop-color="rgb(90.151978%, 85.469055%, 80.001831%)" stop-opacity="1"/>
<stop offset="0.390625" stop-color="rgb(89.926147%, 85.20813%, 79.707336%)" stop-opacity="1"/>
<stop offset="0.40625" stop-color="rgb(89.701843%, 84.951782%, 79.418945%)" stop-opacity="1"/>
<stop offset="0.421875" stop-color="rgb(89.482117%, 84.700012%, 79.133606%)" stop-opacity="1"/>
<stop offset="0.4375" stop-color="rgb(89.263916%, 84.449768%, 78.851318%)" stop-opacity="1"/>
<stop offset="0.453125" stop-color="rgb(89.050293%, 84.204102%, 78.573608%)" stop-opacity="1"/>
<stop offset="0.46875" stop-color="rgb(88.839722%, 83.961487%, 78.300476%)" stop-opacity="1"/>
<stop offset="0.484375" stop-color="rgb(88.632202%, 83.72345%, 78.030396%)" stop-opacity="1"/>
<stop offset="0.5" stop-color="rgb(88.427734%, 83.488464%, 77.766418%)" stop-opacity="1"/>
<stop offset="0.515625" stop-color="rgb(88.226318%, 83.258057%, 77.505493%)" stop-opacity="1"/>
<stop offset="0.53125" stop-color="rgb(88.02948%, 83.030701%, 77.249146%)" stop-opacity="1"/>
<stop offset="0.546875" stop-color="rgb(87.835693%, 82.809448%, 76.997375%)" stop-opacity="1"/>
<stop offset="0.5625" stop-color="rgb(87.644958%, 82.591248%, 76.751709%)" stop-opacity="1"/>
<stop offset="0.578125" stop-color="rgb(87.458801%, 82.376099%, 76.509094%)" stop-opacity="1"/>
<stop offset="0.59375" stop-color="rgb(87.275696%, 82.167053%, 76.272583%)" stop-opacity="1"/>
<stop offset="0.609375" stop-color="rgb(87.097168%, 81.96106%, 76.040649%)" stop-opacity="1"/>
<stop offset="0.625" stop-color="rgb(86.921692%, 81.761169%, 75.813293%)" stop-opacity="1"/>
<stop offset="0.640625" stop-color="rgb(86.750793%, 81.564331%, 75.592041%)" stop-opacity="1"/>
<stop offset="0.65625" stop-color="rgb(86.584473%, 81.373596%, 75.376892%)" stop-opacity="1"/>
<stop offset="0.671875" stop-color="rgb(86.422729%, 81.187439%, 75.167847%)" stop-opacity="1"/>
<stop offset="0.6875" stop-color="rgb(86.265564%, 81.005859%, 74.963379%)" stop-opacity="1"/>
<stop offset="0.71875" stop-color="rgb(86.039734%, 80.747986%, 74.67041%)" stop-opacity="1"/>
<stop offset="0.75" stop-color="rgb(85.75592%, 80.419922%, 74.301147%)" stop-opacity="1"/>
<stop offset="0.78125" stop-color="rgb(85.491943%, 80.117798%, 73.960876%)" stop-opacity="1"/>
<stop offset="0.8125" stop-color="rgb(85.253906%, 79.844666%, 73.652649%)" stop-opacity="1"/>
<stop offset="0.84375" stop-color="rgb(85.044861%, 79.605103%, 73.382568%)" stop-opacity="1"/>
<stop offset="0.875" stop-color="rgb(84.872437%, 79.406738%, 73.156738%)" stop-opacity="1"/>
<stop offset="1" stop-color="rgb(84.750366%, 79.266357%, 72.998047%)" stop-opacity="1"/>
</linearGradient>
<clipPath id="clip-14">
<path clip-rule="nonzero" d="M 1253 331 L 1308 331 L 1308 386 L 1253 386 Z M 1253 331 "/>
</clipPath>
<clipPath id="clip-15">
<path clip-rule="nonzero" d="M 1291.429688 333.601562 C 1277.890625 327.410156 1261.898438 333.371094 1255.71875 346.921875 C 1249.53125 360.460938 1255.5 376.449219 1269.039062 382.628906 C 1282.578125 388.820312 1298.570312 382.851562 1304.75 369.308594 C 1310.941406 355.769531 1304.96875 339.78125 1291.429688 333.601562 Z M 1291.429688 333.601562 "/>
</clipPath>
<clipPath id="clip-16">
<path clip-rule="nonzero" d="M 1291.429688 333.601562 C 1277.890625 327.410156 1261.898438 333.371094 1255.71875 346.921875 C 1249.53125 360.460938 1255.5 376.449219 1269.039062 382.628906 C 1282.578125 388.820312 1298.570312 382.851562 1304.75 369.308594 C 1310.941406 355.769531 1304.96875 339.78125 1291.429688 333.601562 "/>
</clipPath>
<linearGradient id="linear-pattern-4" gradientUnits="userSpaceOnUse" x1="0.280935" y1="0" x2="0.481412" y2="0" gradientTransform="matrix(-191.554, 366.329, -366.329, -191.554, 1353.25, 218.48)">
<stop offset="0" stop-color="rgb(89.897156%, 85.174561%, 79.669189%)" stop-opacity="1"/>
<stop offset="0.0625" stop-color="rgb(89.790344%, 85.05249%, 79.53186%)" stop-opacity="1"/>
<stop offset="0.125" stop-color="rgb(89.579773%, 84.811401%, 79.258728%)" stop-opacity="1"/>
<stop offset="0.1875" stop-color="rgb(89.370728%, 84.571838%, 78.990173%)" stop-opacity="1"/>
<stop offset="0.25" stop-color="rgb(89.16626%, 84.336853%, 78.723145%)" stop-opacity="1"/>
<stop offset="0.3125" stop-color="rgb(88.964844%, 84.104919%, 78.462219%)" stop-opacity="1"/>
<stop offset="0.375" stop-color="rgb(88.764954%, 83.876038%, 78.20282%)" stop-opacity="1"/>
<stop offset="0.4375" stop-color="rgb(88.568115%, 83.650208%, 77.947998%)" stop-opacity="1"/>
<stop offset="0.5" stop-color="rgb(88.375854%, 83.428955%, 77.697754%)" stop-opacity="1"/>
<stop offset="0.5625" stop-color="rgb(88.18512%, 83.210754%, 77.452087%)" stop-opacity="1"/>
<stop offset="0.625" stop-color="rgb(87.997437%, 82.995605%, 77.209473%)" stop-opacity="1"/>
<stop offset="0.6875" stop-color="rgb(87.814331%, 82.783508%, 76.96991%)" stop-opacity="1"/>
<stop offset="0.75" stop-color="rgb(87.632751%, 82.577515%, 76.73645%)" stop-opacity="1"/>
<stop offset="0.8125" stop-color="rgb(87.45575%, 82.373047%, 76.506042%)" stop-opacity="1"/>
<stop offset="0.875" stop-color="rgb(87.281799%, 82.173157%, 76.281738%)" stop-opacity="1"/>
<stop offset="0.9375" stop-color="rgb(87.112427%, 81.977844%, 76.060486%)" stop-opacity="1"/>
<stop offset="1" stop-color="rgb(86.946106%, 81.787109%, 75.845337%)" stop-opacity="1"/>
</linearGradient>
<clipPath id="clip-17">
<path clip-rule="nonzero" d="M 1340 1478 L 1758 1478 L 1758 1489 L 1340 1489 Z M 1340 1478 "/>
</clipPath>
<clipPath id="clip-18">
<path clip-rule="nonzero" d="M 1757.679688 1483.628906 C 1757.679688 1486.28125 1664.191406 1488.429688 1548.851562 1488.429688 C 1433.511719 1488.429688 1340.019531 1486.28125 1340.019531 1483.628906 C 1340.019531 1480.980469 1433.511719 1478.839844 1548.851562 1478.839844 C 1664.191406 1478.839844 1757.679688 1480.980469 1757.679688 1483.628906 Z M 1757.679688 1483.628906 "/>
</clipPath>
<clipPath id="clip-19">
<path clip-rule="nonzero" d="M 1757.679688 1483.628906 C 1757.679688 1486.28125 1664.191406 1488.429688 1548.851562 1488.429688 C 1433.511719 1488.429688 1340.019531 1486.28125 1340.019531 1483.628906 C 1340.019531 1480.980469 1433.511719 1478.839844 1548.851562 1478.839844 C 1664.191406 1478.839844 1757.679688 1480.980469 1757.679688 1483.628906 "/>
</clipPath>
<linearGradient id="linear-pattern-5" gradientUnits="userSpaceOnUse" x1="0.182293" y1="0" x2="0.801292" y2="0" gradientTransform="matrix(-657.126, 115.591, -115.591, -657.126, 1872.02, 1426.79)">
<stop offset="0" stop-color="rgb(91.656494%, 87.19635%, 81.951904%)" stop-opacity="1"/>
<stop offset="0.015625" stop-color="rgb(91.566467%, 87.09259%, 81.834412%)" stop-opacity="1"/>
<stop offset="0.03125" stop-color="rgb(91.387939%, 86.888123%, 81.602478%)" stop-opacity="1"/>
<stop offset="0.046875" stop-color="rgb(91.210938%, 86.683655%, 81.373596%)" stop-opacity="1"/>
<stop offset="0.0625" stop-color="rgb(91.033936%, 86.482239%, 81.144714%)" stop-opacity="1"/>
<stop offset="0.078125" stop-color="rgb(90.859985%, 86.282349%, 80.918884%)" stop-opacity="1"/>
<stop offset="0.09375" stop-color="rgb(90.687561%, 86.083984%, 80.696106%)" stop-opacity="1"/>
<stop offset="0.109375" stop-color="rgb(90.516663%, 85.887146%, 80.473328%)" stop-opacity="1"/>
<stop offset="0.125" stop-color="rgb(90.345764%, 85.691833%, 80.253601%)" stop-opacity="1"/>
<stop offset="0.140625" stop-color="rgb(90.177917%, 85.499573%, 80.0354%)" stop-opacity="1"/>
<stop offset="0.15625" stop-color="rgb(90.011597%, 85.307312%, 79.818726%)" stop-opacity="1"/>
<stop offset="0.171875" stop-color="rgb(89.846802%, 85.118103%, 79.605103%)" stop-opacity="1"/>
<stop offset="0.1875" stop-color="rgb(89.683533%, 84.93042%, 79.394531%)" stop-opacity="1"/>
<stop offset="0.203125" stop-color="rgb(89.52179%, 84.744263%, 79.18396%)" stop-opacity="1"/>
<stop offset="0.21875" stop-color="rgb(89.361572%, 84.561157%, 78.97644%)" stop-opacity="1"/>
<stop offset="0.234375" stop-color="rgb(89.202881%, 84.379578%, 78.771973%)" stop-opacity="1"/>
<stop offset="0.25" stop-color="rgb(89.045715%, 84.199524%, 78.567505%)" stop-opacity="1"/>
<stop offset="0.265625" stop-color="rgb(88.890076%, 84.020996%, 78.366089%)" stop-opacity="1"/>
<stop offset="0.28125" stop-color="rgb(88.737488%, 83.84552%, 78.167725%)" stop-opacity="1"/>
<stop offset="0.3125" stop-color="rgb(88.511658%, 83.586121%, 77.874756%)" stop-opacity="1"/>
<stop offset="0.34375" stop-color="rgb(88.215637%, 83.24585%, 77.49176%)" stop-opacity="1"/>
<stop offset="0.375" stop-color="rgb(87.927246%, 82.914734%, 77.11792%)" stop-opacity="1"/>
<stop offset="0.40625" stop-color="rgb(87.646484%, 82.592773%, 76.754761%)" stop-opacity="1"/>
<stop offset="0.4375" stop-color="rgb(87.374878%, 82.279968%, 76.400757%)" stop-opacity="1"/>
<stop offset="0.46875" stop-color="rgb(87.110901%, 81.976318%, 76.05896%)" stop-opacity="1"/>
<stop offset="0.5" stop-color="rgb(86.854553%, 81.68335%, 75.727844%)" stop-opacity="1"/>
<stop offset="0.53125" stop-color="rgb(86.608887%, 81.401062%, 75.40741%)" stop-opacity="1"/>
<stop offset="0.5625" stop-color="rgb(86.37085%, 81.12793%, 75.100708%)" stop-opacity="1"/>
<stop offset="0.59375" stop-color="rgb(86.143494%, 80.867004%, 74.806213%)" stop-opacity="1"/>
<stop offset="0.625" stop-color="rgb(85.928345%, 80.618286%, 74.525452%)" stop-opacity="1"/>
<stop offset="0.65625" stop-color="rgb(85.722351%, 80.383301%, 74.258423%)" stop-opacity="1"/>
<stop offset="0.6875" stop-color="rgb(85.528564%, 80.160522%, 74.008179%)" stop-opacity="1"/>
<stop offset="0.71875" stop-color="rgb(85.348511%, 79.954529%, 73.774719%)" stop-opacity="1"/>
<stop offset="0.75" stop-color="rgb(85.183716%, 79.763794%, 73.561096%)" stop-opacity="1"/>
<stop offset="0.8125" stop-color="rgb(84.973145%, 79.524231%, 73.28949%)" stop-opacity="1"/>
<stop offset="0.875" stop-color="rgb(84.773254%, 79.293823%, 73.03009%)" stop-opacity="1"/>
<stop offset="1" stop-color="rgb(84.70459%, 79.214478%, 72.940063%)" stop-opacity="1"/>
</linearGradient>
</defs>

<g clip-path="url(#clip-0)">
<g clip-path="url(#clip-1)">
<g clip-path="url(#clip-2)">
<path fill-rule="nonzero" fill="url(#linear-pattern-0)" d="M 1572.363281 1476.292969 L 608.527344 1449.765625 L 607.355469 1492.367188 L 1571.191406 1518.894531 Z M 1572.363281 1476.292969 "/>
</g>
</g>
</g>
<path fill-rule="nonzero" fill="rgb(93.75%, 68.164062%, 59.179688%)" fill-opacity="1" d="M 1516.828125 971.472656 C 1507.921875 942.429688 1543.238281 759.597656 1543.238281 759.597656 C 1426.71875 759.597656 1015.421875 751.921875 994.953125 759.597656 C 985.226562 763.242188 963.101562 918.835938 929.273438 1127.398438 L 927.828125 1127.199219 L 851.503906 1484.328125 L 1180.820312 1484.328125 C 1180.820312 1484.328125 1213.328125 1322.25 1217.648438 1315.179688 C 1221.980469 1308.121094 1310.839844 1326.488281 1414.03125 1326.488281 C 1487.53125 1326.488281 1499.03125 1204.75 1499.03125 1204.75 C 1501.609375 1184.679688 1503.359375 1169.878906 1503.359375 1169.878906 C 1504.441406 1154.660156 1512.871094 1136.859375 1512.871094 1136.859375 C 1512.550781 1126.679688 1550.730469 1144.28125 1578.738281 1129.011719 C 1606.738281 1113.730469 1525.738281 1000.519531 1516.828125 971.472656 "/>
<g clip-path="url(#clip-3)">
<g clip-path="url(#clip-4)">
<path fill-rule="nonzero" fill="rgb(80.859375%, 56.054688%, 48.631287%)" fill-opacity="1" d="M 1245.25 1314.761719 C 1245.25 1314.761719 1107.308594 1267.808594 1096.660156 1308.320312 C 1086 1348.828125 1203.609375 1434.421875 1206.871094 1429.199219 C 1210.140625 1423.96875 1245.25 1314.761719 1245.25 1314.761719 "/>
</g>
</g>
<path fill-rule="nonzero" fill="rgb(14.109802%, 16.868591%, 19.213867%)" fill-opacity="1" d="M 892.289062 759.597656 C 881.878906 815.15625 870.960938 882.980469 868.050781 940.53125 C 864.769531 1005.578125 856.300781 1119.039062 933.730469 1140.710938 C 963.550781 1149.050781 988.261719 1135.539062 1011.890625 1118.988281 C 1041.949219 1097.941406 1111.210938 1031.828125 1116.410156 995.5 C 1073.148438 983.496094 1040.128906 938.195312 1042.171875 893.347656 C 1042.578125 884.144531 1044.328125 874.855469 1048.609375 866.699219 C 1053.769531 856.878906 1062.351562 849.191406 1071.859375 843.484375 C 1093.289062 830.621094 1120.550781 827.367188 1143.96875 836.082031 C 1167.390625 844.800781 1186.199219 865.71875 1191.109375 890.222656 C 1194.460938 906.941406 1195.589844 922.890625 1205.03125 937.089844 C 1215.46875 940.035156 1226.121094 933.949219 1235.191406 928 C 1294.980469 888.777344 1268.578125 803.675781 1327.269531 762.875 "/>
<path fill-rule="nonzero" fill="rgb(80.859375%, 56.054688%, 48.631287%)" fill-opacity="1" d="M 1543.238281 759.597656 C 1543.238281 772.121094 1397.46875 782.277344 1217.648438 782.277344 C 1037.839844 782.277344 892.070312 772.121094 892.070312 759.597656 C 892.070312 747.070312 1037.839844 736.917969 1217.648438 736.917969 C 1397.46875 736.917969 1543.238281 747.070312 1543.238281 759.597656 "/>
<g clip-path="url(#clip-5)">
<g clip-path="url(#clip-6)">
<g clip-path="url(#clip-7)">
<path fill-rule="nonzero" fill="url(#linear-pattern-1)" d="M 1141.320312 279.636719 L 916.210938 342.929688 L 979.5 568.03125 L 1204.609375 504.742188 Z M 1141.320312 279.636719 "/>
</g>
</g>
</g>
<g clip-path="url(#clip-8)">
<g clip-path="url(#clip-9)">
<g clip-path="url(#clip-10)">
<path fill-rule="nonzero" fill="url(#linear-pattern-2)" d="M 1080 390.808594 L 1026.5 405.851562 L 1041.542969 459.339844 L 1095.039062 444.300781 Z M 1080 390.808594 "/>
</g>
</g>
</g>
<g clip-path="url(#clip-11)">
<g clip-path="url(#clip-12)">
<g clip-path="url(#clip-13)">
<path fill-rule="nonzero" fill="url(#linear-pattern-3)" d="M 1515.058594 282.703125 L 1206.023438 121.109375 L 1044.429688 430.144531 L 1353.464844 591.738281 Z M 1515.058594 282.703125 "/>
</g>
</g>
</g>
<g clip-path="url(#clip-14)">
<g clip-path="url(#clip-15)">
<g clip-path="url(#clip-16)">
<path fill-rule="nonzero" fill="url(#linear-pattern-4)" d="M 1336.15625 340.597656 L 1262.714844 302.195312 L 1224.3125 375.632812 L 1297.753906 414.035156 Z M 1336.15625 340.597656 "/>
</g>
</g>
</g>
<path fill-rule="nonzero" fill="rgb(21.556091%, 50.976562%, 76.5625%)" fill-opacity="1" d="M 1195.921875 576.761719 C 1165.789062 576.761719 1141.28125 552.238281 1141.28125 522.121094 C 1141.28125 491.988281 1165.789062 467.480469 1195.921875 467.480469 C 1226.050781 467.480469 1250.558594 491.988281 1250.558594 522.121094 C 1250.558594 552.238281 1226.050781 576.761719 1195.921875 576.761719 Z M 1289.449219 490.371094 C 1288.070312 486.300781 1286.441406 482.339844 1284.558594 478.53125 C 1287.871094 475.25 1291.191406 471.96875 1294.558594 468.75 C 1299.539062 463.988281 1304.148438 456.929688 1298.148438 450.929688 L 1268.269531 421.039062 C 1260.109375 412.890625 1248.699219 423.160156 1239.609375 433.53125 C 1235.800781 431.648438 1231.851562 430.011719 1227.78125 428.621094 C 1227.800781 423.960938 1227.828125 419.300781 1227.929688 414.628906 C 1228.089844 407.738281 1226.359375 399.488281 1217.878906 399.488281 L 1175.609375 399.488281 C 1164.078125 399.488281 1163.269531 414.808594 1164.171875 428.578125 C 1160.101562 429.96875 1156.148438 431.601562 1152.339844 433.480469 C 1149.058594 430.171875 1145.78125 426.851562 1142.558594 423.480469 C 1137.789062 418.488281 1130.738281 413.890625 1124.738281 419.878906 L 1094.851562 449.769531 C 1086.699219 457.929688 1096.960938 469.339844 1107.339844 478.429688 C 1105.449219 482.238281 1103.808594 486.191406 1102.429688 490.261719 C 1097.761719 490.238281 1093.101562 490.210938 1088.441406 490.101562 C 1081.550781 489.949219 1073.300781 491.679688 1073.300781 500.160156 L 1073.300781 542.429688 C 1073.300781 553.960938 1088.621094 554.769531 1102.390625 553.859375 C 1103.769531 557.929688 1105.410156 561.890625 1107.289062 565.699219 C 1103.980469 568.980469 1100.660156 572.261719 1097.28125 575.480469 C 1092.300781 580.238281 1087.691406 587.300781 1093.691406 593.300781 L 1123.578125 623.1875 C 1131.730469 631.339844 1143.140625 621.074219 1152.238281 610.699219 C 1156.050781 612.585938 1160 614.222656 1164.070312 615.613281 C 1164.039062 620.273438 1164.019531 624.9375 1163.910156 629.597656 C 1163.75 636.492188 1165.480469 644.738281 1173.96875 644.738281 L 1216.230469 644.738281 C 1227.769531 644.738281 1228.578125 629.414062 1227.671875 615.648438 C 1231.738281 614.265625 1235.691406 612.632812 1239.5 610.75 C 1242.789062 614.0625 1246.058594 617.378906 1249.289062 620.753906 C 1254.050781 625.738281 1261.109375 630.34375 1267.101562 624.347656 L 1296.988281 594.460938 C 1305.148438 586.300781 1294.878906 574.890625 1284.5 565.800781 C 1286.390625 561.988281 1288.03125 558.039062 1289.421875 553.96875 C 1294.078125 553.988281 1298.738281 554.019531 1303.398438 554.128906 C 1310.300781 554.28125 1318.539062 552.558594 1318.539062 544.070312 L 1318.539062 501.800781 C 1318.539062 490.269531 1303.21875 489.460938 1289.449219 490.371094 "/>
<path fill-rule="nonzero" fill="rgb(21.556091%, 50.976562%, 76.5625%)" fill-opacity="1" d="M 1197.039062 497.21875 C 1182.578125 497.21875 1170.859375 508.941406 1170.859375 523.410156 C 1170.859375 537.871094 1182.578125 549.601562 1197.039062 549.601562 C 1211.5 549.601562 1223.230469 537.871094 1223.230469 523.410156 C 1223.230469 508.941406 1211.5 497.21875 1197.039062 497.21875 "/>
<path fill-rule="nonzero" fill="rgb(14.109802%, 16.868591%, 19.213867%)" fill-opacity="1" d="M 1374.980469 492.808594 C 1363.859375 496.410156 1351.890625 490.289062 1348.289062 479.171875 C 1344.691406 468.058594 1350.800781 456.078125 1361.921875 452.480469 C 1373.039062 448.878906 1385.019531 455 1388.621094 466.109375 C 1392.21875 477.230469 1386.101562 489.210938 1374.980469 492.808594 Z M 1399.179688 449.75 C 1398.179688 448.410156 1397.109375 447.148438 1395.960938 445.96875 C 1396.789062 444.359375 1397.621094 442.75 1398.480469 441.160156 C 1399.75 438.808594 1400.609375 435.648438 1397.679688 434.160156 L 1383.078125 426.699219 C 1379.089844 424.660156 1376.109375 429.808594 1373.988281 434.730469 C 1372.359375 434.488281 1370.699219 434.359375 1369.039062 434.328125 C 1368.488281 432.609375 1367.941406 430.878906 1367.421875 429.148438 C 1366.660156 426.589844 1365.03125 423.75 1361.898438 424.761719 L 1346.300781 429.808594 C 1342.050781 431.191406 1343.578125 436.941406 1345.558594 441.921875 C 1344.21875 442.921875 1342.960938 443.988281 1341.78125 445.140625 C 1340.171875 444.308594 1338.558594 443.480469 1336.96875 442.621094 C 1334.621094 441.351562 1331.460938 440.488281 1329.960938 443.421875 L 1322.511719 458.019531 C 1320.46875 462.011719 1325.621094 464.988281 1330.539062 467.109375 C 1330.300781 468.738281 1330.171875 470.390625 1330.140625 472.058594 C 1328.421875 472.609375 1326.691406 473.160156 1324.960938 473.671875 C 1322.398438 474.441406 1319.558594 476.058594 1320.570312 479.191406 L 1325.621094 494.800781 C 1327 499.050781 1332.75 497.519531 1337.730469 495.539062 C 1338.71875 496.878906 1339.800781 498.140625 1340.949219 499.320312 C 1340.121094 500.929688 1339.289062 502.539062 1338.429688 504.128906 C 1337.160156 506.480469 1336.300781 509.640625 1339.230469 511.128906 L 1353.828125 518.589844 C 1357.820312 520.628906 1360.800781 515.480469 1362.921875 510.558594 C 1364.550781 510.800781 1366.199219 510.929688 1367.871094 510.960938 C 1368.421875 512.679688 1368.960938 514.410156 1369.480469 516.140625 C 1370.25 518.699219 1371.871094 521.539062 1375 520.53125 L 1390.601562 515.46875 C 1394.859375 514.101562 1393.328125 508.339844 1391.351562 503.371094 C 1392.679688 502.371094 1393.949219 501.300781 1395.128906 500.148438 C 1396.738281 500.980469 1398.339844 501.808594 1399.941406 502.671875 C 1402.289062 503.941406 1405.441406 504.800781 1406.941406 501.871094 L 1414.398438 487.269531 C 1416.441406 483.28125 1411.28125 480.300781 1406.371094 478.179688 C 1406.609375 476.550781 1406.738281 474.898438 1406.769531 473.230469 C 1408.488281 472.679688 1410.21875 472.128906 1411.949219 471.609375 C 1414.511719 470.851562 1417.351562 469.230469 1416.328125 466.089844 L 1411.28125 450.488281 C 1409.910156 446.238281 1404.148438 447.769531 1399.179688 449.75 "/>
<path fill-rule="nonzero" fill="rgb(14.109802%, 16.868591%, 19.213867%)" fill-opacity="1" d="M 1365.890625 463.320312 C 1360.550781 465.050781 1357.628906 470.78125 1359.359375 476.121094 C 1361.078125 481.460938 1366.808594 484.378906 1372.148438 482.648438 C 1377.488281 480.921875 1380.421875 475.199219 1378.691406 469.859375 C 1376.960938 464.519531 1371.230469 461.589844 1365.890625 463.320312 "/>
<path fill-rule="nonzero" fill="rgb(33.325195%, 36.863708%, 38.818359%)" fill-opacity="1" d="M 1367.789062 651.828125 C 1350 651.828125 1335.519531 637.351562 1335.519531 619.558594 C 1335.519531 601.761719 1350 587.28125 1367.789062 587.28125 C 1385.589844 587.28125 1400.058594 601.761719 1400.058594 619.558594 C 1400.058594 637.351562 1385.589844 651.828125 1367.789062 651.828125 Z M 1423.039062 600.804688 C 1422.21875 598.398438 1421.25 596.070312 1420.140625 593.808594 C 1422.101562 591.878906 1424.058594 589.941406 1426.050781 588.039062 C 1428.988281 585.21875 1431.71875 581.058594 1428.171875 577.511719 L 1410.519531 559.859375 C 1405.699219 555.039062 1398.960938 561.109375 1393.589844 567.238281 C 1391.339844 566.121094 1389.011719 565.160156 1386.609375 564.328125 C 1386.621094 561.578125 1386.640625 558.828125 1386.699219 556.070312 C 1386.789062 552 1385.769531 547.128906 1380.761719 547.128906 L 1355.789062 547.128906 C 1348.980469 547.128906 1348.5 556.179688 1349.039062 564.308594 C 1346.640625 565.128906 1344.300781 566.089844 1342.050781 567.210938 C 1340.109375 565.25 1338.171875 563.289062 1336.269531 561.300781 C 1333.460938 558.351562 1329.289062 555.628906 1325.75 559.171875 L 1308.089844 576.828125 C 1303.28125 581.640625 1309.339844 588.378906 1315.46875 593.761719 C 1314.359375 596.011719 1313.390625 598.339844 1312.570312 600.742188 C 1309.808594 600.730469 1307.058594 600.710938 1304.308594 600.648438 C 1300.238281 600.558594 1295.371094 601.578125 1295.371094 606.589844 L 1295.371094 631.554688 C 1295.371094 638.363281 1304.421875 638.84375 1312.550781 638.308594 C 1313.371094 640.710938 1314.328125 643.046875 1315.441406 645.300781 C 1313.480469 647.238281 1311.519531 649.171875 1309.53125 651.078125 C 1306.589844 653.890625 1303.871094 658.058594 1307.410156 661.597656 L 1325.058594 679.253906 C 1329.878906 684.070312 1336.621094 678.007812 1341.988281 671.878906 C 1344.238281 672.992188 1346.570312 673.960938 1348.980469 674.78125 C 1348.960938 677.53125 1348.949219 680.285156 1348.878906 683.039062 C 1348.789062 687.113281 1349.808594 691.980469 1354.820312 691.980469 L 1379.789062 691.980469 C 1386.601562 691.980469 1387.078125 682.933594 1386.539062 674.800781 C 1388.949219 673.984375 1391.28125 673.019531 1393.53125 671.90625 C 1395.46875 673.863281 1397.410156 675.824219 1399.308594 677.816406 C 1402.121094 680.761719 1406.289062 683.480469 1409.828125 679.9375 L 1427.488281 662.285156 C 1432.300781 657.46875 1426.238281 650.730469 1420.109375 645.359375 C 1421.230469 643.109375 1422.191406 640.773438 1423.011719 638.371094 C 1425.769531 638.386719 1428.519531 638.402344 1431.269531 638.464844 C 1435.351562 638.558594 1440.21875 637.535156 1440.21875 632.527344 L 1440.21875 607.558594 C 1440.21875 600.746094 1431.171875 600.269531 1423.039062 600.804688 "/>
<path fill-rule="nonzero" fill="rgb(33.325195%, 36.863708%, 38.818359%)" fill-opacity="1" d="M 1368.449219 604.855469 C 1359.910156 604.855469 1352.988281 611.777344 1352.988281 620.320312 C 1352.988281 628.863281 1359.910156 635.789062 1368.449219 635.789062 C 1377 635.789062 1383.921875 628.863281 1383.921875 620.320312 C 1383.921875 611.777344 1377 604.855469 1368.449219 604.855469 "/>
<path fill-rule="nonzero" fill="rgb(14.109802%, 16.868591%, 19.213867%)" fill-opacity="1" d="M 982.050781 572.929688 C 967.335938 566.210938 960.835938 548.78125 967.554688 534.058594 C 974.273438 519.351562 991.710938 512.851562 1006.421875 519.570312 C 1021.140625 526.289062 1027.640625 543.71875 1020.921875 558.441406 C 1014.199219 573.148438 996.761719 579.648438 982.050781 572.929688 Z M 1046.988281 551.609375 C 1047.21875 549.308594 1047.308594 547.019531 1047.238281 544.738281 C 1049.589844 543.871094 1051.941406 543.011719 1054.308594 542.191406 C 1057.800781 540.980469 1061.628906 538.558594 1060.039062 534.289062 L 1052.109375 513.03125 C 1049.941406 507.230469 1042.078125 509.699219 1035.328125 512.738281 C 1033.890625 510.960938 1032.320312 509.28125 1030.648438 507.699219 C 1031.699219 505.429688 1032.75 503.160156 1033.839844 500.898438 C 1035.460938 497.570312 1036.449219 493.160156 1032.308594 491.269531 L 1011.671875 481.839844 C 1006.039062 479.269531 1002.21875 486.570312 999.59375 493.488281 C 997.296875 493.261719 995.003906 493.179688 992.722656 493.25 C 991.859375 490.898438 990.996094 488.539062 990.175781 486.179688 C 988.964844 482.679688 986.546875 478.859375 982.277344 480.449219 L 961.015625 488.378906 C 955.214844 490.539062 957.683594 498.398438 960.722656 505.160156 C 958.949219 506.601562 957.269531 508.160156 955.683594 509.839844 C 953.410156 508.789062 951.140625 507.730469 948.890625 506.640625 C 945.558594 505.03125 941.144531 504.039062 939.253906 508.179688 L 929.824219 528.820312 C 927.253906 534.449219 934.554688 538.261719 941.480469 540.890625 C 941.246094 543.191406 941.164062 545.480469 941.230469 547.761719 C 938.882812 548.628906 936.53125 549.488281 934.164062 550.308594 C 930.667969 551.519531 926.84375 553.941406 928.4375 558.210938 L 936.363281 579.46875 C 938.527344 585.269531 946.390625 582.800781 953.144531 579.761719 C 954.585938 581.53125 956.148438 583.21875 957.824219 584.800781 C 956.773438 587.070312 955.722656 589.339844 954.628906 591.601562 C 953.015625 594.929688 952.023438 599.339844 956.164062 601.234375 L 976.804688 610.660156 C 982.4375 613.234375 986.25 605.933594 988.878906 599.011719 C 991.171875 599.238281 993.46875 599.320312 995.75 599.261719 C 996.613281 601.605469 997.472656 603.953125 998.296875 606.320312 C 999.511719 609.816406 1001.929688 613.640625 1006.191406 612.050781 L 1027.460938 604.121094 C 1033.261719 601.957031 1030.789062 594.101562 1027.75 587.339844 C 1029.519531 585.898438 1031.199219 584.339844 1032.789062 582.660156 C 1035.058594 583.710938 1037.328125 584.761719 1039.578125 585.859375 C 1042.910156 587.46875 1047.328125 588.460938 1049.21875 584.320312 L 1058.648438 563.679688 C 1061.21875 558.050781 1053.921875 554.238281 1046.988281 551.609375 "/>
<path fill-rule="nonzero" fill="rgb(14.109802%, 16.868591%, 19.213867%)" fill-opacity="1" d="M 1000.339844 534.339844 C 993.273438 531.121094 984.933594 534.230469 981.707031 541.289062 C 978.480469 548.351562 981.589844 556.691406 988.652344 559.921875 C 995.714844 563.148438 1004.058594 560.03125 1007.28125 552.96875 C 1010.511719 545.910156 1007.398438 537.570312 1000.339844 534.339844 "/>
<path fill-rule="nonzero" fill="rgb(89.451599%, 32.93457%, 31.37207%)" fill-opacity="1" d="M 1074.53125 682.507812 C 1062.621094 682.507812 1052.941406 672.820312 1052.941406 660.917969 C 1052.941406 649.011719 1062.621094 639.328125 1074.53125 639.328125 C 1086.429688 639.328125 1096.121094 649.011719 1096.121094 660.917969 C 1096.121094 672.820312 1086.429688 682.507812 1074.53125 682.507812 Z M 1111.480469 648.371094 C 1110.941406 646.765625 1110.289062 645.203125 1109.550781 643.695312 C 1110.859375 642.398438 1112.171875 641.105469 1113.5 639.832031 C 1115.46875 637.949219 1117.289062 635.160156 1114.921875 632.792969 L 1103.109375 620.980469 C 1099.890625 617.761719 1095.378906 621.816406 1091.789062 625.914062 C 1090.28125 625.171875 1088.71875 624.523438 1087.109375 623.972656 C 1087.121094 622.132812 1087.128906 620.289062 1087.171875 618.449219 C 1087.238281 615.722656 1086.550781 612.464844 1083.199219 612.464844 L 1066.5 612.464844 C 1061.941406 612.464844 1061.621094 618.519531 1061.980469 623.960938 C 1060.371094 624.507812 1058.808594 625.152344 1057.308594 625.894531 C 1056.011719 624.585938 1054.710938 623.277344 1053.441406 621.941406 C 1051.558594 619.972656 1048.769531 618.152344 1046.398438 620.523438 L 1034.589844 632.332031 C 1031.371094 635.554688 1035.429688 640.0625 1039.53125 643.65625 C 1038.78125 645.160156 1038.128906 646.722656 1037.578125 648.328125 C 1035.738281 648.320312 1033.898438 648.308594 1032.058594 648.269531 C 1029.328125 648.207031 1026.078125 648.890625 1026.078125 652.242188 L 1026.078125 668.945312 C 1026.078125 673.5 1032.128906 673.820312 1037.570312 673.460938 C 1038.121094 675.070312 1038.761719 676.632812 1039.511719 678.136719 C 1038.199219 679.433594 1036.890625 680.730469 1035.550781 682.003906 C 1033.578125 683.886719 1031.761719 686.671875 1034.128906 689.042969 L 1045.941406 700.851562 C 1049.160156 704.074219 1053.671875 700.019531 1057.269531 695.917969 C 1058.769531 696.664062 1060.328125 697.308594 1061.941406 697.859375 C 1061.929688 699.699219 1061.921875 701.542969 1061.878906 703.386719 C 1061.820312 706.109375 1062.5 709.367188 1065.851562 709.367188 L 1082.550781 709.367188 C 1087.109375 709.367188 1087.429688 703.3125 1087.070312 697.875 C 1088.679688 697.328125 1090.238281 696.683594 1091.75 695.9375 C 1093.039062 697.246094 1094.339844 698.558594 1095.609375 699.890625 C 1097.488281 701.859375 1100.28125 703.679688 1102.648438 701.3125 L 1114.460938 689.5 C 1117.679688 686.277344 1113.628906 681.769531 1109.53125 678.175781 C 1110.269531 676.671875 1110.921875 675.109375 1111.46875 673.503906 C 1113.308594 673.511719 1115.148438 673.523438 1116.988281 673.566406 C 1119.71875 673.628906 1122.980469 672.945312 1122.980469 669.59375 L 1122.980469 652.890625 C 1122.980469 648.335938 1116.921875 648.015625 1111.480469 648.371094 "/>
<path fill-rule="nonzero" fill="rgb(89.451599%, 32.93457%, 31.37207%)" fill-opacity="1" d="M 1074.96875 651.082031 C 1069.25 651.082031 1064.621094 655.714844 1064.621094 661.429688 C 1064.621094 667.140625 1069.25 671.773438 1074.96875 671.773438 C 1080.679688 671.773438 1085.320312 667.140625 1085.320312 661.429688 C 1085.320312 655.714844 1080.679688 651.082031 1074.96875 651.082031 "/>
<g clip-path="url(#clip-17)">
<g clip-path="url(#clip-18)">
<g clip-path="url(#clip-19)">
<path fill-rule="nonzero" fill="url(#linear-pattern-5)" d="M 1759.316406 1488.140625 L 1745.144531 1407.578125 L 1338.382812 1479.128906 L 1352.554688 1559.691406 Z M 1759.316406 1488.140625 "/>
</g>
</g>
</g>
<path fill-rule="nonzero" fill="rgb(31.762695%, 22.75238%, 22.75238%)" fill-opacity="1" d="M 1585.710938 1049.261719 C 1563.609375 1048.519531 1499.339844 1046.46875 1484.601562 1047.199219 L 1488.488281 1014.019531 C 1502.921875 1013.929688 1571.53125 1015.089844 1589.75 1015.398438 Z M 1580.390625 1093.96875 C 1557.660156 1093.210938 1493.25 1091.160156 1479.359375 1091.949219 L 1483.25 1058.75 C 1496.699219 1058.640625 1565.371094 1059.789062 1584.421875 1060.121094 Z M 1575.058594 1138.679688 C 1551.699219 1137.898438 1487.070312 1135.851562 1474.121094 1136.691406 L 1478.011719 1103.480469 C 1490.390625 1103.339844 1559.210938 1104.488281 1579.089844 1104.828125 Z M 1569.730469 1183.390625 C 1545.75 1182.589844 1480.800781 1180.539062 1468.878906 1181.449219 L 1472.769531 1148.210938 C 1483.96875 1148.039062 1553.070312 1149.199219 1573.761719 1149.550781 Z M 1564.390625 1228.160156 C 1542.511719 1227.421875 1479.121094 1225.398438 1463.648438 1226.078125 L 1467.53125 1192.941406 C 1477.339844 1192.738281 1546.929688 1193.898438 1568.429688 1194.269531 Z M 1559.058594 1272.910156 C 1538.441406 1272.21875 1475.621094 1270.199219 1458.410156 1270.769531 L 1462.289062 1237.648438 C 1476.628906 1237.558594 1544.261719 1238.691406 1563.101562 1239.019531 Z M 1553.730469 1317.609375 C 1531.941406 1316.878906 1468.960938 1314.871094 1453.171875 1315.519531 L 1457.050781 1282.371094 C 1473.480469 1282.328125 1540.601562 1283.460938 1557.769531 1283.761719 Z M 1548.410156 1362.320312 C 1526.019531 1361.570312 1462.96875 1359.558594 1447.929688 1360.269531 L 1451.808594 1327.101562 C 1466.570312 1327.019531 1533.710938 1328.148438 1552.441406 1328.46875 Z M 1543.078125 1407.039062 C 1520.429688 1406.28125 1457.429688 1404.28125 1442.691406 1405 L 1446.570312 1371.820312 C 1460.390625 1371.730469 1527.578125 1372.851562 1547.109375 1373.179688 Z M 1537.75 1451.761719 C 1515.039062 1451 1452.179688 1449 1437.449219 1449.71875 L 1441.328125 1416.550781 C 1454.800781 1416.441406 1521.890625 1417.558594 1541.78125 1417.898438 Z M 1596.03125 966.296875 L 1591.039062 1004.550781 C 1569.570312 1003.828125 1505.398438 1001.769531 1489.851562 1002.460938 L 1494.089844 967.199219 L 1482.78125 967.496094 L 1421.269531 1483.628906 L 1433.46875 1483.628906 L 1436.089844 1461.269531 C 1449.558594 1461.171875 1516.46875 1462.289062 1536.449219 1462.628906 L 1533.949219 1483.628906 L 1546.210938 1483.628906 L 1607.191406 966.296875 L 1596.03125 966.296875 "/>
<path fill-rule="nonzero" fill="rgb(45.872498%, 26.268005%, 24.705505%)" fill-opacity="1" d="M 1633.46875 966.699219 C 1632.929688 967.160156 1631.941406 967.203125 1630 967.203125 C 1625.628906 967.199219 1621.25 967.203125 1616.878906 967.203125 C 1599.390625 967.203125 1581.890625 967.203125 1564.398438 967.203125 C 1546.851562 967.203125 1529.300781 967.203125 1511.761719 967.203125 C 1501.121094 967.203125 1477.171875 967.761719 1476.570312 967.34375 C 1473.789062 965.386719 1473.289062 959.964844 1473.929688 957.277344 C 1475.171875 952.109375 1476.261719 952.222656 1481.261719 952.222656 C 1486.71875 952.222656 1492.179688 952.222656 1497.648438 952.222656 C 1514.160156 952.222656 1530.671875 952.222656 1547.191406 952.222656 C 1575.378906 952.222656 1603.570312 952.222656 1631.761719 952.222656 C 1635.699219 952.226562 1634.410156 961.066406 1634.238281 963.292969 C 1634.101562 965.222656 1634.050781 966.203125 1633.46875 966.699219 "/>
<path fill-rule="nonzero" fill="rgb(45.872498%, 26.268005%, 24.705505%)" fill-opacity="1" d="M 1559.949219 1451.761719 L 1555.921875 1417.898438 C 1575.808594 1417.558594 1642.898438 1416.441406 1656.371094 1416.550781 L 1660.261719 1449.71875 C 1645.519531 1449 1582.660156 1451 1559.949219 1451.761719 Z M 1550.589844 1373.179688 C 1570.121094 1372.851562 1637.308594 1371.730469 1651.128906 1371.820312 L 1655.019531 1405 C 1640.269531 1404.28125 1577.269531 1406.28125 1554.621094 1407.039062 Z M 1545.261719 1328.46875 C 1564 1328.148438 1631.128906 1327.019531 1645.890625 1327.101562 L 1649.78125 1360.269531 C 1634.730469 1359.558594 1571.679688 1361.570312 1549.289062 1362.320312 Z M 1539.929688 1283.761719 C 1557.101562 1283.460938 1624.21875 1282.328125 1640.648438 1282.371094 L 1644.53125 1315.519531 C 1628.75 1314.871094 1565.761719 1316.878906 1543.96875 1317.609375 Z M 1534.601562 1239.019531 C 1553.441406 1238.691406 1621.070312 1237.558594 1635.410156 1237.648438 L 1639.289062 1270.769531 C 1622.078125 1270.199219 1559.261719 1272.21875 1538.640625 1272.910156 Z M 1529.269531 1194.269531 C 1550.769531 1193.898438 1620.359375 1192.738281 1630.171875 1192.941406 L 1634.058594 1226.078125 C 1618.578125 1225.398438 1555.191406 1227.421875 1533.308594 1228.160156 Z M 1523.941406 1149.550781 C 1544.628906 1149.199219 1613.730469 1148.039062 1624.929688 1148.210938 L 1628.828125 1181.449219 C 1616.898438 1180.539062 1551.949219 1182.589844 1527.96875 1183.390625 Z M 1518.609375 1104.828125 C 1538.488281 1104.488281 1607.308594 1103.339844 1619.691406 1103.480469 L 1623.578125 1136.691406 C 1610.628906 1135.851562 1546 1137.898438 1522.640625 1138.679688 Z M 1513.28125 1060.121094 C 1532.328125 1059.789062 1601 1058.640625 1614.449219 1058.75 L 1618.339844 1091.949219 C 1604.460938 1091.160156 1540.039062 1093.210938 1517.320312 1093.96875 Z M 1507.949219 1015.398438 C 1526.171875 1015.089844 1594.78125 1013.929688 1609.210938 1014.019531 L 1613.101562 1047.199219 C 1598.359375 1046.46875 1534.089844 1048.519531 1511.988281 1049.261719 Z M 1614.78125 966.296875 L 1603.648438 966.296875 L 1607.859375 1002.460938 C 1592.300781 1001.769531 1528.128906 1003.828125 1506.660156 1004.550781 L 1502.230469 966.902344 L 1491.011719 966.910156 L 1551.550781 1483.628906 L 1563.75 1483.628906 L 1561.25 1462.628906 C 1581.230469 1462.289062 1648.140625 1461.171875 1661.609375 1461.269531 L 1664.230469 1483.628906 L 1676.429688 1483.628906 L 1614.78125 966.296875 "/>
<path fill-rule="nonzero" fill="rgb(93.75%, 68.164062%, 59.179688%)" fill-opacity="1" d="M 1470.019531 470.199219 C 1470.019531 470.199219 1471.449219 458.378906 1469.441406 455.5 C 1467.429688 452.609375 1455.101562 448.089844 1451.640625 447.460938 C 1448.171875 446.808594 1447.929688 448.238281 1448.539062 448.789062 C 1449.148438 449.339844 1459.148438 456.371094 1459.308594 457.738281 C 1459.46875 459.109375 1456.359375 463.238281 1455.679688 463.128906 C 1454.988281 463.011719 1447.148438 460.210938 1446.570312 460.589844 C 1445.359375 461.410156 1444.261719 461.019531 1446.199219 463.191406 C 1448.140625 465.371094 1457.960938 471.398438 1457.960938 471.398438 L 1470.019531 470.199219 "/>
<path fill-rule="nonzero" fill="rgb(13.719177%, 45.092773%, 68.554688%)" fill-opacity="1" d="M 1503.191406 554 C 1503.191406 554 1478.269531 468.199219 1475.78125 466.949219 C 1473.28125 465.710938 1453.589844 469.628906 1453.589844 472.988281 C 1453.589844 476.351562 1467.710938 573.078125 1473.941406 572.890625 C 1480.171875 572.699219 1503.191406 554 1503.191406 554 "/>
<path fill-rule="nonzero" fill="rgb(9.008789%, 10.594177%, 11.767578%)" fill-opacity="1" d="M 1508.089844 927.765625 C 1508.160156 930.46875 1508.230469 933.171875 1508.300781 935.871094 C 1508.308594 936.523438 1508.328125 937.199219 1508.058594 937.796875 C 1507.671875 938.699219 1506.738281 939.230469 1505.851562 939.65625 C 1500.320312 942.320312 1494.171875 943.34375 1488.28125 945.085938 C 1486.441406 945.628906 1484.558594 946.28125 1483.191406 947.621094 C 1481.820312 948.960938 1481.121094 951.171875 1482.050781 952.847656 C 1498.261719 952.894531 1514.140625 952.425781 1530.320312 951.503906 C 1530.988281 950.9375 1531.21875 950.0625 1531.328125 949.199219 C 1531.699219 946.238281 1531.449219 943.195312 1530.578125 940.339844 C 1530.101562 938.734375 1529.5 936.992188 1529.429688 935.320312 C 1529.320312 932.960938 1529.210938 930.601562 1529.109375 928.238281 C 1522.039062 928.09375 1515.148438 927.910156 1508.089844 927.765625 "/>
<path fill-rule="nonzero" fill="rgb(9.008789%, 10.594177%, 11.767578%)" fill-opacity="1" d="M 1587.089844 903.472656 C 1588.128906 905.96875 1589.171875 908.460938 1590.210938 910.957031 C 1590.46875 911.558594 1590.71875 912.183594 1590.691406 912.835938 C 1590.648438 913.816406 1589.980469 914.648438 1589.308594 915.367188 C 1585.109375 919.851562 1579.75 923.03125 1574.878906 926.78125 C 1573.371094 927.953125 1571.851562 929.246094 1571.050781 930.992188 C 1570.261719 932.734375 1570.410156 935.050781 1571.878906 936.273438 C 1587.011719 930.457031 1601.648438 924.273438 1616.398438 917.5625 C 1616.820312 916.796875 1616.71875 915.898438 1616.511719 915.054688 C 1615.789062 912.15625 1614.449219 909.414062 1612.609375 907.058594 C 1611.578125 905.742188 1610.390625 904.332031 1609.71875 902.800781 C 1608.761719 900.636719 1607.808594 898.476562 1606.859375 896.3125 C 1600.21875 898.734375 1593.730469 901.050781 1587.089844 903.472656 "/>
<path fill-rule="nonzero" fill="rgb(9.008789%, 10.594177%, 11.767578%)" fill-opacity="1" d="M 1590.011719 660.023438 C 1590.011719 660.023438 1592.691406 671.320312 1584.570312 695.261719 C 1576.460938 719.203125 1564.769531 769.972656 1565.929688 780.914062 C 1566.449219 785.855469 1612.601562 898.996094 1610.789062 903.0625 C 1608.980469 907.128906 1585.460938 916.164062 1584.570312 913.90625 C 1583.691406 911.644531 1528.28125 793.195312 1525.039062 787.144531 C 1521.800781 781.09375 1524.511719 664.089844 1536.699219 662.285156 C 1548.898438 660.476562 1590.011719 660.023438 1590.011719 660.023438 "/>
<path fill-rule="nonzero" fill="rgb(14.109802%, 16.868591%, 19.213867%)" fill-opacity="1" d="M 1507.070312 662.347656 C 1507.070312 662.347656 1495.980469 935.003906 1501.730469 934.886719 C 1507.480469 934.769531 1535.929688 940.179688 1535.929688 934.886719 C 1535.929688 929.597656 1545.210938 721.566406 1550.738281 713.5625 C 1562.050781 697.199219 1588.179688 675.6875 1584.148438 662.347656 C 1579.75 647.769531 1507.070312 662.347656 1507.070312 662.347656 "/>
<path fill-rule="nonzero" fill="rgb(93.75%, 68.164062%, 59.179688%)" fill-opacity="1" d="M 1529.320312 489.570312 C 1529.261719 490.199219 1529.269531 490.648438 1529.648438 491.070312 C 1530.449219 491.960938 1532.210938 492.488281 1532.988281 492.839844 C 1534.148438 493.351562 1536.378906 494.230469 1535.96875 495.871094 L 1535.878906 496.140625 C 1535.078125 498.089844 1529.589844 507.769531 1529.589844 507.769531 L 1547.421875 519.339844 C 1547.421875 519.339844 1567.078125 477.679688 1566.449219 476.78125 C 1565.820312 475.890625 1548.371094 460.589844 1542.828125 463.488281 C 1542.828125 463.488281 1538.679688 473.519531 1537.488281 474.46875 C 1536.289062 475.421875 1529.71875 477.808594 1530.449219 479.238281 C 1531.179688 480.660156 1533.261719 481.019531 1532.960938 481.429688 C 1532.960938 481.429688 1532.800781 482.410156 1532.410156 483.070312 C 1532.410156 483.070312 1529.390625 488.828125 1529.320312 489.570312 "/>
<path fill-rule="nonzero" fill="rgb(14.109802%, 16.868591%, 19.213867%)" fill-opacity="1" d="M 1551.03125 482.078125 C 1550.511719 481.910156 1550.25 481.351562 1550.039062 480.851562 C 1548.679688 477.53125 1552.179688 474.75 1550.910156 471.390625 C 1550.25 469.660156 1546.320312 467.011719 1544.140625 465.640625 C 1542.210938 464.421875 1542.53125 464.351562 1541.941406 465.738281 C 1541.859375 465.929688 1541.71875 466.140625 1541.511719 466.171875 C 1541.300781 466.199219 1541.121094 466.019531 1540.980469 465.859375 C 1538.800781 463.230469 1537.679688 460.578125 1538.808594 457.359375 C 1539.621094 455.011719 1541.519531 453.089844 1543.800781 452.109375 C 1546.941406 450.761719 1551.289062 451.019531 1553.960938 453.308594 C 1555.730469 454.820312 1556.550781 457 1557.660156 458.96875 C 1559.128906 461.578125 1560.578125 462.648438 1563.511719 463.160156 C 1566.660156 463.71875 1569.769531 465.058594 1571.878906 467.460938 C 1573.679688 469.5 1574.589844 472.328125 1574.101562 475.019531 C 1573.480469 478.449219 1570.378906 480.53125 1569.019531 483.601562 C 1567.878906 486.199219 1567.710938 489.089844 1566.199219 491.558594 C 1564.488281 494.351562 1560.320312 499.511719 1556.488281 498.210938 C 1555.019531 497.710938 1554.378906 496.449219 1553.871094 495.101562 C 1553.21875 493.371094 1552.230469 488.671875 1553.050781 487.011719 C 1555.179688 487.738281 1557.828125 486.808594 1559.019531 484.890625 C 1559.261719 484.5 1559.449219 484.058594 1559.511719 483.601562 C 1559.570312 483.050781 1559.441406 482.488281 1559.199219 481.980469 C 1558.679688 480.839844 1557.640625 479.929688 1556.429688 479.628906 C 1555.210938 479.320312 1553.839844 479.660156 1552.941406 480.53125 C 1552.320312 481.128906 1551.820312 481.761719 1551.03125 482.078125 "/>
<path fill-rule="nonzero" fill="rgb(89.84375%, 61.914062%, 52.146912%)" fill-opacity="1" d="M 1534.558594 493.621094 C 1534.558594 493.621094 1543.398438 496.238281 1542.539062 499.089844 C 1541.691406 501.941406 1532.648438 502.289062 1532.648438 502.289062 C 1532.648438 502.289062 1535.910156 496.371094 1535.949219 495.640625 C 1535.980469 494.910156 1534.558594 493.621094 1534.558594 493.621094 "/>
<path fill-rule="nonzero" fill="rgb(21.556091%, 50.976562%, 76.5625%)" fill-opacity="1" d="M 1551.480469 504.628906 C 1551.480469 504.628906 1580.480469 502.148438 1584.339844 602.484375 C 1586.289062 653.097656 1609.648438 650.441406 1596.699219 662.636719 C 1588.980469 669.910156 1571.609375 668.867188 1561.171875 669.179688 C 1544.820312 669.664062 1536.640625 670.035156 1520.308594 669.011719 C 1518.730469 668.914062 1516.800781 668.933594 1514.71875 668.953125 C 1507.679688 669.015625 1498.761719 669.078125 1494.738281 664.605469 C 1492.628906 662.257812 1492.980469 658.148438 1492.929688 655.136719 C 1492.730469 642.933594 1493.96875 630.640625 1495.109375 618.507812 C 1497.699219 590.96875 1500.648438 563.121094 1506.019531 535.96875 C 1506.511719 533.511719 1506.960938 531.011719 1507.761719 528.628906 C 1508.339844 526.871094 1509.089844 525.191406 1509.960938 523.589844 C 1516.058594 512.261719 1527.921875 505.210938 1540.78125 504.898438 L 1551.480469 504.628906 "/>
<path fill-rule="nonzero" fill="rgb(14.109802%, 16.868591%, 19.213867%)" fill-opacity="1" d="M 1508.019531 568.269531 C 1505.039062 568.269531 1505.039062 572.890625 1508.019531 572.890625 C 1510.988281 572.890625 1510.988281 568.269531 1508.019531 568.269531 "/>
<path fill-rule="nonzero" fill="rgb(14.109802%, 16.868591%, 19.213867%)" fill-opacity="1" d="M 1504.808594 593.238281 C 1501.828125 593.238281 1501.828125 597.859375 1504.808594 597.859375 C 1507.78125 597.859375 1507.78125 593.238281 1504.808594 593.238281 "/>
<path fill-rule="nonzero" fill="rgb(14.109802%, 16.868591%, 19.213867%)" fill-opacity="1" d="M 1502.671875 617.855469 C 1499.691406 617.855469 1499.691406 622.472656 1502.671875 622.472656 C 1505.640625 622.472656 1505.640625 617.855469 1502.671875 617.855469 "/>
<path fill-rule="nonzero" fill="rgb(14.109802%, 16.868591%, 19.213867%)" fill-opacity="1" d="M 1502.308594 638.546875 C 1499.339844 638.546875 1499.328125 643.164062 1502.308594 643.164062 C 1505.28125 643.164062 1505.289062 638.546875 1502.308594 638.546875 "/>
<path fill-rule="nonzero" fill="rgb(93.75%, 68.164062%, 59.179688%)" fill-opacity="1" d="M 1367.789062 537.910156 C 1367.789062 537.910156 1363.929688 532.660156 1360.289062 531.929688 C 1356.640625 531.199219 1350.539062 536.539062 1349.671875 539.078125 C 1348.808594 541.628906 1347.941406 552.53125 1349.910156 553.390625 C 1351.878906 554.25 1354.28125 547.308594 1355.789062 547.128906 C 1357.300781 546.960938 1359.628906 549.460938 1360 549.171875 C 1360.378906 548.878906 1367.789062 537.910156 1367.789062 537.910156 "/>
<path fill-rule="nonzero" fill="rgb(21.556091%, 50.976562%, 76.5625%)" fill-opacity="1" d="M 1515.800781 515.679688 C 1515.800781 515.679688 1461.519531 572.53125 1456 570.578125 C 1450.480469 568.628906 1372.421875 532.859375 1369.019531 532.859375 C 1365.628906 532.859375 1358.238281 552.019531 1358.859375 554.558594 C 1359.480469 557.089844 1452.429688 608.804688 1461.828125 608.804688 C 1471.230469 608.804688 1519.539062 577.289062 1523.78125 568.269531 C 1528.011719 559.261719 1515.800781 515.679688 1515.800781 515.679688 "/>
<path fill-rule="nonzero" fill="rgb(13.719177%, 45.092773%, 68.554688%)" fill-opacity="1" d="M 1495.839844 610.910156 C 1495.828125 610.910156 1495.828125 610.90625 1495.828125 610.90625 C 1495.878906 610.414062 1498.019531 589.78125 1498.019531 589.75 C 1510.550781 581.328125 1521.828125 572.421875 1523.78125 568.269531 C 1523.851562 568.121094 1523.921875 567.949219 1523.980469 567.769531 C 1526.488281 566.148438 1528.578125 565.121094 1529.871094 565.121094 C 1530.101562 565.121094 1530.300781 565.160156 1530.480469 565.21875 C 1535.558594 567.078125 1496.230469 610.910156 1495.839844 610.910156 M 1504.808594 593.238281 C 1501.828125 593.238281 1501.828125 597.859375 1504.808594 597.859375 C 1507.78125 597.859375 1507.78125 593.238281 1504.808594 593.238281 "/>
<path fill-rule="nonzero" fill="rgb(13.719177%, 16.868591%, 19.213867%)" fill-opacity="1" d="M 1504.808594 597.859375 C 1501.828125 597.859375 1501.828125 593.238281 1504.808594 593.238281 C 1507.78125 593.238281 1507.78125 597.859375 1504.808594 597.859375 "/>
<path fill-rule="nonzero" fill="rgb(13.719177%, 45.092773%, 68.554688%)" fill-opacity="1" d="M 1498.019531 589.75 C 1498.019531 589.75 1514.191406 574.128906 1523.980469 567.769531 C 1523.921875 567.949219 1523.851562 568.121094 1523.78125 568.269531 C 1521.828125 572.421875 1510.550781 581.328125 1498.019531 589.75 "/>
<path fill-rule="nonzero" fill="rgb(100%, 100%, 100%)" fill-opacity="1" d="M 1565.910156 447.679688 C 1565.78125 448.050781 1565.238281 447.980469 1565.21875 447.589844 C 1564.851562 441.070312 1563.738281 417.289062 1567.308594 416.539062 C 1571.289062 415.699219 1570.871094 434.101562 1565.910156 447.679688 "/>
<path fill-rule="nonzero" fill="rgb(100%, 100%, 100%)" fill-opacity="1" d="M 1572.660156 452.300781 C 1572.289062 452.429688 1572 451.980469 1572.28125 451.710938 C 1577.03125 447.21875 1594.480469 431.039062 1597.351562 433.28125 C 1600.570312 435.78125 1586.238281 447.328125 1572.660156 452.300781 "/>
<path fill-rule="nonzero" fill="rgb(100%, 100%, 100%)" fill-opacity="1" d="M 1581.320312 461.328125 C 1580.929688 461.320312 1580.828125 460.78125 1581.191406 460.640625 C 1587.269531 458.25 1609.511719 449.78125 1611.339844 452.941406 C 1613.378906 456.460938 1595.78125 461.800781 1581.320312 461.328125 "/>
</svg>
